<svg width="66" height="43" viewBox="0 0 66 43" fill="none" xmlns="http://www.w3.org/2000/svg">
<path d="M46.3551 36.6592L44.0455 38.9688L41.736 36.6592L41.7036 10.5799L46.3879 10.5803L46.3551 36.6592Z" fill="#FEFEFF"/>
<path d="M46.3853 9.58598L41.7057 9.58598L41.7477 6.96902C41.7464 6.55708 41.948 6.12876 42.2398 5.83691C42.3831 5.69287 42.5535 5.57863 42.7412 5.50079C42.9289 5.42295 43.1301 5.38305 43.3333 5.3834L44.7611 5.3834C44.9637 5.38336 45.1643 5.42342 45.3514 5.50125C45.5385 5.57908 45.7084 5.69316 45.8512 5.83691C46.1451 6.13086 46.3442 6.5575 46.3442 6.96986L46.3853 9.58598Z" fill="#FEFEFF"/>
<path d="M18.5 11.0937V35.375M18.5 11.0937C18.5 11.0937 10.4062 4.15621 2.3125 9.93746V35.375C10.4062 29.5937 18.5 35.375 18.5 35.375C18.5 35.375 26.5938 29.5937 34.6875 35.375V9.93746C26.5938 4.15621 18.5 11.0937 18.5 11.0937Z" stroke="#FEFEFF" stroke-width="2" stroke-linecap="round" stroke-linejoin="round"/>
</svg>
