<svg width="46" height="46" viewBox="0 0 46 46" fill="none" xmlns="http://www.w3.org/2000/svg">
<g filter="url(#filter0_d_12_223)">
<rect x="6" y="6" width="29.9102" height="30" rx="13.2934" fill="white"/>
</g>
<path d="M28.2873 19.5311H27.6849V19.4999H20.9551V22.4999H25.1811C24.5646 24.2463 22.9079 25.4999 20.9551 25.4999C18.4775 25.4999 16.4686 23.4851 16.4686 20.9999C16.4686 18.5148 18.4775 16.4999 20.9551 16.4999C22.0988 16.4999 23.1393 16.9327 23.9316 17.6396L26.0466 15.5182C24.7111 14.2698 22.9247 13.4999 20.9551 13.4999C16.8257 13.4999 13.4776 16.8581 13.4776 20.9999C13.4776 25.1418 16.8257 28.4999 20.9551 28.4999C25.0846 28.4999 28.4327 25.1418 28.4327 20.9999C28.4327 20.4971 28.3811 20.0062 28.2873 19.5311Z" fill="#FFC107"/>
<path d="M14.3397 17.5091L16.7965 19.3162C17.4612 17.6654 19.0711 16.4999 20.9551 16.4999C22.0988 16.4999 23.1393 16.9327 23.9315 17.6396L26.0466 15.5182C24.7111 14.2698 22.9247 13.4999 20.9551 13.4999C18.083 13.4999 15.5922 15.1263 14.3397 17.5091Z" fill="#FF3D00"/>
<path d="M20.9551 28.5C22.8866 28.5 24.6415 27.7586 25.9684 26.553L23.6541 24.5887C22.8782 25.1806 21.93 25.5007 20.9551 25.5C19.0102 25.5 17.3588 24.2561 16.7366 22.5202L14.2982 24.4046C15.5358 26.8335 18.049 28.5 20.9551 28.5Z" fill="#4CAF50"/>
<path d="M28.2872 19.5311H27.6849V19.4999H20.9551V22.4999H25.1811C24.8862 23.3311 24.3549 24.0574 23.653 24.5891L23.6542 24.5883L25.9685 26.5526C25.8047 26.7018 28.4327 24.7499 28.4327 20.9999C28.4327 20.4971 28.3811 20.0062 28.2872 19.5311Z" fill="#1976D2"/>
<defs>
<filter id="filter0_d_12_223" x="0.0179644" y="0.0179644" width="45.8623" height="45.9521" filterUnits="userSpaceOnUse" color-interpolation-filters="sRGB">
<feFlood flood-opacity="0" result="BackgroundImageFix"/>
<feColorMatrix in="SourceAlpha" type="matrix" values="0 0 0 0 0 0 0 0 0 0 0 0 0 0 0 0 0 0 127 0" result="hardAlpha"/>
<feOffset dx="1.99401" dy="1.99401"/>
<feGaussianBlur stdDeviation="3.98802"/>
<feColorMatrix type="matrix" values="0 0 0 0 0 0 0 0 0 0 0 0 0 0 0 0 0 0 0.15 0"/>
<feBlend mode="normal" in2="BackgroundImageFix" result="effect1_dropShadow_12_223"/>
<feBlend mode="normal" in="SourceGraphic" in2="effect1_dropShadow_12_223" result="shape"/>
</filter>
</defs>
</svg>
