<svg width="238" height="165" viewBox="0 0 238 165" fill="none" xmlns="http://www.w3.org/2000/svg">
<path opacity="0.1" d="M238 105.971C238.022 98.2512 236.132 90.639 232.49 83.777C228.848 76.9151 223.561 71.0045 217.074 66.544C217.253 64.8763 217.345 63.2008 217.349 61.524C217.349 35.0091 195.522 13.5222 168.613 13.5222C160.324 13.5136 152.175 15.5905 144.958 19.5505C125.904 7.37089 101.032 0 73.8228 0C29.5639 0 -8.53273 19.5104 -25.4279 47.4883C-26.3668 47.4348 -27.3112 47.4053 -28.2639 47.4053C-55.1761 47.4053 -76.9999 68.9002 -76.9999 95.4151C-77.0188 104.781 -74.233 113.949 -68.9819 121.804V121.804C-68.9819 145.661 -45.8006 165 -17.2171 165H190.156C212.607 165 230.808 149.814 230.808 131.082C235.53 123.511 238.018 114.824 238 105.971V105.971Z" fill="#F9F3FF"/>
<g clip-path="url(#clip0_66_2032)">
<path opacity="0.1" d="M64.6188 110.582C60.3653 110.329 55.088 107.314 50.9847 105.981C46.1282 104.407 41.2525 102.892 36.3575 101.438C19.3168 96.3712 2.09332 92.0542 -15.313 88.4865C-16.9374 88.1527 -18.5644 87.8269 -20.1939 87.5092C-17.6556 81.778 -13.7229 76.8428 -8.78854 73.1964C-8.91492 71.9418 -8.97916 70.6812 -8.981 69.4197C-8.981 49.482 6.26783 33.3191 25.0849 33.3191C30.8782 33.3126 36.5742 34.8751 41.6175 37.854C54.9359 28.6997 72.3192 23.1592 91.3384 23.1592C118.364 23.1592 142.089 34.3467 155.532 51.1934L92.3507 62.3467L53.6002 69.1844C97.7763 70.5619 142.089 71.9315 186.138 68.6977C191.953 74.5766 195.633 82.3831 196.55 90.783C197.467 99.1829 195.563 107.655 191.165 114.751V114.751C191.165 115.473 191.136 116.189 191.084 116.899C189.962 117.235 188.879 117.56 187.907 117.774C172.303 121.218 156.599 124.1 140.796 126.421C152.442 133.924 166.624 134.986 180.058 138.164C173.553 143.775 164.719 147.214 154.984 147.214H10.0363C-5.6591 147.214 -18.3809 135.797 -18.3809 121.711C-20.7362 117.653 -22.3056 113.151 -23 108.46C6.04266 111.391 35.4471 108.847 64.6188 110.582Z" fill="#BE8FDC"/>
<path d="M17.1649 80.344C17.4401 80.1232 17.7624 79.9755 18.1041 79.9136C18.464 79.8271 18.8317 79.7728 19.1973 79.7125L23.9358 78.9986C24.4141 78.9058 24.9019 78.8787 25.3869 78.9181C25.6303 78.939 25.8672 79.0102 26.0839 79.1275C26.3007 79.2449 26.4929 79.4062 26.6495 79.6019C26.7907 79.784 26.8682 80.011 26.8689 80.2454C26.8426 80.4813 26.7691 80.7087 26.6534 80.9131C26.6075 81.0086 26.5683 81.1074 26.5359 81.2087C26.4906 81.4362 26.4341 81.6611 26.3666 81.8824C26.3456 81.9304 26.3184 81.975 26.2857 82.0152C26.2849 82.0265 26.2849 82.038 26.2857 82.0493C26.3377 82.3269 26.1703 82.6165 26.2453 82.8839C26.3108 83.1132 26.5244 83.252 26.6591 83.443C26.749 83.5785 26.7987 83.7387 26.8022 83.9035C26.8056 84.0684 26.7625 84.2306 26.6784 84.3701C26.534 84.6034 26.2723 84.7623 26.1972 85.0297C26.0991 85.3817 26.3647 85.7215 26.6014 85.993C27.0369 86.4928 27.4394 87.023 27.8062 87.5798C27.9093 87.7167 27.9757 87.8798 27.9987 88.0524C28.0198 88.4023 27.6984 88.71 27.7542 89.0579C27.7985 89.3314 28.0545 89.4983 28.2758 89.6612C29.0938 90.2243 29.7501 91.1293 29.8155 92.1529C30.0255 90.5243 30.6713 88.9907 31.6786 87.7286C31.9538 87.3827 32.2559 87.0348 32.3695 86.5964C32.4118 86.4214 32.4196 86.2344 32.4773 86.0654C32.6698 85.5325 33.2818 85.3032 33.5493 84.8125C33.7418 84.4666 33.7418 84.0222 33.9804 83.7185C34.2191 83.4149 34.5944 83.3465 34.8003 83.0529C34.9032 82.854 34.9907 82.6469 35.0621 82.4335C35.1484 82.2595 35.2699 82.1071 35.4181 81.987C35.4465 81.9633 35.4761 81.9411 35.5067 81.9206C35.4747 81.8908 35.4491 81.8542 35.4315 81.8133C35.4139 81.7724 35.4048 81.7282 35.4046 81.6833C35.4046 81.448 35.6279 81.2932 35.8223 81.1765C36.0725 81.0277 36.3169 80.8668 36.5556 80.6999C36.2953 80.5733 36.0696 80.3803 35.8993 80.1388C35.6857 79.7786 35.5973 79.3525 35.6491 78.9322C35.6622 78.593 35.7835 78.2681 35.9936 78.0091C36.1148 77.8744 36.2669 77.7778 36.3939 77.6511C36.723 77.3153 36.8347 76.8186 36.9713 76.3601C37.1522 75.7567 37.4351 75.1232 37.9625 74.8035C38.2165 74.6486 38.5129 74.5762 38.7612 74.4133C39.0095 74.2504 39.2173 73.9428 39.1307 73.6471C39.073 73.446 38.894 73.3073 38.7728 73.1363C38.628 72.9153 38.5725 72.6435 38.6182 72.38C38.664 72.1164 38.8073 71.8824 39.0172 71.7286C39.1596 71.6341 39.3347 71.5516 39.3636 71.3786C39.475 71.3484 39.576 71.286 39.655 71.1984C39.734 71.1109 39.7878 71.0019 39.8101 70.8839C39.8534 70.6474 39.8534 70.4045 39.8101 70.168C39.7601 69.7939 39.7107 69.4212 39.6619 69.0498C39.5771 69.0867 39.4862 69.1056 39.3944 69.1056C39.3026 69.1056 39.2117 69.0867 39.1269 69.0498C38.9603 69.3323 38.7669 69.5964 38.5495 69.8382C37.9634 70.5613 37.507 71.3891 37.2023 72.2816C37.0926 72.6034 36.9809 72.9634 36.6961 73.1343C36.5979 73.1926 36.4863 73.2228 36.3901 73.2851C36.2714 73.3716 36.1695 73.4808 36.0898 73.6069C35.8589 73.9267 35.6279 74.2444 35.3989 74.5642L35.3873 74.6124C35.3811 74.6408 35.3707 74.6679 35.3565 74.6929C35.3139 74.743 35.2549 74.7746 35.191 74.7814C34.4828 74.9523 33.6879 75.1092 33.0739 74.7049C32.5196 74.343 32.2771 73.627 31.8075 73.1484C31.4746 72.8085 31.003 72.5451 30.9087 72.0664C31.0211 72.0302 31.1316 71.9879 31.2397 71.9397C31.1435 71.8392 31.0473 71.7225 30.9164 71.5898C30.7263 71.3953 30.5548 71.1818 30.4045 70.9523C30.242 70.6692 30.1127 70.3667 30.0195 70.0513C29.6487 68.9466 29.2766 67.8412 28.9033 66.7351C28.7262 66.2122 28.5491 65.6853 28.3259 65.1765C28.0949 64.6255 27.8216 64.0966 27.5695 63.5556C26.9188 62.1487 26.4167 60.6719 26.0721 59.1514C26.011 58.9439 25.9907 58.7257 26.0125 58.5099C26.0663 58.1619 26.3185 57.8884 26.5591 57.6411C26.8009 57.3674 27.0767 57.1287 27.3789 56.9312C27.5307 56.8326 27.6997 56.7665 27.8762 56.7368C28.0526 56.7071 28.233 56.7144 28.4067 56.7582C28.8994 56.909 29.2093 57.4359 29.3228 57.9649C29.4364 58.4938 29.394 59.0388 29.4421 59.5737C29.5114 60.348 29.7655 61.0961 29.8271 61.8724C29.8598 62.3208 29.8271 62.7753 29.879 63.2238C29.9738 63.8107 30.1694 64.3749 30.4564 64.8889C31.0806 66.115 31.9256 67.2035 32.945 68.0946C33.0624 68.1971 33.1836 68.2957 33.2991 68.4063C33.2991 68.3198 33.2856 68.2313 33.2741 68.1449C33.3579 68.1676 33.4397 68.1979 33.5185 68.2354C33.5088 68.1338 33.5186 68.0312 33.5474 67.9337C33.7014 67.4531 34.3865 67.3304 34.5097 66.8417C34.5302 66.7208 34.5412 66.5984 34.5424 66.4757C34.5828 66.0473 34.8619 65.6853 34.9581 65.269C35.0467 64.8849 34.9793 64.4646 35.1506 64.1087C35.2966 63.8861 35.4686 63.6834 35.6626 63.5053C35.8938 63.2293 36.0605 62.9009 36.1495 62.5461C36.1745 62.4475 36.1976 62.345 36.2245 62.2464C36.1953 62.0233 36.2191 61.796 36.2938 61.5848C36.469 61.1303 36.9213 60.8387 37.0848 60.3781C37.2119 60.0202 37.1561 59.5737 37.3966 59.2962C37.5245 59.1636 37.6809 59.065 37.8528 59.0086C38.7336 58.6501 39.658 58.422 40.5992 58.3309C41.1266 58.2806 41.7078 58.2524 42.085 57.8643C42.5258 57.4138 42.547 56.6034 43.0628 56.2555C43.517 55.9478 44.1598 56.175 44.512 56.6074C44.5649 56.671 44.6138 56.7382 44.6583 56.8085C44.7226 56.539 44.7363 56.259 44.6987 55.984C44.6987 55.9156 44.6852 55.8452 44.6794 55.7829C43.8104 55.4861 43.0709 54.8759 42.5932 54.0614C42.5932 54.0614 42.5932 54.0614 42.5932 54.0734L42.57 54.1358C42.5142 54.2826 42.4257 54.4234 42.2948 54.4395C42.2078 54.4384 42.1236 54.4065 42.0562 54.349C41.9401 54.2647 41.833 54.1676 41.7367 54.0594C41.6879 54.0031 41.6417 53.9447 41.5981 53.8844C41.5094 53.7588 41.4333 53.624 41.371 53.4822C41.2754 53.2688 41.2105 53.0417 41.1785 52.8085C41.1439 52.5752 41.1401 52.3359 41.1016 52.1026C41.0656 51.922 41.0187 51.744 40.9611 51.5697C40.9418 51.5114 40.9226 51.453 40.9052 51.3947C40.8879 51.3364 40.8629 51.258 40.8437 51.1936C40.7232 50.78 40.6584 50.3509 40.6512 49.9186C40.6512 49.8462 40.6512 49.7738 40.6512 49.7014C40.6582 49.4193 40.719 49.1415 40.8301 48.8842C40.9411 48.6269 41.1001 48.3954 41.2979 48.2032C41.6289 47.9196 42.0677 47.8009 42.3102 47.4168C42.468 47.1594 42.5027 46.8276 42.5951 46.5259C42.6949 46.1649 42.8896 45.8404 43.1569 45.5891C43.4243 45.3378 43.7537 45.1698 44.1078 45.1041C44.5342 45.0552 44.9624 45.1782 45.305 45.448V45.448L45.3319 45.4701C45.5227 45.6224 45.6846 45.8107 45.8092 46.0252C46.0635 45.952 46.2963 45.8138 46.4867 45.623C46.6791 45.4359 46.8273 45.2006 47.0217 45.0196C47.2034 44.8458 47.4264 44.7261 47.6674 44.673C47.9085 44.62 48.1587 44.6355 48.3921 44.718C48.6324 44.8186 48.8465 44.9773 49.0168 45.1811C49.1871 45.3849 49.3087 45.628 49.3717 45.8904C49.4776 46.3047 49.4583 46.7813 49.6796 47.1272C49.8509 47.3967 50.1319 47.5294 50.3282 47.7748C50.4502 47.9302 50.5335 48.1146 50.5707 48.3118V48.3118C50.5941 48.422 50.6051 48.5347 50.6035 48.6476V48.6476C50.6035 48.6979 50.6035 48.7482 50.5919 48.7964C50.5919 48.7964 50.5919 48.8125 50.5919 48.8206C50.5851 48.8757 50.5742 48.9301 50.5592 48.9834V48.9834C50.5045 49.1873 50.4065 49.3757 50.2724 49.5345C50.1454 49.6866 49.9867 49.8063 49.8086 49.8844C49.7357 49.914 49.6612 49.9389 49.5853 49.9588L49.3563 50.0131L49.2755 50.0332C49.5519 50.5755 49.7053 51.1768 49.724 51.7909C49.7427 52.4049 49.6261 53.0152 49.3832 53.5747C49.3832 53.631 49.3967 53.6873 49.4025 53.7436C49.4338 54.5355 49.4004 55.3288 49.3024 56.1147C49.2755 56.4264 49.2601 56.7703 49.4429 57.0176C49.5262 57.1149 49.6198 57.202 49.722 57.2771C49.6181 57.1363 49.5122 56.9975 49.4044 56.8588C49.6758 56.5732 50.105 56.537 50.4899 56.5652C51.2349 56.6233 51.9581 56.8541 52.607 57.2409C53.0381 57.5003 53.4808 57.8442 53.9735 57.7839C54.2641 57.7497 54.5509 57.5828 54.8338 57.6632C54.9928 57.7312 55.1413 57.8233 55.2745 57.9367C55.3798 58.0156 55.5068 58.0565 55.6364 58.0533C55.9385 57.6652 56.4062 57.4018 56.7681 57.086C57.1799 56.703 57.5568 56.2809 57.894 55.8251C58.5175 55.0388 59.1392 54.2504 59.7512 53.4561C60.267 52.7884 60.7963 52.0664 60.8868 51.2117C60.896 51.1269 60.9005 51.0416 60.9002 50.9563C60.8877 50.5502 60.8387 50.1462 60.754 49.7497C60.7311 49.6539 60.7311 49.5538 60.754 49.4581C60.8117 49.257 61.033 49.1825 61.2236 49.1383C61.1986 48.9834 61.1812 48.8246 61.1716 48.6737C61.0638 46.9442 61.1812 45.1866 60.8309 43.4932C60.6981 42.8417 60.4807 42.182 60.0322 41.7094C59.3297 40.9674 58.1538 40.7884 57.6149 39.9095C57.1645 39.1775 57.3435 38.1418 57.9094 37.4963C58.4752 36.8507 59.3471 36.5873 60.1766 36.6194C60.4093 36.6111 60.6392 36.6755 60.8367 36.8045C61.0214 36.9758 61.1595 37.195 61.2371 37.4399L62.0627 39.5375C62.3021 40.0836 62.504 40.6468 62.6671 41.2228C62.898 42.1036 62.95 43.0327 63.1328 43.9216C63.1328 44.6054 63.5543 45.4581 63.7853 46.0875C64.0432 46.7954 64.3222 47.4953 64.5551 48.2172C64.6129 48.3982 64.8149 48.9352 64.94 49.4239C64.9873 49.4526 65.0312 49.4871 65.0709 49.5264C65.1714 49.661 65.2627 49.8028 65.3442 49.9508C65.5193 50.1921 65.8042 50.3208 65.9967 50.5541C66.1891 50.7874 66.2295 51.2157 65.962 51.3324C65.9077 51.3515 65.8516 51.3643 65.7946 51.3706C65.7595 51.3737 65.7248 51.3797 65.6906 51.3887C65.4019 51.4731 65.2884 51.8532 65.3307 52.167C65.3731 52.4807 65.5232 52.7703 65.5482 53.084C65.6002 53.6391 65.2884 54.1559 64.9882 54.6225C64.6773 55.1282 64.3339 55.6113 63.9604 56.0684C63.689 56.3862 63.383 56.6717 63.1097 56.9774C62.0685 58.0956 61.2409 59.4028 60.3055 60.6175C59.969 61.0759 59.5864 61.4953 59.1642 61.8683C58.8885 62.0937 58.6 62.3012 58.3001 62.4897L56.6911 63.5556C56.5086 63.6953 56.3021 63.7971 56.0829 63.8553C56.0114 63.8653 55.9389 63.8653 55.8673 63.8553C55.8577 63.9055 55.85 63.9538 55.8385 64.0041C55.7134 64.531 55.4381 65.0096 55.4073 65.5466C55.3765 66.0835 55.4227 66.6325 55.3862 67.1755C55.3515 67.6763 55.2457 68.1811 55.2187 68.6738C55.1648 69.623 55.3881 70.5601 55.6037 71.4893C55.9289 72.8487 56.1252 74.2364 56.7584 75.4692C56.9355 75.809 57.1434 76.1549 57.1434 76.5431C57.1434 76.5893 57.1434 76.6376 57.1318 76.6838L57.4205 76.8548C57.5052 76.905 57.5899 76.9553 57.6669 77.0076C58.0325 77.257 58.4232 77.5325 58.5734 77.9629C58.6946 78.3108 58.6388 78.709 58.7851 79.0468C58.792 79.062 58.7997 79.0768 58.8082 79.0911C58.9621 79.4048 59.2682 79.6381 59.3374 79.982C59.3894 80.2454 59.2893 80.525 59.3374 80.7864C59.3374 80.7864 59.3374 80.7864 59.3374 80.7965C59.3812 80.9278 59.416 81.0622 59.4414 81.1987C59.4434 81.2433 59.4395 81.2879 59.4298 81.3314C59.3931 81.4838 59.3125 81.6207 59.1989 81.7236C59.1296 81.7931 59.0542 81.8557 58.9737 81.9106C58.8916 81.9669 58.8069 82.0192 58.7196 82.0674L58.6696 82.0956C58.5965 82.1358 58.5233 82.174 58.4483 82.2102L58.3982 82.2324C58.3116 82.2726 58.2231 82.3088 58.1345 82.341L58.073 82.3611C58.0037 82.3852 57.9325 82.4073 57.8612 82.4254L57.8131 82.4415L57.7689 82.4516L57.5764 82.4938L57.5052 82.5079C57.4205 82.5226 57.3339 82.5347 57.2454 82.5441H57.1684C57.1029 82.5441 57.0394 82.5541 56.9759 82.5561H56.8855C56.8181 82.5561 56.7527 82.5561 56.693 82.5561H56.6237C56.5332 82.5561 56.4428 82.5421 56.3523 82.53H56.3235C56.2426 82.5179 56.1618 82.5038 56.081 82.4857L56.0194 82.4717C55.9443 82.4536 55.8692 82.4355 55.7942 82.4113L55.7538 82.3993C55.6633 82.3711 55.5729 82.341 55.4843 82.3048C55.178 82.1732 54.8809 82.0193 54.5951 81.8442C54.4027 81.7336 54.2102 81.621 54.0178 81.5184C53.875 81.4433 53.7285 81.3761 53.5789 81.3173C53.2149 81.1548 52.8189 81.0859 52.4242 81.1162C52.2293 81.1439 52.0365 81.1849 51.8468 81.2389C51.8468 81.261 51.8468 81.2831 51.8468 81.3053C51.6902 82.2706 51.5356 83.2359 51.3829 84.2012C51.131 84.0116 50.8645 83.8442 50.5861 83.7004C50.6382 83.8462 50.6725 83.9982 50.6881 84.1529C50.6997 84.2726 50.6997 84.3932 50.6881 84.5129C50.6708 84.704 50.6323 84.9151 50.742 85.0659C50.8094 85.1585 50.9345 85.2107 50.9711 85.3153C50.9978 85.4222 51.0043 85.5336 50.9903 85.6431C50.9982 85.7681 51.0488 85.886 51.1329 85.9753C51.2169 86.0647 51.3289 86.1195 51.4484 86.1298C51.3933 86.2917 51.392 86.4682 51.4447 86.631C51.4974 86.7937 51.6011 86.9331 51.739 87.0267C51.8195 87.0672 51.8946 87.1186 51.9623 87.1796C52.0281 87.2684 52.0723 87.3726 52.0912 87.4832C52.3456 88.4792 52.8687 89.3776 53.5982 90.0715C53.8719 90.2962 54.1216 90.551 54.343 90.8317C54.4799 91.049 54.5929 91.2817 54.6798 91.5255C55.1931 92.8367 55.714 94.1486 56.2426 95.4611C56.5352 96.1952 56.82 96.9413 56.9124 97.7316C57.1434 99.8995 58.991 101.738 58.6446 103.889C58.5746 104.427 58.3671 104.935 58.0441 105.36C57.6592 105.844 57.0818 106.122 56.5044 106.347C55.0205 106.95 53.4558 107.28 51.8968 107.612L49.4487 108.137C48.9683 108.252 48.4808 108.333 47.9898 108.378C47.399 108.42 46.7927 108.362 46.2172 108.519C45.8612 108.615 45.5205 108.794 45.1529 108.815C44.8373 108.833 44.4485 108.762 44.2618 109.032C44.0751 109.301 44.2195 109.657 44.0424 109.897C43.7575 110.277 43.0628 109.897 42.7529 110.255C42.6682 110.392 42.6034 110.542 42.5604 110.699C42.5134 110.796 42.4479 110.882 42.368 110.952C42.3491 111.066 42.3414 111.181 42.3449 111.296C42.385 111.763 42.4781 112.224 42.622 112.668C42.853 113.484 43.0833 114.301 43.313 115.119C43.4006 115.408 43.465 115.704 43.5054 116.004C43.5199 116.15 43.5199 116.297 43.5054 116.443C43.465 116.887 43.2206 117.346 42.8145 117.49C42.4994 117.577 42.1644 117.534 41.8791 117.37C41.6038 117.219 41.3455 117.037 41.1093 116.827C40.6831 116.49 40.3086 116.087 39.9987 115.632C39.0364 114.128 39.3482 112.093 38.6727 110.429C38.2242 109.319 37.3505 108.418 37.0598 107.248C36.9919 107.025 36.9839 106.787 37.0367 106.56C37.158 106.158 37.5679 105.929 37.9509 105.784H37.9683C38.2829 105.667 38.6043 105.571 38.9306 105.496C39.0114 105.478 39.0942 105.464 39.1769 105.45C39.3601 105.294 39.5057 105.096 39.6023 104.871C39.6174 104.751 39.6478 104.634 39.6927 104.523C39.7233 104.475 39.7645 104.435 39.8127 104.407C39.8609 104.379 39.9148 104.364 39.9699 104.362C40.1623 104.342 40.4202 104.414 40.63 104.398C41.0592 104.366 41.3441 103.926 41.729 103.723C42.1139 103.519 42.5316 103.57 42.9415 103.6C43.0881 103.621 43.2373 103.611 43.3803 103.572C43.5513 103.489 43.7075 103.377 43.8422 103.24C44.0791 103.047 44.3556 102.915 44.6499 102.853C44.9441 102.791 45.2481 102.802 45.5378 102.884C45.722 102.962 45.917 103.008 46.1152 103.021C46.4905 102.999 46.7561 102.649 47.0333 102.383C47.7916 101.657 48.8713 101.466 49.7913 100.99C49.9321 100.935 50.0495 100.829 50.1223 100.692C50.2282 100.418 49.9895 100.145 49.774 99.9579L48.1919 98.5843C46.4597 97.08 44.2945 95.9478 43.49 93.7417C43.4061 93.4459 43.2761 93.1666 43.1051 92.9151C43.0428 92.8384 42.971 92.7707 42.8915 92.714C42.5415 92.4771 42.1174 92.3906 41.7078 92.4727C41.2087 92.5894 40.7357 92.8052 40.3144 93.1082C39.6254 93.5439 38.955 94.0132 38.3031 94.5159C37.6575 94.9981 37.0435 95.5248 36.4651 96.0926C35.4547 97.0981 34.6136 98.2907 33.6725 99.3747C32.7313 100.459 31.6555 101.47 30.3486 101.989C29.0418 102.508 27.4617 102.486 26.3396 101.615C25.0444 100.609 24.6286 98.8116 24.3015 97.1625C23.5797 96.4345 23.3622 95.3264 23.01 94.347C22.7887 93.7256 22.5058 93.1404 22.2671 92.521C21.9823 91.7929 21.759 91.0408 21.5358 90.2907C21.2828 89.5374 21.1111 88.757 21.0238 87.9639C20.9314 86.711 21.2528 85.3777 20.916 84.2012C20.4714 84.0986 20.0673 83.8372 19.6304 83.6843C18.9799 83.4611 18.2831 83.4973 17.5941 83.5013H17.5498C17.3124 83.5277 17.0735 83.4689 16.8724 83.3344C16.6414 83.1333 16.6049 82.7894 16.5933 82.4777C16.5664 81.7075 16.6126 80.8427 17.1649 80.344ZM45.0509 46.0392C45.21 46.0804 45.3747 46.0926 45.5378 46.0755L45.0509 46.0392Z" fill="url(#paint0_linear_66_2032)"/>
<path d="M44.2927 58.7611C44.5257 58.968 44.7989 59.1196 45.0934 59.2056L46.4579 59.7164C47.1989 59.9939 47.9726 60.2735 48.754 60.1729C49.1909 60.1166 51.0635 59.829 51.3465 59.4731C51.7776 58.922 50.2667 58.1116 49.7509 57.647C49.634 57.5592 49.5257 57.4595 49.4276 57.3494C49.2351 57.104 49.2602 56.7601 49.2871 56.4504C49.385 55.6659 49.4185 54.874 49.3872 54.0834C49.3722 53.895 49.3465 53.7076 49.3102 53.5223C49.1177 52.5972 48.294 52.9351 47.6435 53.1804C46.8604 53.4462 46.1032 53.789 45.382 54.2041C45.1624 54.3224 44.9715 54.4916 44.8239 54.6988C44.5391 55.1493 44.6526 55.7405 44.6988 56.3077C44.7392 56.7481 44.7373 57.1704 44.4736 57.4902C44.3409 57.6124 44.2192 57.747 44.1099 57.8924C44.0483 58.0387 44.0328 58.2018 44.0656 58.3579C44.0985 58.5141 44.178 58.6553 44.2927 58.7611Z" fill="#BE6F72"/>
<path d="M63.1425 44.2673C62.95 43.3764 62.9077 42.4573 62.6767 41.5744C62.5137 41.0004 62.3118 40.4392 62.0724 39.8952L61.2237 37.8258C61.146 37.5815 61.0079 37.3629 60.8233 37.1923C60.6254 37.0643 60.3958 36.9999 60.1632 37.0073C59.3337 36.9751 58.4618 37.2446 57.8959 37.8821C57.3301 38.5196 57.1511 39.5513 57.6015 40.2813C58.1404 41.1602 59.3163 41.3371 60.0188 42.0772C60.4673 42.5498 60.6848 43.2074 60.8176 43.857C61.1678 45.5463 61.0504 47.2979 61.1582 49.0234C61.1929 49.5604 61.2929 50.1737 61.7356 50.4513C62.0031 50.5883 62.3007 50.6486 62.5978 50.6262L63.8604 50.6484C64.0721 50.6484 64.84 50.7871 64.9805 50.6202C65.2269 50.3286 64.6649 48.8766 64.5629 48.5528C64.3358 47.8349 64.0567 47.135 63.793 46.4291C63.564 45.7997 63.1425 44.949 63.1425 44.2673Z" fill="#BE6F72"/>
<path d="M37.0734 107.447C37.364 108.609 38.2378 109.514 38.6862 110.622C39.3618 112.281 39.0577 114.311 40.0123 115.811C40.3219 116.267 40.6964 116.67 41.1228 117.007C41.3591 117.217 41.6174 117.399 41.8927 117.548C42.178 117.713 42.513 117.756 42.828 117.669C43.2341 117.524 43.4786 117.066 43.519 116.623C43.5334 116.478 43.5334 116.332 43.519 116.187C43.4786 115.888 43.4142 115.592 43.3265 115.304C43.0956 114.49 42.8652 113.675 42.6356 112.859C42.4918 112.416 42.3988 111.957 42.3584 111.491C42.3334 110.984 42.6413 110.325 42.5105 109.852C42.4508 109.639 42.2275 109.45 42.1255 109.271C41.9807 109.013 41.8694 108.737 41.7945 108.448C41.6367 107.887 41.5289 107.288 41.1979 106.815C40.9819 106.535 40.7292 106.288 40.4473 106.081C40.2392 105.891 39.9953 105.748 39.7313 105.661C39.4752 105.614 39.2122 105.627 38.9615 105.699C38.635 105.772 38.3135 105.867 37.9991 105.985H37.9818C37.5969 106.13 37.1889 106.353 37.0676 106.759C37.0087 106.984 37.0107 107.223 37.0734 107.447V107.447Z" fill="#3F3D56"/>
<path d="M16.5954 82.7231C16.6069 83.0348 16.6435 83.3827 16.8745 83.5778C17.0756 83.7122 17.3145 83.7711 17.5519 83.7447H17.6039C18.291 83.7447 18.9896 83.7045 19.6402 83.9277C20.1348 84.0987 20.589 84.4124 21.1048 84.4747C21.815 84.5592 22.4828 84.153 23.1122 83.799C23.7047 83.4655 24.3131 83.1634 24.9348 82.894C25.3428 82.7191 26.1762 82.6065 26.3725 82.1399C26.4398 81.9191 26.4963 81.6949 26.5419 81.4682C26.5742 81.3668 26.6134 81.268 26.6593 81.1726C26.7747 80.9688 26.8482 80.7421 26.8748 80.5069C26.8741 80.2725 26.7967 80.0454 26.6554 79.8634C26.4984 79.6691 26.3062 79.5093 26.0899 79.393C25.8735 79.2767 25.6373 79.2062 25.3948 79.1856C24.9098 79.1462 24.4219 79.1733 23.9436 79.2661L19.2052 79.978C18.8395 80.0323 18.4719 80.0866 18.112 80.1791C17.7702 80.241 17.4479 80.3887 17.1728 80.6095C16.6127 81.1002 16.5665 81.9629 16.5954 82.7231Z" fill="#3F3D56"/>
<path d="M20.7604 84.0102C21.3377 85.2832 20.922 86.7895 21.026 88.1972C21.1132 88.9883 21.2849 89.7668 21.5379 90.518C21.7612 91.2661 21.9844 92.0162 22.2693 92.7422C22.5079 93.3455 22.7908 93.9489 23.0122 94.5642C23.3644 95.5456 23.5896 96.6497 24.3036 97.3797C24.6308 99.0248 25.0465 100.823 26.3418 101.82C27.4677 102.689 29.0362 102.719 30.3508 102.194C31.6653 101.669 32.7335 100.664 33.6746 99.5798C34.6158 98.4959 35.4568 97.3154 36.4672 96.3058C37.0463 95.7379 37.6617 95.2118 38.3091 94.7312C38.9609 94.2364 39.6313 93.7712 40.3204 93.3355C40.7422 93.0339 41.2151 92.8189 41.7138 92.702C42.1234 92.6199 42.5474 92.7064 42.8974 92.9433C42.9769 93 43.0488 93.0677 43.1111 93.1444C43.2824 93.395 43.4125 93.6737 43.496 93.969C44.3043 96.1691 46.4734 97.2993 48.2056 98.7995L49.7876 100.169C50.0032 100.356 50.2418 100.63 50.136 100.901C50.0632 101.038 49.9457 101.144 49.8049 101.199C48.885 101.673 47.8052 101.864 47.0469 102.588C46.7698 102.854 46.5042 103.204 46.1289 103.224C45.9307 103.212 45.7358 103.166 45.5515 103.089C45.2619 103.007 44.9581 102.997 44.6639 103.058C44.3697 103.119 44.0932 103.251 43.8559 103.443C43.7212 103.58 43.565 103.693 43.394 103.775C43.2509 103.814 43.1018 103.824 42.9552 103.803C42.5452 103.773 42.1103 103.735 41.7427 103.926C41.3751 104.117 41.0729 104.567 40.6437 104.599C40.4339 104.616 40.1837 104.543 39.9836 104.563C39.9284 104.565 39.8745 104.581 39.8263 104.609C39.7781 104.637 39.737 104.676 39.7064 104.724C39.6615 104.835 39.6311 104.951 39.6159 105.07C39.537 105.354 39.2714 105.527 39.0982 105.76C38.8326 106.118 38.7941 106.604 38.8211 107.057C38.9082 108.472 39.5117 109.798 40.507 110.761C40.7896 111.063 41.15 111.273 41.5444 111.365C41.7419 111.408 41.9474 111.385 42.1318 111.3C42.3163 111.214 42.4703 111.07 42.5722 110.888C42.6151 110.731 42.68 110.582 42.7646 110.446C43.0745 110.09 43.7693 110.468 44.0541 110.088C44.2312 109.85 44.1042 109.47 44.2735 109.225C44.4429 108.98 44.8509 109.024 45.1647 109.01C45.5323 108.99 45.8729 108.809 46.229 108.714C46.8064 108.557 47.4107 108.616 48.0016 108.573C48.4926 108.528 48.98 108.447 49.4604 108.332L51.9085 107.809C53.4675 107.477 55.0322 107.141 56.5161 106.548C57.0839 106.323 57.6555 106.045 58.0558 105.563C58.3785 105.139 58.586 104.631 58.6563 104.095C59.0047 101.949 57.157 100.115 56.9241 97.9529C56.8414 97.1645 56.5392 96.4204 56.2544 95.6884C55.7321 94.3799 55.2112 93.0707 54.6916 91.7608C54.6075 91.5169 54.4978 91.2836 54.3644 91.065C54.1429 90.785 53.8932 90.5308 53.6195 90.3068C52.8902 89.6153 52.367 88.7188 52.1126 87.7246C52.0937 87.614 52.0494 87.5098 51.9836 87.4209C51.9154 87.3613 51.8404 87.3106 51.7603 87.2701C51.6229 87.1766 51.5195 87.0375 51.4668 86.8752C51.4141 86.7129 51.4151 86.5368 51.4697 86.3752C51.3503 86.3649 51.2383 86.3101 51.1542 86.2207C51.0701 86.1314 51.0196 86.0135 51.0117 85.8885C51.0257 85.7796 51.0191 85.669 50.9924 85.5627C50.9462 85.4581 50.8308 85.4059 50.7634 85.3133C50.6537 85.1625 50.6922 84.9514 50.7095 84.7623C50.7211 84.6426 50.7211 84.522 50.7095 84.4023C50.6674 83.9765 50.4851 83.5791 50.1937 83.2782C49.7337 82.8056 49.0793 82.9282 48.4442 82.8156C47.8107 82.6727 47.1919 82.466 46.5966 82.1982C44.9266 81.5106 43.1682 81.0857 41.3789 80.9373C39.5807 80.7895 37.7746 81.09 36.1093 81.8141C35.867 81.9166 35.6386 82.0519 35.4299 82.2163C35.2817 82.3357 35.1602 82.4873 35.0738 82.6608C35.0028 82.8737 34.9152 83.0801 34.8121 83.2782C34.6061 83.5718 34.2174 83.6663 33.9922 83.9438C33.767 84.2213 33.7477 84.6899 33.5611 85.0338C33.2935 85.5245 32.6738 85.7518 32.489 86.2847C32.4313 86.4536 32.4236 86.6386 32.3813 86.8136C32.2773 87.252 31.9655 87.5979 31.6903 87.9438C30.6814 89.2048 30.0354 90.739 29.8273 92.3682C29.7657 91.3486 29.1094 90.4456 28.2876 89.8825C28.0662 89.7317 27.8103 89.5647 27.766 89.2912C27.7102 88.9453 28.0316 88.6376 28.0104 88.2857C27.9871 88.1139 27.9207 87.9515 27.818 87.8151C27.4512 87.2596 27.0486 86.7308 26.6131 86.2324C26.3764 85.9609 26.1108 85.6291 26.209 85.2711C26.284 85.0036 26.5458 84.8468 26.6901 84.6135C26.7744 84.4744 26.8175 84.3125 26.814 84.1479C26.8106 83.9834 26.7608 83.8235 26.6709 83.6884C26.5362 83.4974 26.3225 83.3586 26.2571 83.1313C26.182 82.8639 26.3495 82.5743 26.2975 82.2988C26.2272 82.0781 26.0874 81.8889 25.901 81.7618C25.6457 81.5189 25.3554 81.3193 25.0407 81.1706C24.5326 80.9695 23.9668 81.0439 23.4279 81.1223C22.5272 81.253 21.5167 81.4541 21.0086 82.2425C20.6834 82.7352 20.5178 83.4833 20.7604 84.0102Z" fill="#5F5F5F"/>
<path opacity="0.1" d="M16.5954 82.7231C16.607 83.0348 16.6435 83.3827 16.8745 83.5778C17.0756 83.7122 17.3145 83.7711 17.5519 83.7447H17.6039C17.525 83.3264 17.0381 83.0871 16.9534 82.6627C16.9389 82.5324 16.9502 82.4003 16.9866 82.2747C17.0231 82.1492 17.0838 82.0327 17.1651 81.9327C17.577 81.3515 18.239 81.0298 18.8973 80.7945C20.7568 80.1283 22.749 79.9725 24.6827 80.342C25.2085 80.4315 25.7201 80.5959 26.2032 80.8307C26.3633 80.9353 26.5175 81.0495 26.6651 81.1725C26.7805 80.9688 26.854 80.742 26.8806 80.5069C26.8799 80.2725 26.8025 80.0454 26.6612 79.8633C26.5042 79.6691 26.312 79.5093 26.0957 79.393C25.8793 79.2767 25.6431 79.2062 25.4006 79.1856C24.9156 79.1462 24.4277 79.1733 23.9494 79.2661L19.211 79.978C18.8453 80.0323 18.4777 80.0866 18.1178 80.1791C17.776 80.241 17.4537 80.3887 17.1786 80.6095C16.6127 81.1001 16.5665 81.9629 16.5954 82.7231Z" fill="black"/>
<path opacity="0.1" d="M37.0734 107.447C37.364 108.609 38.2378 109.514 38.6863 110.622C39.3618 112.281 39.0577 114.311 40.0123 115.811C40.322 116.267 40.6965 116.67 41.1228 117.007C41.3592 117.217 41.6174 117.399 41.8927 117.548C42.178 117.713 42.513 117.756 42.828 117.669C43.2341 117.524 43.4786 117.066 43.519 116.623C43.5334 116.478 43.5334 116.332 43.519 116.187L43.5074 116.219C43.34 116.641 43.0667 117.084 42.6356 117.158C42.4738 117.17 42.3113 117.148 42.1583 117.091C42.0053 117.035 41.8651 116.946 41.7464 116.831C41.1113 116.298 40.7417 115.503 40.3895 114.737C40.1139 114.184 39.8958 113.603 39.739 113.001C39.662 112.66 39.6255 112.31 39.5466 111.968C39.1809 110.307 37.9357 108.951 37.6604 107.268C37.638 107.152 37.6328 107.033 37.645 106.916C37.6813 106.763 37.737 106.615 37.8106 106.478C37.8774 106.322 37.9265 106.159 37.9568 105.991C37.5719 106.136 37.1639 106.359 37.0426 106.765C36.9929 106.991 37.0036 107.227 37.0734 107.447Z" fill="black"/>
<path opacity="0.1" d="M39.9796 104.563C40.1578 105.05 40.4575 105.478 40.8476 105.802C41.3955 106.238 42.037 106.528 42.7164 106.647C43.0327 106.731 43.3646 106.727 43.6788 106.635C44.106 106.48 44.414 106.061 44.8509 105.941C45.1627 105.852 45.4975 105.931 45.8132 105.882C46.3809 105.8 46.8217 105.347 47.2798 104.985C48.6828 103.883 50.5247 103.527 51.9277 102.425C51.9902 102.385 52.0419 102.329 52.0779 102.263C52.1047 102.19 52.1146 102.112 52.1067 102.035C52.1015 101.367 51.9577 100.707 51.6852 100.103C51.4621 99.6806 51.1962 99.2849 50.8923 98.9221C49.6355 97.3133 48.3729 95.6924 46.8679 94.3349C46.2366 93.7658 45.5476 93.2348 44.7508 92.9774C44.3081 92.8346 43.4343 92.6999 42.8954 92.9412C42.975 92.998 43.0468 93.0656 43.1091 93.1423C43.2804 93.3929 43.4105 93.6716 43.494 93.9669C44.3043 96.169 46.4733 97.2992 48.2055 98.7995L49.7875 100.169C50.0031 100.356 50.2418 100.63 50.1359 100.901C50.0631 101.038 49.9457 101.144 49.8049 101.199C48.8849 101.673 47.8052 101.864 47.0469 102.588C46.7697 102.854 46.5041 103.204 46.1288 103.224C45.9307 103.212 45.7357 103.166 45.5514 103.089C45.2618 103.007 44.958 102.997 44.6639 103.058C44.3697 103.119 44.0931 103.251 43.8558 103.443C43.7211 103.58 43.5649 103.693 43.3939 103.775C43.2509 103.814 43.1017 103.824 42.9551 103.803C42.5452 103.773 42.1102 103.735 41.7426 103.926C41.375 104.117 41.0728 104.567 40.6436 104.599C40.43 104.615 40.1798 104.539 39.9796 104.563Z" fill="black"/>
<path d="M57.6803 77.2691C58.046 77.5145 58.4347 77.792 58.5848 78.2183C58.708 78.5662 58.6503 78.9644 58.7985 79.3023C58.9467 79.6402 59.2796 79.8754 59.3528 80.2374C59.4047 80.5009 59.3027 80.7784 59.3528 81.0419C59.3964 81.1789 59.4317 81.3186 59.4586 81.4602C59.4779 81.7598 59.2315 82.0031 58.9909 82.1701C58.4787 82.5182 57.8955 82.7359 57.2882 82.8057C56.6809 82.8756 56.0663 82.7956 55.4939 82.5723C54.98 82.3712 54.5162 82.0434 54.0235 81.7859C53.543 81.4968 52.9934 81.3573 52.4395 81.3837C52.1219 81.4199 51.8179 81.5406 51.5003 81.5848C51.3434 81.6172 51.1814 81.6093 51.0282 81.5616C50.875 81.514 50.7351 81.4281 50.6207 81.3113C50.5227 81.1699 50.4568 81.0068 50.4283 80.8347C50.1607 79.7306 50.282 78.5602 50.5361 77.4501C50.7901 76.34 51.175 75.2721 51.4464 74.1681C51.6389 73.3496 51.7871 72.5109 52.1085 71.7367C52.4299 70.9624 52.9707 70.2425 53.7271 69.9468C53.7867 69.9163 53.8544 69.9071 53.9196 69.9207C53.9681 69.9419 54.011 69.975 54.0447 70.0172C54.643 70.6798 55.0938 71.4722 55.3649 72.338C55.6671 73.3013 55.7499 74.3229 56.027 75.2902C56.1463 75.6924 56.3003 76.2314 56.6044 76.5391C56.9085 76.8468 57.3358 77.0378 57.6803 77.2691Z" fill="#D91167"/>
<path opacity="0.1" d="M50.4227 80.8287C50.4549 81.0014 50.524 81.1643 50.6247 81.3053C50.7388 81.4224 50.8787 81.5084 51.0321 81.5558C51.1855 81.6031 51.3476 81.6103 51.5043 81.5768C51.8199 81.5366 52.124 81.4139 52.4416 81.3757C52.9955 81.3489 53.5452 81.4885 54.0255 81.7779C54.5182 82.0353 54.9879 82.3551 55.4979 82.5622C56.244 82.8579 57.0591 82.9063 57.8324 82.701C58.2432 82.5931 58.6336 82.4136 58.9872 82.1701C59.2297 82.0052 59.4741 81.7679 59.4549 81.4602C59.428 81.3192 59.3926 81.1802 59.349 81.0439C59.299 80.7804 59.3991 80.5029 59.349 80.2395C59.2759 79.8775 58.941 79.6361 58.7948 79.3023C58.6485 78.9685 58.7043 78.5683 58.583 78.2204C58.4329 77.792 58.0422 77.5165 57.6766 77.2691C57.3109 77.0218 56.8759 76.8327 56.5834 76.5331C56.5456 76.4864 56.5115 76.4366 56.4814 76.3842C56.2704 76.0443 56.1156 75.6697 56.0233 75.2761C55.7404 74.3068 55.6634 73.2872 55.3632 72.3219C55.0908 71.4568 54.6394 70.6651 54.0409 70.0031C54.0089 69.96 53.9664 69.9266 53.9178 69.9066C53.8528 69.8928 53.7853 69.9013 53.7253 69.9307C52.9709 70.2284 52.43 70.9483 52.1067 71.7226C51.7834 72.4969 51.6467 73.3315 51.4446 74.152C51.1752 75.256 50.7883 76.3279 50.5343 77.436C50.2802 78.5441 50.1551 79.7226 50.4227 80.8287Z" fill="black"/>
<path opacity="0.1" d="M44.6987 56.3016C45.6037 56.602 46.583 56.5424 47.4484 56.134C48.3139 55.7257 49.0043 54.9975 49.3871 54.0894C49.3721 53.9009 49.3463 53.7136 49.3101 53.5283C49.1176 52.6032 48.2939 52.9411 47.6433 53.1864C46.8603 53.4522 46.1031 53.795 45.3819 54.2101C45.1622 54.3284 44.9713 54.4976 44.8238 54.7048C44.5389 55.1492 44.6525 55.7405 44.6987 56.3016Z" fill="black"/>
<path d="M45.8612 56.2896C43.7353 56.2896 42.0119 54.4888 42.0119 52.2675C42.0119 50.0461 43.7353 48.2454 45.8612 48.2454C47.9871 48.2454 49.7104 50.0461 49.7104 52.2675C49.7104 54.4888 47.9871 56.2896 45.8612 56.2896Z" fill="#BE6F72"/>
<path opacity="0.1" d="M35.4163 82.3247C35.4163 82.6586 35.8493 82.7651 36.1708 82.747C37.3255 82.6767 38.4553 82.3448 39.5985 82.4454C41.0439 82.5821 42.3719 83.4167 43.8211 83.4932C44.3793 83.5233 44.9471 83.4368 45.4975 83.5434C46.2096 83.6822 46.8447 84.1347 47.5703 84.199C48.1997 84.2553 48.8213 84.008 49.4507 84.0341C49.8907 84.0615 50.3197 84.1892 50.7075 84.4082C50.6653 83.9823 50.483 83.585 50.1917 83.284C49.7317 82.8114 49.0773 82.9341 48.4422 82.8215C47.8086 82.6786 47.1899 82.4718 46.5945 82.2041C44.9245 81.5165 43.1662 81.0915 41.3769 80.9431C39.5798 80.7938 37.7744 81.0922 36.1092 81.8139C35.8669 81.9164 35.6385 82.0517 35.4298 82.2161C35.4193 82.2512 35.4147 82.288 35.4163 82.3247V82.3247Z" fill="black"/>
<path d="M47.6415 59.6119L49.2004 59.0086L49.8587 58.7552C50.1269 58.6377 50.4092 58.5592 50.6978 58.5219C51.4522 58.4615 52.1624 58.9864 52.5647 59.6561C52.9669 60.3258 53.119 61.1242 53.2479 61.9025C53.425 62.967 53.5751 64.0355 53.6983 65.1081C53.8309 66.0767 53.8985 67.0538 53.9004 68.0322C53.8561 70.5219 53.3518 72.9774 52.7976 75.4007C52.5261 76.4752 52.321 77.5667 52.1836 78.6687C52.1374 79.1232 52.1162 79.5797 52.0701 80.0362C52.02 80.549 51.9392 81.0558 51.8583 81.5646L51.3945 84.4545C50.8171 84.0262 50.1608 83.6501 49.4506 83.628C48.8213 83.6038 48.1977 83.8492 47.5703 83.7929C46.8485 83.7305 46.2096 83.278 45.4974 83.1393C44.947 83.0327 44.3792 83.1171 43.8192 83.089C42.3718 83.0126 41.0419 82.176 39.5985 82.0412C38.4533 81.9326 37.3158 82.2705 36.1688 82.3409C35.8493 82.361 35.4162 82.2544 35.4162 81.9186C35.4162 81.6853 35.6395 81.5304 35.8339 81.4138C36.7502 80.8373 37.6221 80.1871 38.4418 79.4691C39.2001 78.8416 39.9699 78.1981 40.4915 77.3494C41.7483 75.3082 41.3172 72.547 42.3892 70.3932C43.261 68.6435 42.3892 66.3509 42.3892 64.3781C42.3892 63.3947 42.3892 62.3992 42.6105 61.4439C42.7489 60.9097 42.9212 60.3856 43.1263 59.8753L43.875 57.8944C43.8905 57.8365 43.9212 57.7843 43.9635 57.7436C44.0138 57.7074 44.0737 57.6884 44.1348 57.6893C44.5844 57.6611 45.0279 57.8096 45.3781 58.1056C45.7303 58.4052 45.9555 58.8356 46.3019 59.1473C46.6811 59.4912 47.1699 59.7929 47.6415 59.6119Z" fill="#E3E8F4"/>
<path d="M45.126 58.4696C45.0028 57.9186 44.87 57.3454 44.5178 56.9151C44.1656 56.4847 43.5228 56.2575 43.0685 56.5651C42.5527 56.9151 42.5316 57.7235 42.0908 58.174C41.7059 58.5601 41.1285 58.5903 40.605 58.6406C39.6637 58.7301 38.7392 58.9575 37.8586 59.3163C37.6868 59.3719 37.5304 59.4698 37.4025 59.6018C37.1619 59.8874 37.21 60.3258 37.0907 60.6818C36.9271 61.1403 36.4748 61.4319 36.2996 61.8884C36.1072 62.3952 36.2996 62.9623 36.4613 63.4832C36.7519 64.4183 36.9348 65.3897 37.2177 66.3289C37.5006 67.268 37.9028 68.1931 38.5649 68.901C38.8575 69.2147 39.2924 69.5043 39.6774 69.3173L39.8256 70.4334C39.8688 70.6693 39.8688 70.9115 39.8256 71.1474C39.8032 71.2654 39.7494 71.3744 39.6704 71.4619C39.5915 71.5494 39.4905 71.6118 39.379 71.6421C39.3502 71.815 39.175 71.8975 39.0326 71.992C38.9275 72.0671 38.8377 72.1633 38.7684 72.275C38.6991 72.3866 38.6517 72.5116 38.629 72.6425C38.6062 72.7735 38.6086 72.9078 38.6359 73.0378C38.6633 73.1678 38.715 73.2908 38.7882 73.3998C38.9094 73.5707 39.0884 73.7054 39.1462 73.9086C39.2328 74.2022 39.0268 74.5119 38.7766 74.6728C38.5264 74.8336 38.232 74.908 37.9779 75.0629C37.4506 75.3806 37.1677 76.0061 36.9867 76.6134C36.852 77.072 36.7404 77.5687 36.4093 77.9025C36.2823 78.0292 36.1303 78.1258 36.009 78.2585C35.7992 78.5176 35.6779 78.8424 35.6645 79.1816C35.6118 79.6019 35.7002 80.0283 35.9147 80.3882C36.2996 80.9634 37.0175 81.1343 37.6469 81.3937C38.6689 81.8321 39.5099 82.6165 40.4106 83.2841C40.7775 83.5928 41.2097 83.8052 41.6713 83.9035C42.2948 83.99 42.9088 83.7024 43.5362 83.6763C43.9116 83.6799 44.2852 83.7313 44.6487 83.8291L45.8034 84.0906C45.7419 83.1554 46.2346 82.2183 46.5098 81.3274C47.0294 79.6501 47.1257 77.8563 47.0025 76.0986C46.8793 74.3409 46.5367 72.6074 46.198 70.8819C45.9613 69.6753 45.9844 68.4143 45.6206 67.2419C45.2799 66.1137 44.793 65.0297 44.614 63.8552C44.3215 61.9548 45.5378 60.3439 45.126 58.4696Z" fill="#D91167"/>
<path d="M36.371 62.188C36.2648 62.3924 36.1901 62.6129 36.1497 62.8416C36.0607 63.1959 35.894 63.5236 35.6628 63.7989C35.4691 63.9773 35.2972 64.18 35.1508 64.4022C34.9738 64.7521 35.0411 65.1785 34.9584 65.5606C34.8621 65.9769 34.5831 66.3388 34.5426 66.7672C34.5415 66.8899 34.5305 67.0124 34.5099 67.1332C34.3848 67.6199 33.6997 67.7365 33.5476 68.2232C33.4456 68.539 33.6207 68.8828 33.588 69.2147C33.5641 69.3173 33.5583 69.4236 33.5707 69.5284C33.6142 69.6469 33.6906 69.7491 33.7901 69.822C34.4271 70.4578 34.868 71.2778 35.0565 72.177C35.242 73.0712 35.3393 73.983 35.3471 74.8979L36.0997 73.8582C36.1794 73.7321 36.2812 73.6229 36.3999 73.5364C36.4961 73.4761 36.6078 73.446 36.7059 73.3856C36.9908 73.2167 37.1024 72.8587 37.2121 72.5369C37.5168 71.6462 37.9733 70.8205 38.5593 70.0995C38.8654 69.7235 39.2214 69.3454 39.2888 68.8567C39.3089 68.6322 39.2973 68.4059 39.2541 68.185C39.0617 66.8678 38.8557 65.5183 38.2418 64.3499C37.955 63.8029 37.5836 63.3082 37.3083 62.7531C37.1236 62.3851 36.8637 61.4278 36.371 62.188Z" fill="#D91167"/>
<path d="M55.3573 63.4529C55.3538 63.6222 55.3951 63.7892 55.4766 63.9355C55.5503 64.0246 55.6461 64.0906 55.7535 64.1261C55.8609 64.1616 55.9756 64.1652 56.0848 64.1366C56.304 64.0791 56.5104 63.9781 56.693 63.839C57.2293 63.485 57.7657 63.1304 58.302 62.7751C58.6014 62.5866 58.89 62.3797 59.1662 62.1557C59.5883 61.7833 59.9709 61.3647 60.3075 60.9068C61.2428 59.7002 62.0704 58.391 63.1116 57.2869C63.3946 56.9853 63.689 56.6957 63.9623 56.3799C64.3359 55.9235 64.6792 55.4411 64.9901 54.936C65.2903 54.4714 65.6021 53.9566 65.5501 53.4016C65.5193 53.0878 65.375 52.7982 65.3327 52.4865C65.2903 52.1748 65.4039 51.7947 65.6926 51.7103C65.7267 51.7013 65.7614 51.6952 65.7965 51.6922C65.8535 51.6858 65.9096 51.673 65.9639 51.6539C66.2315 51.5373 66.191 51.1049 65.9986 50.8777C65.8061 50.6504 65.5213 50.5237 65.3461 50.2744C65.2647 50.1264 65.1734 49.9846 65.0728 49.85C64.9439 49.7346 64.79 49.6538 64.6244 49.6147C63.5142 49.2729 62.3399 49.2266 61.2082 49.48C61.0157 49.5242 60.7963 49.6047 60.7386 49.7997C60.7155 49.8948 60.7155 49.9943 60.7386 50.0893C60.8234 50.4859 60.8724 50.8899 60.8848 51.296C60.8852 51.3806 60.8807 51.4653 60.8714 51.5494C60.7809 52.4021 60.2516 53.124 59.7358 53.7897C59.1238 54.5821 58.5022 55.3684 57.8786 56.1527C57.5413 56.6072 57.1644 57.028 56.7527 57.4096C56.3677 57.7434 55.8693 58.0129 55.569 58.4413C55.3246 58.7872 55.4035 59.2598 55.3766 59.6761C55.287 60.933 55.2806 62.195 55.3573 63.4529V63.4529Z" fill="#D91167"/>
<path d="M30.9146 71.8432C30.7245 71.6501 30.5531 71.4379 30.4027 71.2097C30.2409 70.927 30.1117 70.6253 30.0178 70.3108L28.9015 67.0026C28.7244 66.4797 28.5474 65.9548 28.3241 65.4461C28.0931 64.897 27.8198 64.3681 27.5677 63.8372C26.9192 62.44 26.4178 60.9734 26.0723 59.4631C26.0115 59.2556 25.9912 59.0375 26.0126 58.8216C26.0665 58.4737 26.3186 58.2022 26.5592 57.9549C26.8012 57.6818 27.0769 57.4438 27.3791 57.247C27.5309 57.1483 27.6999 57.0823 27.8764 57.0526C28.0528 57.0229 28.2331 57.0302 28.4069 57.074C28.8996 57.2248 29.2094 57.7517 29.323 58.2806C29.4365 58.8096 29.3942 59.3505 29.4423 59.8895C29.5116 60.6617 29.7656 61.4078 29.8272 62.1821C29.86 62.6306 29.8272 63.0831 29.8792 63.5295C29.9739 64.1158 30.1696 64.6793 30.4566 65.1927C31.0819 66.4156 31.9268 67.5012 32.9451 68.3902C33.2241 68.6054 33.4751 68.8576 33.6919 69.1404C33.8729 69.4232 33.9955 69.7424 34.0518 70.0775C34.1797 70.5878 34.1242 71.1294 33.8959 71.5999C33.5822 72.159 32.9798 72.4043 32.4043 72.529C31.6268 72.6979 31.4478 72.4204 30.9146 71.8432Z" fill="#BE6F72"/>
<path d="M45.8381 46.4393C45.6724 46.1139 45.4186 45.8468 45.1085 45.6712C44.7984 45.4956 44.4457 45.4193 44.0944 45.4518C43.7405 45.5173 43.4112 45.685 43.1439 45.9359C42.8765 46.1869 42.6818 46.511 42.5816 46.8716C42.4911 47.1713 42.4546 47.5031 42.2968 47.7605C42.0581 48.1487 41.6154 48.2613 41.2844 48.5428C41.0867 48.7347 40.9277 48.9659 40.8167 49.2228C40.7056 49.4797 40.6448 49.7572 40.6377 50.039C40.6193 50.6147 40.7062 51.1887 40.8937 51.7303C40.9733 51.9614 41.0376 52.198 41.0862 52.4382C41.1247 52.6715 41.1285 52.9088 41.1631 53.1421C41.2058 53.4446 41.3059 53.7351 41.4577 53.9966C41.6094 54.258 41.8096 54.4851 42.0466 54.6645C42.114 54.722 42.1981 54.7539 42.2852 54.755C42.4353 54.7369 42.5277 54.5539 42.5835 54.389C42.8895 53.4659 42.8164 52.3377 43.3803 51.6016C43.6369 51.3047 43.9468 51.0635 44.2926 50.8917C44.4336 50.7967 44.5924 50.7343 44.7584 50.7087C45.0024 50.7224 45.237 50.8121 45.432 50.9661C45.8382 51.2509 46.2889 51.4591 46.7638 51.5815C47.0008 51.6402 47.2473 51.6428 47.4854 51.5892C47.7234 51.5357 47.9471 51.4272 48.1399 51.2718C48.4055 51.0426 48.5999 50.6987 48.8944 50.5197C49.1888 50.3407 49.4968 50.3508 49.7874 50.2281C49.9726 50.1458 50.1374 50.0204 50.2692 49.8614C50.401 49.7025 50.4963 49.5142 50.5479 49.3109C50.5995 49.1077 50.606 48.8948 50.567 48.6885C50.5279 48.4822 50.4443 48.2879 50.3224 48.1205C50.13 47.8792 49.8451 47.7424 49.6739 47.4749C49.4525 47.129 49.4718 46.6544 49.3659 46.2402C49.3033 45.978 49.1817 45.7353 49.0113 45.5321C48.841 45.3289 48.6267 45.1711 48.3863 45.0717C48.1531 44.989 47.9029 44.9731 47.6619 45.0258C47.4209 45.0786 47.1978 45.1979 47.0159 45.3714C46.8235 45.5524 46.6695 45.7857 46.4809 45.9747C46.2947 46.1609 46.0667 46.2954 45.8179 46.3656C45.5691 46.4359 45.3073 46.4398 45.0567 46.3769" fill="#332F38"/>
<path opacity="0.1" d="M42.6741 76.04C42.7862 76.1443 42.8656 76.2814 42.902 76.4335C42.9384 76.5856 42.9301 76.7456 42.8782 76.8927C42.8358 76.9872 40.8496 76.587 40.6398 76.5569C40.1163 76.4784 39.1983 76.5167 38.8461 76.0159C38.2187 75.1291 40.1625 75.3261 40.5186 75.3583C41.196 75.4186 42.1583 75.5152 42.6741 76.04Z" fill="black"/>
<path d="M60.7424 50.0974C60.8273 50.4939 60.8763 50.8979 60.8887 51.304C61.4661 51.4267 62.0666 51.2256 62.6209 51.0245L64.2126 50.4574C64.3094 50.3927 64.4262 50.369 64.5391 50.391C64.6521 50.4131 64.7528 50.4792 64.8208 50.576C65.0767 50.8535 65.4289 51.3804 65.7831 51.6922C65.8401 51.6858 65.8962 51.673 65.9505 51.6539C66.2181 51.5373 66.1776 51.1049 65.9852 50.8777C65.7927 50.6504 65.5079 50.5237 65.3327 50.2744C65.2513 50.1264 65.1599 49.9846 65.0594 49.85C64.9305 49.7346 64.7766 49.6538 64.611 49.6147C63.5008 49.2729 62.3264 49.2266 61.1947 49.48C61.0023 49.5242 60.7829 49.6047 60.7251 49.7997C60.7064 49.8989 60.7123 50.0014 60.7424 50.0974Z" fill="#D91167"/>
<path opacity="0.1" d="M60.7424 50.0974C60.8273 50.4939 60.8763 50.8979 60.8887 51.304C61.4661 51.4267 62.0666 51.2256 62.6209 51.0245L64.2126 50.4574C64.3094 50.3927 64.4262 50.369 64.5391 50.391C64.6521 50.4131 64.7528 50.4792 64.8208 50.576C65.0767 50.8535 65.4289 51.3804 65.7831 51.6922C65.8401 51.6858 65.8962 51.673 65.9505 51.6539C66.2181 51.5373 66.1776 51.1049 65.9852 50.8777C65.7927 50.6504 65.5079 50.5237 65.3327 50.2744C65.2513 50.1264 65.1599 49.9846 65.0594 49.85C64.9305 49.7346 64.7766 49.6538 64.611 49.6147C63.5008 49.2729 62.3264 49.2266 61.1947 49.48C61.0023 49.5242 60.7829 49.6047 60.7251 49.7997C60.7064 49.8989 60.7123 50.0014 60.7424 50.0974Z" fill="#D91167"/>
<path opacity="0.1" d="M46.1827 88.2774C45.9055 88.374 45.6053 88.5147 45.511 88.8043L47.7397 88.2131L48.8945 87.9054C49.0985 87.8511 49.8299 87.7887 49.9646 87.6218C50.1571 87.3764 49.4738 87.5454 49.3506 87.5635C48.9773 87.6218 48.6039 87.6821 48.2324 87.7525C47.5319 87.8832 46.8582 88.0984 46.1827 88.2774Z" fill="black"/>
<path opacity="0.1" d="M45.3185 90.3389C45.5109 90.2042 46.0633 90.2203 46.3 90.1619C46.6465 90.0755 46.9871 89.9608 47.3278 89.8502C48.0187 89.6149 48.7039 89.3474 49.4141 89.1745C49.545 89.1443 49.9915 89.1363 49.9703 88.9633C49.9491 88.7903 49.5238 88.73 49.4179 88.722C48.7886 88.6737 48.0033 88.9814 47.4182 89.2006C46.6725 89.4797 45.9663 89.8626 45.3185 90.3389V90.3389Z" fill="black"/>
<path opacity="0.1" d="M46.7312 86.4395C47.4375 86.2384 48.0784 85.7798 48.8059 85.6914C48.9955 85.6989 49.182 85.6394 49.3352 85.5224C49.4207 85.4346 49.4802 85.3229 49.5065 85.2007C49.0196 85.1745 48.4537 85.3897 48.0111 85.5928C47.7674 85.702 47.5331 85.8325 47.3105 85.983C47.1488 86.0855 46.9063 86.3812 46.7312 86.4395Z" fill="black"/>
<path d="M33.2665 68.4323C33.3859 69.2684 33.2131 70.1214 32.7798 70.8353C32.3465 71.5492 31.6816 72.0761 30.9069 72.3196C31.0012 72.7963 31.4727 73.0597 31.8057 73.3996C32.2753 73.8762 32.5178 74.5901 33.0721 74.9521C33.6899 75.3543 34.4848 75.1975 35.1892 75.0285C35.2533 75.0211 35.3123 74.9888 35.3547 74.938C35.3692 74.914 35.3796 74.8874 35.3855 74.8596C35.6184 73.9687 35.7704 73.0175 35.5318 72.1246C35.3393 71.3644 34.8774 70.7168 34.5079 70.0451C34.1383 69.3734 34.1037 68.6535 33.2665 68.4323Z" fill="#D91167"/>
<path d="M50.4746 56.9009C51.2196 56.9575 51.943 57.1877 52.5917 57.5746C53.0228 57.832 53.4655 58.1779 53.9582 58.1156C54.2488 58.0814 54.5356 57.9145 54.8185 57.9949C54.9779 58.0621 55.1265 58.1543 55.2593 58.2684C55.3266 58.3244 55.4066 58.3613 55.4916 58.3754C55.5766 58.3895 55.6637 58.3803 55.7443 58.3489L55.9367 61.1322C56.0099 62.19 56.0811 63.2699 55.8386 64.3016C55.7135 64.8285 55.4383 65.3071 55.4075 65.8421C55.3767 66.377 55.4229 66.926 55.3863 67.467C55.3516 67.9678 55.2458 68.4605 55.2188 68.9612C55.165 69.9064 55.3882 70.8436 55.6038 71.7626C55.929 73.1181 56.1254 74.5037 56.7586 75.7304C56.9356 76.0703 57.1435 76.4162 57.1435 76.8023C57.1435 76.8506 57.1435 76.8969 57.1319 76.9431C57.3244 77.0537 57.5034 77.1583 57.667 77.2669C58.0327 77.5143 58.4234 77.7898 58.5735 78.2181C58.6947 78.566 58.6389 78.9642 58.7852 79.3001C58.9315 79.6359 59.2664 79.8752 59.3395 80.2372C59.3915 80.5007 59.2914 80.7782 59.3395 81.0417C59.3831 81.178 59.4184 81.317 59.4454 81.4579C59.4646 81.7596 59.2202 82.0029 58.9777 82.1679C58.624 82.4114 58.2336 82.5909 57.8229 82.6988L56.6739 77.9326C55.6263 75.9087 54.7548 73.7906 54.0698 71.6038C53.8739 70.8889 53.6222 70.1921 53.3173 69.5203C53.0995 69.1402 52.9065 68.7452 52.7399 68.3378C52.5648 67.831 52.5474 67.282 52.4628 66.747C52.3622 66.1227 52.2109 65.5084 52.0105 64.9109C51.8026 64.2654 51.562 63.6219 51.5197 62.9441C51.4562 61.9748 51.793 60.9512 51.435 60.0542C51.2831 59.7185 51.0853 59.4076 50.848 59.1312C50.3514 58.4957 49.8991 57.83 49.4026 57.1945C49.6605 56.9069 50.0897 56.8768 50.4746 56.9009Z" fill="#D91167"/>
<g opacity="0.1">
<path opacity="0.1" d="M45.051 45.7778L45.2916 45.7958L45.3185 45.8157C45.2284 45.8119 45.1388 45.7992 45.051 45.7778V45.7778Z" fill="black"/>
<path opacity="0.1" d="M40.6474 49.9528C40.6875 50.3526 40.7701 50.7465 40.8937 51.1272C40.9733 51.3583 41.0376 51.5948 41.0862 51.8351C41.1247 52.0684 41.1285 52.3057 41.1632 52.539C41.2058 52.8415 41.3059 53.132 41.4577 53.3934C41.6094 53.6549 41.8096 53.882 42.0466 54.0614C42.114 54.1189 42.1982 54.1508 42.2852 54.1519C42.4353 54.1338 42.5277 53.9508 42.5835 53.7858C42.8895 52.8628 42.8164 51.7346 43.3803 50.9985C43.6369 50.7016 43.9469 50.4604 44.2926 50.2886C44.4336 50.1936 44.5924 50.1312 44.7584 50.1056C45.0024 50.1193 45.237 50.209 45.432 50.363C45.8382 50.6477 46.2889 50.856 46.7638 50.9784C47.0008 51.0371 47.2473 51.0397 47.4854 50.9861C47.7235 50.9325 47.9471 50.8241 48.1399 50.6687C48.4055 50.4394 48.5999 50.0956 48.8944 49.9166C49.1889 49.7376 49.4968 49.7476 49.7874 49.625C49.969 49.5439 50.1307 49.4212 50.2606 49.266C50.3906 49.1107 50.4854 48.9268 50.538 48.728C50.5448 48.703 50.55 48.6774 50.5534 48.6516C50.6015 48.8761 50.5962 49.1095 50.538 49.3314C50.4854 49.5302 50.3906 49.714 50.2606 49.8693C50.1307 50.0246 49.969 50.1473 49.7874 50.2283C49.4968 50.351 49.1696 50.353 48.8944 50.5199C48.6192 50.6868 48.4055 51.0428 48.1399 51.272C47.9471 51.4274 47.7235 51.5359 47.4854 51.5894C47.2473 51.643 47.0008 51.6404 46.7638 51.5817C46.2889 51.4593 45.8382 51.2511 45.432 50.9663C45.237 50.8123 45.0024 50.7226 44.7584 50.7089C44.5924 50.7345 44.4336 50.7969 44.2926 50.8919C43.9512 51.067 43.6459 51.3103 43.3938 51.6079C42.8299 52.3439 42.903 53.4721 42.597 54.3952C42.5412 54.5621 42.4488 54.7431 42.2987 54.7612C42.2063 54.7617 42.1168 54.7274 42.0466 54.6647C41.8086 54.4848 41.6076 54.2568 41.4556 53.9943C41.3035 53.7317 41.2034 53.44 41.1612 53.1363C41.1266 52.903 41.1227 52.6657 41.0842 52.4324C41.0356 52.1921 40.9713 51.9556 40.8918 51.7245C40.7043 51.1829 40.6174 50.6089 40.6358 50.0332C40.6397 50.0091 40.6435 49.9809 40.6474 49.9528Z" fill="black"/>
</g>
<path d="M52.8246 66.0895L52.9554 67.9256C52.9747 68.175 53.4308 74.1116 56.7951 81.0498C59.682 87.0005 65.3 94.7511 75.9067 99.1071C76.7343 99.449 77.5933 99.7681 78.4837 100.064L79.4769 96.8064C76.9836 95.9866 74.582 94.8889 72.3134 93.5324C66.9071 90.2705 62.7037 85.6149 59.7725 79.6239C58.2173 76.4342 57.1089 73.0275 56.4814 69.5083H68.5488V66.0895H52.8246Z" fill="#FE9738"/>
<path opacity="0.1" d="M77.2058 99.109C66.6011 94.753 60.9812 87.0044 58.0962 81.0537C54.7319 74.1155 54.2738 68.1829 54.2565 67.9295L54.1256 66.0934H52.7784L52.9093 67.9295C52.9266 68.1789 53.3847 74.1155 56.7489 81.0537C59.6359 87.0044 65.2539 94.753 75.8586 99.109C76.6862 99.4509 77.5458 99.7706 78.4376 100.068L78.5684 99.6399C78.104 99.467 77.6498 99.29 77.2058 99.109Z" fill="white"/>
<path d="M98.4383 96.8064L99.4314 100.064C100.323 99.7667 101.183 99.447 102.01 99.1051C112.615 94.7491 118.235 87.0005 121.12 81.0498C124.484 74.1116 124.942 68.179 124.96 67.9256L125.091 66.0895H109.374V69.5083H121.443C120.813 73.028 119.701 76.4346 118.143 79.6239C115.211 85.6149 111.01 90.2705 105.604 93.5304C103.335 94.8884 100.932 95.9867 98.4383 96.8064V96.8064Z" fill="#FE9738"/>
<path opacity="0.1" d="M100.713 99.109C111.318 94.753 116.938 87.0044 119.823 81.0537C123.187 74.1155 123.645 68.1829 123.662 67.9295L123.793 66.0934H125.141L125.01 67.9295C124.992 68.1789 124.534 74.1155 121.17 81.0537C118.283 87.0044 112.665 94.753 102.06 99.109C101.233 99.4509 100.373 99.7706 99.4814 100.068L99.3505 99.6399C99.8137 99.467 100.268 99.29 100.713 99.109Z" fill="white"/>
<path d="M70.8025 128.3V146.735H107.114V128.3L105.96 126.691C94.1925 122.327 91.8079 110.946 91.3325 106.443C91.2618 105.821 91.2213 105.196 91.2113 104.569H86.7211C86.7111 105.196 86.6706 105.821 86.5998 106.443C86.1168 110.946 83.7321 122.331 71.9727 126.691L70.8025 128.3Z" fill="#FE9738"/>
<path opacity="0.1" d="M70.8025 128.3H107.114V130.612H70.8025V128.3Z" fill="black"/>
<path opacity="0.1" d="M104.035 126.691C92.2679 122.327 89.8833 110.946 89.4079 106.443C89.3371 105.821 89.2967 105.196 89.2866 104.569H91.2112C91.2213 105.196 91.2618 105.821 91.3325 106.443C91.8156 110.946 94.2002 122.331 105.96 126.691L107.114 128.3V146.735H105.19V128.3L104.035 126.691Z" fill="white"/>
<path opacity="0.1" d="M112.63 66.0895H109.374V69.5083H112.342C112.459 68.3821 112.555 67.2425 112.63 66.0895Z" fill="black"/>
<path opacity="0.1" d="M98.4383 96.8065L99.4314 100.064C100.323 99.7668 101.183 99.4471 102.01 99.1052C103.372 97.368 104.575 95.5017 105.604 93.5305C103.335 94.8884 100.933 95.9868 98.4383 96.8065Z" fill="black"/>
<path opacity="0.1" d="M79.4788 96.8065C76.9855 95.9866 74.5839 94.889 72.3153 93.5325C73.3448 95.5039 74.5477 97.3709 75.9086 99.1092C76.7362 99.451 77.5952 99.7701 78.4857 100.066L79.4788 96.8065Z" fill="black"/>
<path opacity="0.1" d="M65.2885 66.0895C65.3642 67.2425 65.4605 68.3821 65.5772 69.5083H68.5431V66.0895H65.2885Z" fill="black"/>
<path opacity="0.1" d="M86.5921 106.443C88.1552 106.76 89.7618 106.76 91.3248 106.443C91.254 105.821 91.2136 105.196 91.2035 104.569H86.7134C86.7034 105.196 86.6629 105.821 86.5921 106.443V106.443Z" fill="black"/>
<path d="M112.246 60.4263C112.163 85.7777 101.77 106.278 88.9576 106.278C76.1453 106.278 65.7542 85.7777 65.6696 60.4263H112.246Z" fill="#FE9738"/>
<path opacity="0.1" d="M108.108 60.4263H112.246C112.163 85.7777 101.77 106.278 88.9575 106.278C88.2642 106.277 87.5722 106.216 86.8886 106.095C98.7327 104.028 108.029 84.3981 108.108 60.4263Z" fill="white"/>
<path d="M76.6093 135.356H101.308V141.993H76.6093V135.356Z" fill="#3F3D56"/>
<path opacity="0.1" d="M100.153 136.261H76.6093V135.356H101.308V141.993H100.153V136.261Z" fill="white"/>
<path d="M125.418 84.9029C125.862 84.7481 128.48 82.5842 128.678 81.6048C128.876 80.6254 127.294 71.5012 127.294 71.5012C127.294 71.5012 127.44 71.5012 127.679 71.471V71.3242L127.354 59.3383C127.354 59.3383 126.02 51.294 128.539 51.7626C131.059 52.2312 129.479 59.3383 129.479 59.3383C129.479 59.3383 129.765 62.9461 129.968 64.0281C130.16 65.0718 131.041 69.3232 130.441 70.6445C130.419 70.6914 130.395 70.7371 130.368 70.7812V70.7812C130.368 70.7812 130.268 75.3162 131.355 75.9356C132.393 76.5248 132.824 79.4911 132.86 79.7566L132.916 79.7325C133.226 79.53 133.498 79.2704 133.719 78.9663C133.742 78.9361 133.759 78.9039 133.78 78.8717C133.072 78.0393 132.69 76.9585 132.712 75.845C132.733 74.7315 133.155 73.6672 133.894 72.8647C134.237 72.4918 134.641 72.1842 135.085 71.9557C135.098 71.5714 135.185 71.1938 135.341 70.8456C135.841 69.7274 138.613 68.2654 140.582 68.2312C141.49 68.2031 142.235 68.4725 142.506 69.2146C142.645 69.5907 142.603 70.019 142.66 70.4092C142.776 71.2136 143.271 71.8431 143.906 72.3438C144.162 72.0447 144.439 71.7657 144.735 71.5092C145.378 70.9944 146.66 69.2971 146.66 69.2971C146.66 69.2971 150.661 64.9673 150.958 63.7807C151.254 62.5942 155.251 55.469 156.141 56.7098C157.03 57.9507 153.078 63.3584 153.078 63.3584C153.078 63.3584 152.328 65.3232 151.75 65.9869C151.173 66.6505 146.746 73.3675 146.746 73.3675L146.535 73.826C147.47 74.3408 148.325 74.9964 148.627 76.018C149.069 77.5223 148.101 79.0346 147.432 80.4424C146.127 83.1895 145.94 86.6928 147.624 89.2026C149.133 91.4188 151.75 92.4725 154.201 93.3936C153.017 94.3645 151.547 94.8744 150.043 94.8355C150.609 96.549 152.615 97.1161 154.324 97.4338C153.427 98.3348 152.143 98.6626 150.911 98.8617C150.308 98.969 149.697 99.0195 149.085 99.0125H148.935L148.785 99.0005C148.576 98.986 148.368 98.9585 148.163 98.918C147.274 98.729 146.41 98.2222 145.955 97.4017C145.571 96.6998 145.436 95.7425 144.737 95.3906C144.555 95.3048 144.359 95.2563 144.16 95.2478H144.181C144.05 95.2478 143.915 95.2478 143.784 95.2478L140.872 95.278C140.751 95.278 140.626 95.278 140.501 95.278C139.679 95.2579 138.802 95.1091 138.384 94.3992C138.212 94.0544 138.122 93.6717 138.12 93.283C138.059 92.3197 138.12 91.3283 138.095 90.3569C137.847 92.1246 137.587 94.8798 138.205 95.8974C138.707 96.6685 139.315 97.3577 140.01 97.9426C140.185 98.0961 140.345 98.2672 140.488 98.4534C140.582 98.5238 140.638 98.5621 140.638 98.5621L140.697 98.7491C140.917 99.0967 141.076 99.482 141.167 99.8873C141.201 99.9914 141.213 100.102 141.204 100.211C141.136 100.354 141.685 100.943 141.525 101.191C142.895 102.87 143.155 105.414 143.155 105.414L145.657 109.384C146.943 112.913 148.867 113.275 148.867 113.275C148.867 113.275 153.388 110.106 153.512 109.951C153.635 109.796 155.363 109.022 155.363 109.022C155.567 108.648 155.878 108.351 156.252 108.173C156.845 107.916 156.895 106.966 156.895 106.966C156.968 104.724 158.229 104.553 158.229 104.553C159.245 104.463 160.021 104.652 160.617 104.997L160.798 105.012C161.672 105.086 162.723 105.168 163.878 105.249C167.09 105.47 167.854 107.644 167.854 107.644C167.854 107.644 168.248 108.109 167.731 108.611C167.213 109.114 163.899 108.611 163.758 108.599C164.011 108.628 164.266 108.609 164.513 108.545C163.991 108.525 163.273 108.505 162.661 108.505H162.513C162.552 108.844 162.57 109.185 162.569 109.526C162.569 110.17 160.866 110.582 160.866 110.582L155.679 115.409C155.679 115.409 152.418 116.931 150.344 119.121C148.269 121.311 146.435 119.421 146.435 119.421C144.239 118.854 137.92 110.872 137.914 110.864C137.914 111.097 137.782 118.86 137.529 120.418C137.519 120.497 137.501 120.575 137.474 120.65C137.177 121.319 137.574 123.149 137.745 123.922C137.854 124.568 137.896 125.225 137.87 125.88C137.87 125.88 140.239 135.332 140.043 136.163C139.847 136.993 141.327 140.853 141.327 140.853V144.07L141.069 144.056C141.102 144.108 141.133 144.162 141.161 144.217L141.178 144.251C141.178 144.251 139.598 144.611 138.536 144.509C137.474 144.406 135.649 145.363 135.649 145.363C135.649 145.363 135.031 145.669 133.13 145.798C131.228 145.927 131.228 144.921 131.228 144.921C131.446 143.552 134.45 143.093 134.542 143.079C134.785 142.92 135.012 142.747 135.199 142.598L135.237 142.566C135.225 142.536 135.214 142.505 135.204 142.474C134.883 141.106 136.661 140.513 136.661 140.513V140.179C135.507 139.56 135.278 135.308 135.278 135.308C135.278 135.308 133.545 130.051 133.303 129.174C133.06 128.298 133.303 126.984 133.303 126.984L133.13 125.85C133.13 125.85 132.758 125.078 132.758 124.923C132.71 124.531 132.566 124.158 132.339 123.841C132.067 123.505 132.635 122.707 132.635 122.707L132.14 121.367V119.897L130.986 114.564C130.986 114.564 129.775 108.352 130.195 106.319C130.614 104.286 129.7 103.252 129.7 103.252C129.782 103.297 129.867 103.337 129.954 103.373C129.838 103.093 129.739 102.807 129.656 102.516L127.057 102.852V102.892H126.12C126.12 102.892 126.417 99.0709 126.417 97.5304C126.417 95.9899 125.418 90.4615 125.418 90.4615C125.418 90.4615 124.973 85.0578 125.418 84.9029ZM136.952 80.4424C136.952 80.5932 136.965 80.7501 136.975 80.911L137.027 80.9934L137.123 80.9089L137.241 81.1L137.275 81.1181C137.529 80.9813 137.66 80.199 137.843 80.368L137.868 80.3901C137.909 80.3418 137.949 80.3277 137.991 80.368L138.03 80.4022C138.03 80.3438 138.03 80.2835 138.03 80.2232C137.678 80.3179 137.316 80.3658 136.952 80.366C136.95 80.3921 136.952 80.4182 136.952 80.4424ZM128.31 98.2362H128.255L128.347 98.4896C128.335 98.4052 128.324 98.3227 128.31 98.2362V98.2362ZM137.797 143.841L138.151 143.749L137.959 143.714L137.78 143.837L137.758 143.853L137.797 143.841ZM134.179 143.3C134.296 143.236 134.415 143.161 134.531 143.085C134.492 143.107 134.34 143.19 134.179 143.3V143.3Z" fill="url(#paint1_linear_66_2032)"/>
<path d="M127.033 94.4373L129.363 100.784H128.797L130.99 102.61L127.033 103.125V94.4373Z" fill="#F86D70"/>
<path opacity="0.1" d="M127.033 94.4373L129.363 100.784L129.95 100.619L130.99 102.61L127.033 103.125V94.4373Z" fill="black"/>
<path d="M130.687 98.4975H127.032L125.691 86.9641H130.687V98.4975Z" fill="#F86D70"/>
<path opacity="0.1" d="M130.687 98.4975H127.032L125.691 86.9641H130.687V98.4975Z" fill="black"/>
<path d="M137.826 89.6954L137.037 89.5566L135.224 89.2348C135.224 89.2348 129.779 87.9518 128.655 87.8472C127.974 87.7533 127.31 87.5554 126.684 87.26C126.39 87.1272 126.203 87.0267 126.203 87.0267L128.164 83.2841L131.207 80.9271C131.207 80.9271 133.132 80.4988 133.946 79.3283C134.128 79.0765 134.246 78.781 134.29 78.469C134.334 78.157 134.302 77.8384 134.198 77.5425C133.701 75.9337 137.164 79.081 137.164 79.081C137.164 79.081 137.131 79.8351 137.164 80.7964C137.164 80.9854 137.181 81.1825 137.195 81.3836C137.195 81.5164 137.212 81.6491 137.225 81.7858C137.31 82.7411 137.483 83.7245 137.826 84.3117C138.663 85.7476 137.826 89.6954 137.826 89.6954Z" fill="#FBBEBE"/>
<path opacity="0.1" d="M137.164 80.8768H137.087C136.948 80.8768 136.837 80.5691 136.702 80.5551C135.618 80.4465 134.629 80.2092 133.942 79.4067C134.123 79.155 134.241 78.8599 134.285 78.5484C134.329 78.2368 134.298 77.9186 134.194 77.6229C133.698 76.0141 137.16 79.1594 137.16 79.1594C137.16 79.1594 137.123 79.9155 137.164 80.8768Z" fill="black"/>
<path d="M141.379 76.3156C141.379 76.8946 141.27 77.4679 141.058 78.0029C140.846 78.5379 140.535 79.0239 140.144 79.4333C139.752 79.8427 139.287 80.1674 138.775 80.3888C138.263 80.6103 137.714 80.7241 137.16 80.7239C137.021 80.7239 136.885 80.7239 136.748 80.7038C135.935 80.6204 135.163 80.2923 134.525 79.7593C133.887 79.2262 133.411 78.5111 133.154 77.7008C132.898 76.8905 132.872 76.0198 133.08 75.1944C133.288 74.3691 133.721 73.6245 134.326 73.0512C134.931 72.4778 135.682 72.1003 136.489 71.9645C137.295 71.8287 138.122 71.9404 138.869 72.286C139.615 72.6317 140.25 73.1965 140.696 73.9118C141.141 74.6271 141.379 75.4621 141.379 76.3156Z" fill="#FBBEBE"/>
<path d="M142.674 69.6249C142.812 69.9989 142.77 70.4172 142.826 70.8134C143.032 72.2433 144.423 73.1 145.682 73.6993C146.941 74.2986 148.361 75.0085 148.762 76.3901C149.2 77.8843 148.242 79.3826 147.576 80.7843C146.279 83.5153 146.094 86.9985 147.768 89.4962C149.256 91.7084 151.849 92.7581 154.289 93.6792C153.115 94.6447 151.655 95.1524 150.161 95.1151C150.721 96.8185 152.713 97.3836 154.41 97.6973C153.519 98.5942 152.243 98.92 151.021 99.1171C150.13 99.2619 149.216 99.3564 148.327 99.1694C147.437 98.9824 146.594 98.4776 146.136 97.6611C145.751 96.9633 145.621 96.012 144.926 95.6601C144.612 95.5311 144.274 95.4795 143.938 95.5093L141.051 95.5414C140.153 95.5414 139.088 95.469 138.624 94.6666C138.453 94.3238 138.364 93.9431 138.363 93.5565C138.238 91.5776 138.601 89.4861 137.822 87.6802C137.587 87.1352 139.094 86.2725 138.936 85.6953C138.394 83.7104 138.257 82.1478 138.263 80.0824C138.263 78.4836 137.268 77.106 136.446 75.7566C135.624 74.4072 134.937 72.7038 135.586 71.2559C136.317 69.641 141.81 67.2941 142.674 69.6249Z" fill="#332F38"/>
<path d="M138.83 143.262L138.095 143.771L137.982 143.849L137.961 143.863L137.089 144.467L135.052 144.825L133.263 144.696C133.263 144.696 132.747 143.57 133.557 143.596C133.817 143.582 134.069 143.506 134.296 143.373L134.408 143.314C134.525 143.25 134.642 143.178 134.758 143.101C134.999 142.942 135.226 142.769 135.409 142.622C135.678 142.405 135.857 142.24 135.857 142.24L138.83 143.262Z" fill="#FBBEBE"/>
<path opacity="0.1" d="M138.086 143.771L137.972 143.849L137.951 143.863L137.079 144.466L135.043 144.824L133.253 144.696C133.253 144.696 132.737 143.57 133.547 143.596C133.807 143.582 134.06 143.505 134.286 143.372C134.144 143.489 134.025 143.616 134.013 143.722C133.98 144.01 135.337 144.527 135.337 144.527L137.25 143.998C137.25 143.998 137.576 143.901 138.02 143.781L138.063 143.769L138.086 143.771Z" fill="black"/>
<path d="M141.358 144.261C141.358 144.261 139.789 144.619 138.734 144.517C137.68 144.414 135.863 145.364 135.863 145.364C135.863 145.364 135.249 145.665 133.361 145.794C131.473 145.923 131.473 144.921 131.473 144.921C131.688 143.56 134.671 143.111 134.764 143.091C134.727 143.111 134.571 143.194 134.413 143.304C134.202 143.449 133.973 143.638 133.955 143.791C133.923 144.076 135.28 144.595 135.28 144.595L137.193 144.068C137.193 144.068 137.518 143.97 137.962 143.849H138.005C138.664 143.662 139.334 143.517 140.01 143.417C140.834 143.324 141.256 144.056 141.342 144.221C141.348 144.234 141.354 144.248 141.358 144.261V144.261Z" fill="#3F3D56"/>
<path d="M166.081 108.096L165.248 108.764C165.248 108.764 165.006 108.752 164.644 108.74H164.528C164.01 108.72 163.296 108.7 162.69 108.7C162.298 108.681 161.906 108.704 161.518 108.768C161.102 108.921 160.363 106.282 160.363 106.282L161.199 106.081L161.476 106.013L161.668 105.965L162.348 105.798L164.407 106.043L165.854 107.016L166.081 108.096Z" fill="#FBBEBE"/>
<path opacity="0.1" d="M166.081 108.096L165.248 108.764C165.248 108.764 165.006 108.752 164.644 108.74C164.81 108.673 164.947 108.545 165.029 108.38C165.567 106.817 162.894 106.15 162.894 106.15L161.649 106.093L161.406 106.081H161.214L161.491 106.013L161.684 105.965L162.363 105.798L164.422 106.043L165.87 107.016L166.081 108.096Z" fill="black"/>
<path d="M167.725 108.802C167.221 109.289 163.918 108.802 163.78 108.79C164.03 108.82 164.284 108.801 164.528 108.736C164.649 108.713 164.764 108.663 164.864 108.588C164.964 108.513 165.046 108.416 165.106 108.304C165.644 106.739 162.971 106.073 162.971 106.073L161.726 106.017L161.485 106.005L158.458 105.868L158.312 104.997C158.312 104.997 159.295 105.094 160.839 105.223C161.707 105.297 162.763 105.38 163.905 105.458C167.094 105.679 167.852 107.841 167.852 107.841C167.852 107.841 168.239 108.304 167.725 108.802Z" fill="#3F3D56"/>
<path d="M130.685 71.0547C130.665 71.1025 130.64 71.1482 130.612 71.1915L129.877 72.3177L127.964 72.5188L127.943 71.7264L127.621 59.8049C127.621 59.8049 126.297 51.8089 128.799 52.2694C131.301 52.7299 129.731 59.8049 129.731 59.8049C129.731 59.8049 130.016 63.3926 130.216 64.4705C130.41 65.5123 131.282 69.7475 130.685 71.0547Z" fill="#FBBEBE"/>
<path d="M134.979 100.666L134.435 101.639L133.216 103.817C133.216 103.817 131.007 104.663 130.441 104.018C130.131 103.666 129.796 102.437 129.561 101.404C129.369 100.567 129.24 99.8611 129.24 99.8611L134.979 100.666Z" fill="#FBBEBE"/>
<path opacity="0.1" d="M134.979 100.666L134.435 101.639C134.4 101.608 134.37 101.574 134.342 101.536C133.726 100.716 131.015 101.362 129.561 101.414C129.369 100.577 129.24 99.8713 129.24 99.8713L134.979 100.666Z" fill="black"/>
<path opacity="0.1" d="M162.69 108.696C162.298 108.677 161.906 108.7 161.518 108.764C161.102 108.917 160.363 106.278 160.363 106.278L161.476 106.005L158.448 105.868L158.302 104.997C158.302 104.997 159.286 105.094 160.829 105.223C161.148 105.415 161.433 105.663 161.67 105.957L161.716 106.017C162.361 106.844 162.6 107.909 162.69 108.696Z" fill="black"/>
<path opacity="0.1" d="M138.83 143.262L137.982 143.849C136.715 143.61 135.559 143.234 135.422 142.643C135.421 142.633 135.421 142.624 135.422 142.614C135.691 142.397 135.87 142.232 135.87 142.232L138.83 143.262Z" fill="black"/>
<path opacity="0.1" d="M141.34 144.227C140.222 144.169 139.108 144.044 138.003 143.853C138.663 143.664 139.333 143.518 140.01 143.417C140.832 143.324 141.254 144.056 141.34 144.227Z" fill="black"/>
<path d="M162.598 109.711C162.598 110.353 160.906 110.763 160.906 110.763L155.754 115.555C155.754 115.555 152.517 117.068 150.457 119.246C148.398 121.424 146.581 119.553 146.581 119.553C144.398 118.99 138.113 111.045 138.113 111.045C138.113 111.045 137.966 120.119 137.672 120.784C137.377 121.45 137.77 123.27 137.941 124.04C138.049 124.683 138.091 125.335 138.065 125.987C138.065 125.987 140.418 135.393 140.222 136.213C140.026 137.034 141.498 140.879 141.498 140.879V144.082C141.498 144.082 135.734 143.851 135.416 142.494C135.099 141.136 136.862 140.545 136.862 140.545V140.211C135.707 139.596 135.489 135.368 135.489 135.368C135.489 135.368 133.771 130.14 133.526 129.269C133.282 128.398 133.526 127.089 133.526 127.089L133.355 125.963C133.355 125.963 132.987 125.192 132.987 125.04C132.939 124.649 132.795 124.279 132.57 123.964C132.3 123.63 132.864 122.836 132.864 122.836L132.373 121.502V120.042L131.219 114.737C131.219 114.737 130.016 108.559 130.433 106.534C130.851 104.509 129.943 103.485 129.943 103.485C131.912 104.563 132.905 102.164 133.23 101.132C133.313 100.867 133.353 100.69 133.353 100.69C133.353 100.69 136.057 99.648 138.575 99.8973C139.086 99.9406 139.59 100.052 140.074 100.229C142.87 101.281 143.311 105.637 143.311 105.637L145.788 109.585C147.064 113.096 148.977 113.454 148.977 113.454C148.977 113.454 153.465 110.303 153.596 110.148C153.727 109.993 155.436 109.225 155.436 109.225C155.638 108.853 155.947 108.557 156.32 108.38C156.909 108.123 156.957 107.173 156.957 107.173C157.03 104.943 158.281 104.76 158.281 104.76C162.623 104.382 162.598 109.072 162.598 109.711Z" fill="#332F38"/>
<path d="M137.628 97.1805H134.979V88.5953H137.628V97.1805Z" fill="#F86D70"/>
<path opacity="0.1" d="M137.628 97.1805H134.979V88.5953H137.628V97.1805Z" fill="black"/>
<path opacity="0.1" d="M130.687 71.0366C130.688 71.0426 130.688 71.0487 130.687 71.0547C130.667 71.1025 130.642 71.1482 130.614 71.1915L129.879 72.3177L127.966 72.5188L127.945 71.7264C128.541 71.6781 129.9 71.5072 130.687 71.0366Z" fill="black"/>
<path d="M130.612 71.1915C130.612 71.1915 130.514 75.7003 131.594 76.3157C132.674 76.9311 133.093 80.1367 133.093 80.1367C133.093 80.1367 129.821 82.3851 129.092 83.3746C128.362 84.364 126.688 86.721 127.032 87.2841C127.377 87.8472 126.197 90.4113 126.197 90.4113C126.197 90.4113 128.357 95.0247 127.866 96.7683C127.375 98.5118 127.327 103.123 127.327 103.123H126.393C126.393 103.123 126.688 99.3304 126.688 97.7919C126.688 96.2534 125.708 90.7692 125.708 90.7692C125.708 90.7692 125.266 85.3876 125.708 85.2348C126.151 85.082 128.749 82.9281 128.946 81.9527C129.142 80.9774 127.571 71.8974 127.571 71.8974C127.571 71.8974 129.583 71.8069 130.612 71.1915Z" fill="#FF2080"/>
<path opacity="0.1" d="M137.678 87.7989C137.588 88.4264 137.369 89.026 137.037 89.5566L135.224 89.2348C135.224 89.2348 129.779 87.9518 128.655 87.8472C127.974 87.7533 127.31 87.5554 126.684 87.26C127.116 85.6627 127.958 84.2194 129.119 83.087L129.81 82.4174C130.828 81.4296 132.008 80.6415 133.293 80.0906C133.213 80.161 127.5 85.257 128.751 86.2565C130.002 87.256 133.37 84.8226 133.37 84.8226L137.2 81.3837L137.339 81.259L137.56 81.619C137.448 81.6674 137.338 81.7224 137.231 81.7839C135.926 82.5325 134.957 83.7905 134.537 85.2831C133.749 88.0483 137.678 87.7989 137.678 87.7989Z" fill="black"/>
<path d="M138.856 100.613C138.856 100.613 135.226 102.715 134.344 101.536C134.152 101.277 133.746 101.164 133.239 101.134C133.322 100.869 133.363 100.692 133.363 100.692C133.363 100.692 136.067 99.65 138.584 99.8994C138.75 100.334 138.856 100.613 138.856 100.613Z" fill="#444053"/>
<path d="M137.185 81.263L133.216 84.8306C133.216 84.8306 129.862 87.272 128.597 86.2645C127.333 85.2569 133.141 80.0966 133.141 80.0966C131.859 80.6491 130.68 81.4349 129.66 82.4173L128.969 83.087C127.152 84.8467 126.742 84.8467 126.68 87.4329C126.665 88.0704 126.873 88.9855 127.033 89.1504C127.621 89.7537 128.033 94.1358 127.943 94.6486C127.852 95.1614 129.04 99.5878 128.655 100.819C128.27 102.049 133.467 100.203 134.346 101.384C135.226 102.564 138.856 100.461 138.856 100.461C138.856 100.461 136.844 95.077 136.354 94.719C135.863 94.361 135.274 91.5918 136.354 90.3107C137.433 89.0297 137.529 87.7989 137.529 87.7989C137.529 87.7989 133.603 88.0523 134.39 85.2871C134.612 84.4856 134.996 83.7434 135.517 83.1111C136.038 82.4788 136.683 81.9712 137.408 81.623L137.185 81.263Z" fill="#F9F3FF"/>
<path opacity="0.1" d="M131.888 90.3368C131.888 90.3368 133.411 93.3353 135.38 94.1136C135.443 94.1377 135.505 94.1599 135.572 94.18C137.628 94.8336 131.734 91.2659 131.888 90.3368Z" fill="black"/>
<path d="M153.179 63.809C153.179 63.809 152.443 65.7577 151.854 66.4234C151.266 67.0891 146.9 73.7537 146.9 73.7537L146.531 74.5581L146.213 75.2439L143.417 74.9362L143.224 73.7577L143.332 73.621C143.613 73.2691 144.379 72.3239 144.893 71.9116C145.53 71.4008 146.806 69.7095 146.806 69.7095C146.806 69.7095 150.779 65.4018 151.073 64.2233C151.368 63.0448 155.342 55.9779 156.223 57.2007C157.105 58.4234 153.179 63.809 153.179 63.809Z" fill="#FBBEBE"/>
<g opacity="0.1">
<path opacity="0.1" d="M145.064 95.5094C145.4 95.479 145.738 95.53 146.052 95.6582C146.745 96.0101 146.875 96.9614 147.26 97.6592C147.711 98.4757 148.569 98.9805 149.452 99.1675C149.628 99.2031 149.805 99.2286 149.984 99.2439C149.421 99.3011 148.853 99.2754 148.298 99.1675C147.414 98.9805 146.556 98.4757 146.106 97.6592C145.721 96.9614 145.59 96.0101 144.897 95.6582C144.715 95.5726 144.519 95.5248 144.319 95.5174L145.064 95.5094Z" fill="black"/>
<path opacity="0.1" d="M138.228 80.0823C138.228 78.4835 137.233 77.106 136.413 75.7565C135.593 74.4071 134.904 72.7037 135.553 71.2558C136.107 70.019 139.448 68.3599 141.377 68.6877C139.489 68.9431 137.162 70.2422 136.708 71.2558C136.059 72.7037 136.748 74.4071 137.568 75.7565C138.388 77.106 139.387 78.4835 139.383 80.0823C139.383 82.1457 139.516 83.7022 140.058 85.6952C140.214 86.2684 138.711 87.1351 138.942 87.6781C139.723 89.4881 139.358 91.5755 139.483 93.5544C139.485 93.9411 139.576 94.3215 139.747 94.6645C140.131 95.3262 140.921 95.4971 141.688 95.5333H141.017C140.12 95.5333 139.056 95.4609 138.592 94.6585C138.421 94.3155 138.331 93.935 138.328 93.5484C138.203 91.5695 138.569 89.48 137.787 87.6721C137.552 87.1291 139.059 86.2643 138.904 85.6892C138.361 83.7103 138.224 82.1457 138.228 80.0823Z" fill="black"/>
</g>
<path opacity="0.1" d="M146.531 74.554L146.213 75.2398L143.417 74.9321L143.224 73.7536L143.332 73.6168C143.631 73.7697 145.865 74.8938 146.531 74.554Z" fill="black"/>
<path opacity="0.1" d="M136.205 82.2625C136.205 82.2625 136.892 81.1363 137.285 81.442C137.678 81.7476 137.83 80.5189 138.055 80.724C138.28 80.9291 138.936 81.5003 139.21 80.7019C139.423 80.0664 141.748 76.0463 142.691 74.4294C142.934 74.0111 143.086 73.7537 143.086 73.7537C143.086 73.7537 145.734 75.1373 146.371 74.6767V75.6501L145.832 75.7024L142.945 81.3334C142.945 81.3334 142.037 82.8437 142.098 83.3706C142.16 83.8975 140.934 86.2041 140.738 86.357C140.541 86.5098 138.428 89.0739 138.428 89.0739C138.428 89.0739 137.348 94.6104 138.282 96.1489C139.215 97.6873 140.832 98.8135 140.832 98.8135C140.832 98.8135 141.319 100.3 141.248 100.455C141.177 100.609 141.814 101.275 141.519 101.48C141.225 101.685 140.832 103.119 140.832 103.119C140.832 103.119 139.458 100.813 138.715 100.455C137.972 100.097 137.021 95.3786 137.021 95.3786C137.021 95.3786 136.75 92.5993 136.729 90.8055C136.708 89.0116 136.794 82.2625 136.205 82.2625Z" fill="black"/>
<path d="M136.353 82.2625C136.353 82.2625 137.039 81.1363 137.431 81.4419C137.824 81.7476 137.978 80.5189 138.201 80.724C138.424 80.9291 139.081 81.5003 139.356 80.7019C139.571 80.0664 141.896 76.0463 142.838 74.4294L143.232 73.7537C143.232 73.7537 145.88 75.1373 146.519 74.6767V75.6501L145.978 75.7024L143.092 81.3333C143.092 81.3333 142.181 82.8437 142.245 83.3706C142.308 83.8975 141.09 86.2041 140.884 86.357C140.678 86.5098 138.574 89.0739 138.574 89.0739C138.574 89.0739 137.495 94.6104 138.426 96.1489C138.918 96.9216 139.517 97.6142 140.203 98.2042C140.779 98.7007 141.184 99.3799 141.357 100.139C141.391 100.242 141.403 100.352 141.392 100.461C141.321 100.613 141.958 101.281 141.663 101.486C141.369 101.691 140.973 103.131 140.973 103.131C140.973 103.131 139.598 100.825 138.855 100.467C138.113 100.109 137.16 95.3907 137.16 95.3907C137.16 95.3907 136.89 92.6114 136.867 90.8175C136.844 89.0237 136.931 82.2625 136.353 82.2625Z" fill="#FF2080"/>
<path opacity="0.1" d="M143.074 105.587C143.074 105.587 141.013 105.989 140.187 106.61C139.362 107.232 143.326 105.637 143.326 105.637L143.074 105.587Z" fill="black"/>
<path opacity="0.1" d="M138.118 111.045C138.118 111.045 135.969 112.917 136.353 114.608C136.738 116.3 137.732 120.555 137.732 120.555L138.118 111.045Z" fill="black"/>
<path opacity="0.1" d="M156.92 107.445C156.92 107.445 159.949 107.791 159.753 108.201C159.557 108.611 156.92 107.823 156.92 107.823V107.445Z" fill="black"/>
<path opacity="0.1" d="M133.659 123.015C133.659 123.015 133.467 123.27 134.591 123.015C135.715 122.759 134.885 121.971 134.885 121.971L133.659 123.015Z" fill="black"/>
<path opacity="0.1" d="M134.044 126.552C134.044 126.552 135.584 126.807 136.409 126.552C137.235 126.297 134.044 126.552 134.044 126.552Z" fill="black"/>
<path opacity="0.1" d="M137.212 140.392C137.212 140.392 137.481 140.085 138.83 140.648C140.18 141.211 140.719 141.237 141.111 141.05C141.504 140.863 137.212 140.392 137.212 140.392Z" fill="black"/>
<path opacity="0.1" d="M135.714 107.009L137.628 109.79C137.628 109.79 136.598 107.355 135.714 107.009Z" fill="black"/>
<path opacity="0.1" d="M139.433 81.4419C139.433 81.4419 139.516 82.365 140.749 82.725C141.983 83.0849 142.218 83.3765 142.218 83.3765" fill="black"/>
<path opacity="0.1" d="M142.639 74.751C142.639 74.751 144.268 75.9576 145.967 75.7022Z" fill="black"/>
<path opacity="0.1" d="M141.4 100.587C141.4 100.587 140.924 100.899 139.783 99.5354Z" fill="black"/>
<path opacity="0.1" d="M129.546 86.1297C129.5 85.8804 129.665 85.6491 129.821 85.454L130.141 85.0518C130.203 84.9695 130.274 84.894 130.351 84.8266C130.543 84.6717 130.789 84.6255 130.99 84.4867" fill="black"/>
<path opacity="0.1" d="M26.2089 16.022C26.2089 16.022 42.4124 15.0004 40.507 26.8657C40.507 26.8657 40.892 28.9632 39.0674 29.9145C39.0674 29.9145 39.0385 29.0356 37.4045 29.3353C36.8228 29.436 36.2318 29.4657 35.6435 29.4238C34.8487 29.3664 34.0934 29.0403 33.4917 28.4947V28.4947C33.4917 28.4947 28.9361 26.5278 27.1655 18.749C27.1655 18.749 25.8548 17.0517 25.9067 16.6153L28.6416 17.836C28.6416 17.836 27.7063 19.8974 28.4492 21.6108C28.4492 21.6108 28.5377 17.9104 29.0631 17.9909C29.169 18.009 30.4835 18.7048 30.4835 18.7048C30.4835 18.7048 28.8765 22.2946 30.089 24.9049C30.089 24.9049 29.629 20.4806 30.9859 18.9642L32.9105 20.1387C32.9105 20.1387 31.032 23.8471 32.3062 26.8737C32.3062 26.8737 31.979 22.2322 33.3166 20.4243L35.0603 21.8461C35.0603 21.8461 33.2954 25.5022 34.3713 28.012C34.3713 28.012 34.5118 22.6083 35.4375 22.2C35.4375 22.2 36.9638 23.6078 37.1966 24.1829C37.1966 24.1829 35.988 26.8375 36.7386 28.2372C36.7386 28.2372 37.1986 24.6374 37.5758 24.6173C37.5758 24.6173 39.0963 27.0025 39.2541 28.6395C39.2541 28.6395 39.1886 26.2081 37.9434 24.3921C37.9434 24.3921 39.4138 24.6555 40.2722 25.651C40.2722 25.651 40.0355 23.9657 37.5681 23.8189C37.5681 23.8189 36.3113 22.009 35.9764 21.8984C35.9764 21.8984 38.4284 21.6852 39.9162 22.373C39.9162 22.373 38.6074 20.7822 35.5261 21.5062L33.8035 20.0361C33.8035 20.0361 37.0331 19.5756 38.4034 20.0844C38.4034 20.0844 36.8271 18.6766 33.3397 19.7023L31.4651 18.5319C31.4651 18.5319 34.2192 17.9124 35.859 18.1296C35.859 18.1296 34.1269 17.1543 30.9146 18.2121L29.5674 17.5826C29.5674 17.5826 31.5844 17.1684 32.1753 17.102C32.7661 17.0356 32.7969 16.8667 32.7969 16.8667C31.5191 16.644 30.2071 16.7965 29.0073 17.3071C29.0073 17.3071 26.1589 16.2091 26.2089 16.022Z" fill="#BE8FDC"/>
<path opacity="0.1" d="M46.1941 19.0404C46.1941 19.0404 53.5078 18.5779 52.6513 23.9394C52.6513 23.9394 52.8226 24.8886 52.0027 25.319C52.0027 25.319 51.9893 24.9167 51.2502 25.0555C50.9877 25.1017 50.7209 25.1152 50.4553 25.0957C50.0961 25.0702 49.7548 24.9226 49.4834 24.6754V24.6754C49.4834 24.6754 47.424 23.7885 46.6234 20.2732C46.6234 20.2732 46.0325 19.505 46.0556 19.3079L47.2912 19.8589C47.2912 19.8589 46.8678 20.792 47.2007 21.5663C47.2007 21.5663 47.2412 19.8931 47.4779 19.9333C47.526 19.9333 48.1207 20.2551 48.1207 20.2551C48.1207 20.2551 47.3932 21.878 47.9417 23.0585C47.9417 23.0585 47.7339 21.0595 48.3478 20.3737L49.2178 20.9047C49.2178 20.9047 48.3671 22.5799 48.9445 23.9474C48.9445 23.9474 48.7963 21.8499 49.4006 21.0334L50.1878 21.6829C50.1878 21.6829 49.391 23.336 49.876 24.4683C49.876 24.4683 49.9395 22.0268 50.3591 21.8438C50.3591 21.8438 51.0481 22.4793 51.154 22.7408C51.154 22.7408 50.6074 23.9474 50.9461 24.5708C50.9461 24.5708 51.154 22.9439 51.331 22.9379C51.331 22.9379 52.0162 24.0158 52.0893 24.7478C52.055 24.0646 51.8507 23.4026 51.4965 22.8272C51.893 22.9057 52.259 23.1035 52.5493 23.3964C52.5493 23.3964 52.4415 22.6362 51.3272 22.5678C51.3272 22.5678 50.7498 21.7513 50.6074 21.701C50.6074 21.701 51.716 21.6045 52.3877 21.9162C52.3877 21.9162 51.7968 21.1963 50.4033 21.514L49.6335 20.8504C49.6335 20.8504 51.0924 20.6493 51.7121 20.8725C51.7121 20.8725 51 20.237 49.4237 20.6995L48.5769 20.1706C48.5769 20.1706 49.8202 19.8891 50.5631 19.9916C50.5631 19.9916 49.7798 19.5492 48.3286 20.0278L47.7223 19.7443C47.7223 19.7443 48.6346 19.5552 48.9021 19.5271C49.1697 19.4989 49.1831 19.4205 49.1831 19.4205C48.6054 19.3201 48.0122 19.3897 47.4702 19.6216C47.4702 19.6216 46.1711 19.1249 46.1941 19.0404Z" fill="#BE8FDC"/>
</g>
<defs>
<linearGradient id="paint0_linear_66_2032" x1="41.371" y1="117.545" x2="41.371" y2="36.6395" gradientUnits="userSpaceOnUse">
<stop stop-color="#808080" stop-opacity="0.25"/>
<stop offset="0.54" stop-color="#808080" stop-opacity="0.12"/>
<stop offset="1" stop-color="#808080" stop-opacity="0.1"/>
</linearGradient>
<linearGradient id="paint1_linear_66_2032" x1="-7472.95" y1="50410.2" x2="-16979" y2="50410.2" gradientUnits="userSpaceOnUse">
<stop stop-color="#808080" stop-opacity="0.25"/>
<stop offset="0.54" stop-color="#808080" stop-opacity="0.12"/>
<stop offset="1" stop-color="#808080" stop-opacity="0.1"/>
</linearGradient>
<clipPath id="clip0_66_2032">
<rect width="219.775" height="131.214" fill="white" transform="matrix(-1 0 0 1 196.775 16)"/>
</clipPath>
</defs>
</svg>
