<svg width="170" height="97" viewBox="0 0 170 97" fill="none" xmlns="http://www.w3.org/2000/svg">
<g clip-path="url(#clip0_56_507)">
<path opacity="0.1" d="M102.196 69.9136C105.48 69.7263 109.555 67.4979 112.723 66.5123C116.473 65.3489 120.237 64.2295 124.017 63.1542C137.174 59.4091 150.472 56.218 163.912 53.5809C165.166 53.3341 166.422 53.0933 167.68 52.8584C165.72 48.6221 162.684 44.9741 158.874 42.2787C158.972 41.3513 159.021 40.4195 159.023 39.487C159.023 24.7494 147.249 12.802 132.72 12.802C128.247 12.7973 123.849 13.9522 119.955 16.1542C109.672 9.38742 96.2506 5.29199 81.5658 5.29199C60.6992 5.29199 42.3811 13.5616 32.0013 26.0144L80.7841 34.2588L110.704 39.313C76.5951 40.3313 42.3811 41.3437 8.37068 38.9533C3.88114 43.2989 1.03957 49.0693 0.331611 55.2784C-0.376353 61.4875 1.09323 67.7498 4.48921 72.9952C4.48921 73.5288 4.51151 74.0581 4.55163 74.5828C5.41797 74.8311 6.2546 75.0719 7.00504 75.2294C19.0526 77.7754 31.1775 79.9061 43.3797 81.6216C34.3878 87.1679 23.4374 87.9528 13.065 90.3015C18.0877 94.449 24.9085 96.991 32.4248 96.991H144.339C156.458 96.991 166.28 88.5519 166.28 78.1401C168.099 75.1403 169.311 71.8123 169.847 68.3453C147.423 70.5112 124.72 68.6307 102.196 69.9136Z" fill="#BE8FDC"/>
<path opacity="0.1" d="M170 63.911C170.012 59.6199 168.992 55.3889 167.027 51.5749C165.061 47.7608 162.208 44.4756 158.706 41.9964C158.803 41.0694 158.853 40.1381 158.855 39.2061C158.855 24.4685 147.075 12.5256 132.553 12.5256C128.079 12.5208 123.681 13.6752 119.786 15.8763C109.503 9.10656 96.0798 5.00964 81.395 5.00964C57.5088 5.00964 36.9483 15.854 27.8301 31.4047C27.3234 31.375 26.8137 31.3586 26.2995 31.3586C11.7752 31.3586 -0.00294318 43.306 -0.00294318 58.0436C-0.0131235 63.2492 1.49036 68.3454 4.32433 72.7113C4.32433 85.9713 16.8351 96.7205 32.2614 96.7205H144.179C156.296 96.7205 166.119 88.2799 166.119 77.8682C168.667 73.6597 170.01 68.8314 170 63.911Z" fill="#F9F3FF"/>
<path d="M138.835 47.562C138.623 47.3988 138.374 47.2897 138.11 47.2439C137.832 47.18 137.548 47.1398 137.266 47.0952L133.608 46.5675C133.238 46.4989 132.862 46.4789 132.487 46.5081C132.299 46.5235 132.116 46.5761 131.949 46.6629C131.782 46.7496 131.633 46.8688 131.512 47.0135C131.403 47.1481 131.343 47.3159 131.343 47.4892C131.363 47.6635 131.42 47.8316 131.509 47.9827C131.545 48.0533 131.575 48.1263 131.6 48.2012C131.635 48.3694 131.679 48.5356 131.731 48.6992C131.747 48.7346 131.768 48.7677 131.793 48.7973C131.794 48.8057 131.794 48.8142 131.793 48.8226C131.753 49.0277 131.882 49.2418 131.824 49.4395C131.774 49.609 131.609 49.7116 131.505 49.8528C131.435 49.953 131.397 50.0713 131.394 50.1932C131.392 50.315 131.425 50.435 131.49 50.5381C131.601 50.7105 131.804 50.8279 131.862 51.0257C131.937 51.2858 131.732 51.537 131.549 51.7377C131.213 52.1072 130.902 52.499 130.619 52.9106C130.54 53.0118 130.488 53.1324 130.471 53.2599C130.454 53.5186 130.702 53.746 130.659 54.0032C130.625 54.2054 130.428 54.3288 130.257 54.4492C129.625 54.8654 129.118 55.5344 129.068 56.291C128.906 55.0871 128.407 53.9535 127.629 53.0206C127.417 52.7649 127.184 52.5077 127.096 52.1837C127.063 52.0543 127.057 51.9161 127.013 51.7912C126.864 51.3973 126.391 51.2278 126.185 50.8651C126.036 50.6094 126.036 50.2809 125.852 50.0564C125.668 49.832 125.378 49.7814 125.219 49.5644C125.14 49.4174 125.072 49.2643 125.017 49.1065C124.95 48.9779 124.856 48.8653 124.742 48.7765C124.72 48.759 124.697 48.7426 124.674 48.7275C124.698 48.7054 124.718 48.6783 124.732 48.6481C124.745 48.6179 124.752 48.5852 124.752 48.552C124.752 48.3781 124.58 48.2637 124.43 48.1774C124.237 48.0674 124.048 47.9485 123.864 47.8251C124.065 47.7315 124.239 47.5889 124.371 47.4104C124.535 47.1441 124.604 46.8291 124.564 46.5185C124.554 46.2677 124.46 46.0275 124.298 45.8361C124.204 45.7365 124.087 45.6652 123.989 45.5715C123.734 45.3233 123.648 44.9561 123.543 44.6172C123.403 44.1712 123.185 43.7029 122.777 43.4666C122.581 43.3521 122.352 43.2986 122.161 43.1782C121.969 43.0578 121.809 42.8303 121.875 42.6118C121.92 42.4632 122.058 42.3606 122.152 42.2342C122.264 42.0708 122.307 41.87 122.271 41.6752C122.236 41.4804 122.125 41.3074 121.963 41.1937C121.853 41.1238 121.718 41.0628 121.696 40.935C121.61 40.9126 121.532 40.8665 121.471 40.8018C121.41 40.7371 121.368 40.6565 121.351 40.5693C121.318 40.3945 121.318 40.2149 121.351 40.0401C121.39 39.7636 121.428 39.4881 121.465 39.2136C121.531 39.2408 121.601 39.2548 121.672 39.2548C121.743 39.2548 121.813 39.2408 121.878 39.2136C122.007 39.4223 122.156 39.6176 122.324 39.7963C122.777 40.3309 123.129 40.9427 123.364 41.6025C123.449 41.8403 123.535 42.1064 123.755 42.2327C123.831 42.2759 123.917 42.2982 123.992 42.3442C124.083 42.4081 124.162 42.4888 124.223 42.5821C124.402 42.8184 124.58 43.0533 124.757 43.2897L124.766 43.3254C124.771 43.3463 124.779 43.3663 124.79 43.3848C124.822 43.4219 124.868 43.4452 124.917 43.4502C125.464 43.5766 126.078 43.6925 126.552 43.3937C126.98 43.1262 127.167 42.597 127.53 42.2432C127.787 41.9919 128.151 41.7972 128.224 41.4434C128.137 41.4166 128.052 41.3853 127.968 41.3497C128.042 41.2754 128.117 41.1892 128.218 41.0911C128.365 40.9473 128.497 40.7895 128.613 40.6198C128.739 40.4106 128.838 40.187 128.91 39.9539C129.197 39.1373 129.484 38.3202 129.772 37.5026C129.909 37.1161 130.046 36.7266 130.218 36.3505C130.396 35.9432 130.607 35.5522 130.802 35.1523C131.304 34.1124 131.692 33.0208 131.958 31.8968C132.005 31.7435 132.021 31.5822 132.004 31.4226C131.963 31.1654 131.768 30.9633 131.582 30.7804C131.395 30.5781 131.182 30.4017 130.949 30.2557C130.832 30.1828 130.701 30.1339 130.565 30.112C130.429 30.09 130.29 30.0954 130.156 30.1278C129.775 30.2393 129.536 30.6288 129.448 31.0197C129.361 31.4107 129.393 31.8136 129.356 32.209C129.303 32.7813 129.106 33.3343 129.059 33.9081C129.034 34.2396 129.059 34.5756 129.019 34.9071C128.946 35.3409 128.795 35.7579 128.573 36.1379C128.091 37.0442 127.439 37.8488 126.652 38.5075C126.561 38.5833 126.467 38.6561 126.378 38.7379C126.378 38.674 126.389 38.6086 126.397 38.5446C126.333 38.5615 126.27 38.5839 126.209 38.6115C126.216 38.5365 126.209 38.4606 126.186 38.3885C126.068 38.0333 125.539 37.9426 125.443 37.5813C125.428 37.492 125.419 37.4015 125.418 37.3108C125.387 36.9942 125.171 36.7266 125.097 36.4189C125.029 36.1349 125.081 35.8243 124.949 35.5611C124.836 35.3966 124.703 35.2468 124.553 35.1152C124.375 34.9111 124.246 34.6684 124.177 34.4061C124.158 34.3332 124.14 34.2574 124.119 34.1846C124.142 34.0197 124.124 33.8517 124.066 33.6955C123.931 33.3596 123.581 33.144 123.455 32.8036C123.357 32.539 123.4 32.209 123.214 32.0038C123.116 31.9058 122.995 31.8329 122.862 31.7913C122.182 31.5263 121.468 31.3577 120.742 31.2903C120.334 31.2531 119.886 31.2323 119.594 30.9454C119.254 30.6124 119.238 30.0134 118.84 29.7562C118.489 29.5287 117.993 29.6967 117.721 30.0163C117.68 30.0633 117.642 30.113 117.608 30.165C117.558 29.9657 117.547 29.7588 117.576 29.5555C117.576 29.505 117.587 29.4529 117.591 29.4068C118.262 29.1875 118.833 28.7364 119.202 28.1344C119.202 28.1344 119.202 28.1344 119.202 28.1433L119.22 28.1894C119.263 28.2979 119.331 28.4019 119.432 28.4138C119.5 28.413 119.565 28.3894 119.617 28.3469C119.706 28.2846 119.789 28.2128 119.863 28.1329C119.901 28.0912 119.937 28.0481 119.97 28.0035C120.039 27.9107 120.098 27.8111 120.146 27.7062C120.22 27.5485 120.27 27.3807 120.294 27.2082C120.321 27.0358 120.324 26.8589 120.354 26.6865C120.382 26.553 120.418 26.4214 120.462 26.2925C120.477 26.2494 120.492 26.2063 120.505 26.1632C120.519 26.1201 120.538 26.0621 120.553 26.0145C120.646 25.7088 120.696 25.3916 120.702 25.0721C120.702 25.0186 120.702 24.965 120.702 24.9115C120.696 24.703 120.649 24.4976 120.563 24.3075C120.478 24.1173 120.355 23.9462 120.202 23.8041C119.947 23.5944 119.608 23.5067 119.421 23.2228C119.299 23.0325 119.272 22.7873 119.201 22.5643C119.124 22.2974 118.973 22.0575 118.767 21.8718C118.56 21.686 118.306 21.5618 118.033 21.5133C117.703 21.4772 117.373 21.5681 117.108 21.7675L117.088 21.7838C116.94 21.8964 116.815 22.0356 116.719 22.1941C116.523 22.14 116.343 22.0378 116.196 21.8968C116.047 21.7586 115.933 21.5846 115.783 21.4509C115.643 21.3224 115.47 21.2339 115.284 21.1947C115.098 21.1554 114.905 21.1669 114.725 21.2279C114.539 21.3022 114.374 21.4196 114.242 21.5702C114.111 21.7209 114.017 21.9005 113.968 22.0945C113.887 22.4008 113.902 22.7531 113.731 23.0087C113.598 23.2079 113.381 23.3061 113.23 23.4874C113.136 23.6023 113.071 23.7386 113.043 23.8843C113.025 23.9658 113.016 24.0491 113.017 24.1326C113.017 24.1697 113.017 24.2069 113.026 24.2426C113.026 24.2426 113.026 24.2545 113.026 24.2604C113.032 24.3012 113.04 24.3414 113.052 24.3808C113.094 24.5315 113.169 24.6708 113.273 24.7881C113.371 24.9006 113.494 24.989 113.631 25.0468C113.687 25.0687 113.745 25.0871 113.803 25.1018L113.98 25.1419L114.043 25.1568C113.829 25.5576 113.711 26.0021 113.696 26.456C113.682 26.9099 113.772 27.361 113.959 27.7746C113.959 27.8162 113.949 27.8579 113.945 27.8995C113.92 28.4848 113.946 29.0712 114.022 29.6521C114.043 29.8825 114.055 30.1367 113.913 30.3196C113.849 30.3915 113.777 30.4558 113.698 30.5113C113.778 30.4073 113.86 30.3047 113.943 30.2021C113.734 29.9911 113.402 29.9643 113.105 29.9851C112.53 30.0281 111.971 30.1987 111.47 30.4846C111.138 30.6763 110.796 30.9305 110.415 30.886C110.191 30.8607 109.97 30.7373 109.751 30.7968C109.628 30.847 109.514 30.9151 109.411 30.9989C109.33 31.0573 109.231 31.0875 109.131 31.0851C108.898 30.7982 108.537 30.6035 108.258 30.3701C107.94 30.087 107.649 29.775 107.388 29.4381C106.907 28.8568 106.427 28.2741 105.954 27.6869C105.556 27.1934 105.147 26.6597 105.078 26.0279C105.07 25.9652 105.067 25.9022 105.067 25.8391C105.077 25.5389 105.115 25.2403 105.18 24.9472C105.198 24.8764 105.198 24.8024 105.18 24.7317C105.136 24.583 104.965 24.528 104.818 24.4953C104.837 24.3808 104.85 24.2634 104.858 24.1519C104.941 22.8735 104.85 21.5742 105.121 20.3226C105.223 19.8409 105.391 19.3533 105.737 19.004C106.28 18.4555 107.188 18.3232 107.604 17.6735C107.952 17.1324 107.813 16.3669 107.376 15.8897C106.94 15.4125 106.266 15.2178 105.626 15.2416C105.446 15.2354 105.269 15.283 105.116 15.3783C104.974 15.505 104.867 15.667 104.807 15.8481L104.17 17.3985C103.985 17.8022 103.829 18.2185 103.703 18.6443C103.525 19.2954 103.485 19.9821 103.343 20.6392C103.343 21.1446 103.018 21.7749 102.84 22.2402C102.641 22.7635 102.425 23.2808 102.245 23.8145C102.201 23.9482 102.045 24.3452 101.948 24.7064C101.912 24.7276 101.878 24.7531 101.847 24.7822C101.769 24.8817 101.699 24.9865 101.636 25.0959C101.501 25.2742 101.281 25.3694 101.132 25.5418C100.984 25.7143 100.952 26.0309 101.159 26.1171C101.201 26.1312 101.244 26.1407 101.288 26.1454C101.315 26.1476 101.342 26.1521 101.368 26.1587C101.591 26.2212 101.679 26.5021 101.646 26.734C101.614 26.9659 101.498 27.18 101.478 27.4119C101.438 27.8222 101.679 28.2042 101.911 28.5491C102.151 28.923 102.416 29.2801 102.704 29.6179C102.914 29.8528 103.15 30.0639 103.361 30.2898C104.165 31.1164 104.804 32.0826 105.526 32.9805C105.786 33.3194 106.082 33.6294 106.408 33.9051C106.62 34.0717 106.843 34.2251 107.075 34.3645L108.317 35.1523C108.458 35.2556 108.617 35.3308 108.787 35.3738C108.842 35.3813 108.898 35.3813 108.953 35.3738C108.961 35.411 108.966 35.4467 108.975 35.4838C109.072 35.8733 109.284 36.2271 109.308 36.624C109.332 37.0209 109.296 37.4267 109.325 37.8281C109.351 38.1983 109.433 38.5714 109.454 38.9356C109.495 39.6372 109.323 40.33 109.157 41.0168C108.906 42.0217 108.754 43.0474 108.265 43.9586C108.128 44.2099 107.968 44.4655 107.968 44.7524C107.968 44.7866 107.968 44.8223 107.977 44.8565L107.754 44.9829C107.689 45.02 107.623 45.0572 107.564 45.0958C107.281 45.2802 106.98 45.4838 106.864 45.8019C106.77 46.0591 106.813 46.3534 106.7 46.6032C106.695 46.6144 106.689 46.6253 106.682 46.6359C106.564 46.8678 106.327 47.0402 106.274 47.2944C106.234 47.4892 106.311 47.6958 106.274 47.8891C106.274 47.8891 106.274 47.889 106.274 47.8965C106.24 47.9935 106.213 48.0929 106.194 48.1938C106.192 48.2267 106.195 48.2598 106.202 48.2919C106.231 48.4045 106.293 48.5057 106.381 48.5818C106.434 48.6332 106.493 48.6795 106.555 48.72C106.618 48.7617 106.683 48.8003 106.751 48.836L106.789 48.8568C106.846 48.8865 106.902 48.9148 106.96 48.9415L106.999 48.9579C107.066 48.9876 107.134 49.0144 107.203 49.0381L107.25 49.053C107.304 49.0709 107.359 49.0872 107.414 49.1006L107.451 49.1125L107.485 49.1199L107.634 49.1511L107.689 49.1615C107.754 49.1724 107.821 49.1814 107.889 49.1883H107.949C107.999 49.1883 108.048 49.1957 108.097 49.1972H108.167C108.219 49.1972 108.27 49.1972 108.316 49.1972H108.369C108.439 49.1972 108.509 49.1868 108.579 49.1779H108.601C108.663 49.169 108.726 49.1586 108.788 49.1452L108.836 49.1348C108.894 49.1214 108.952 49.108 109.01 49.0902L109.041 49.0813C109.111 49.0604 109.18 49.0382 109.249 49.0114C109.485 48.9141 109.715 48.8004 109.935 48.671C110.084 48.5892 110.233 48.506 110.381 48.4302C110.491 48.3746 110.604 48.325 110.72 48.2815C111.001 48.1614 111.307 48.1104 111.612 48.1328C111.762 48.1533 111.911 48.1836 112.057 48.2235C112.057 48.2399 112.057 48.2562 112.057 48.2726C112.178 48.9861 112.298 49.6997 112.416 50.4132C112.61 50.2731 112.816 50.1493 113.031 50.0431C112.991 50.1508 112.964 50.2632 112.952 50.3775C112.943 50.466 112.943 50.5551 112.952 50.6436C112.965 50.7848 112.995 50.9409 112.91 51.0524C112.858 51.1208 112.762 51.1595 112.734 51.2367C112.713 51.3158 112.708 51.3981 112.719 51.4791C112.713 51.5715 112.674 51.6586 112.609 51.7246C112.544 51.7906 112.457 51.8312 112.365 51.8388C112.408 51.9585 112.409 52.089 112.368 52.2093C112.327 52.3295 112.247 52.4326 112.141 52.5018C112.078 52.5317 112.02 52.5697 111.968 52.6148C111.917 52.6805 111.883 52.7575 111.869 52.8392C111.672 53.5754 111.268 54.2395 110.705 54.7524C110.494 54.9185 110.301 55.1069 110.13 55.3143C110.024 55.475 109.937 55.647 109.87 55.8272C109.474 56.7964 109.071 57.7661 108.663 58.7364C108.437 59.279 108.218 59.8305 108.146 60.4147C107.968 62.0172 106.541 63.3759 106.809 64.9665C106.863 65.3638 107.023 65.7392 107.272 66.0531C107.57 66.4114 108.015 66.6165 108.461 66.783C109.607 67.229 110.815 67.4728 112.019 67.7181L113.909 68.1061C114.28 68.1914 114.656 68.251 115.035 68.2844C115.492 68.3157 115.96 68.2725 116.404 68.3885C116.679 68.4599 116.942 68.5922 117.226 68.607C117.469 68.6204 117.77 68.5684 117.914 68.7676C118.058 68.9668 117.946 69.2299 118.083 69.4068C118.303 69.6877 118.84 69.4068 119.079 69.6714C119.144 69.773 119.194 69.8837 119.227 69.9999C119.264 70.0718 119.314 70.1355 119.376 70.1872C119.391 70.2711 119.397 70.3563 119.394 70.4414C119.363 70.7866 119.291 71.1269 119.18 71.4552C119.002 72.0588 118.824 72.6628 118.646 73.2673C118.579 73.4808 118.529 73.6996 118.498 73.9214C118.487 74.0292 118.487 74.1378 118.498 74.2455C118.529 74.574 118.718 74.9129 119.031 75.02C119.274 75.0843 119.533 75.0524 119.753 74.9308C119.966 74.8198 120.165 74.6851 120.348 74.5294C120.677 74.2804 120.966 73.9826 121.205 73.6464C121.948 72.5345 121.708 71.0301 122.229 69.8007C122.575 68.9801 123.25 68.3142 123.474 67.449C123.527 67.2844 123.533 67.1085 123.492 66.9406C123.399 66.6433 123.082 66.4738 122.786 66.3668H122.773C122.53 66.2803 122.282 66.2093 122.03 66.1542C121.968 66.1408 121.904 66.1304 121.84 66.12C121.698 66.005 121.586 65.8583 121.511 65.6919C121.5 65.6034 121.476 65.5169 121.442 65.4347C121.418 65.3993 121.386 65.37 121.349 65.3493C121.312 65.3287 121.27 65.3172 121.228 65.3158C121.079 65.3009 120.88 65.3545 120.718 65.3426C120.386 65.3188 120.167 64.9932 119.869 64.8431C119.572 64.693 119.25 64.7301 118.933 64.7524C118.82 64.7679 118.705 64.7608 118.594 64.7316C118.462 64.6708 118.342 64.5878 118.238 64.4863C118.055 64.3439 117.841 64.2461 117.614 64.2004C117.387 64.1547 117.152 64.1626 116.929 64.2232C116.786 64.2807 116.636 64.3148 116.483 64.3243C116.193 64.3079 115.988 64.0493 115.774 63.8531C115.188 63.3164 114.355 63.1752 113.644 62.8229C113.536 62.7824 113.445 62.7044 113.389 62.6029C113.307 62.4007 113.491 62.1985 113.658 62.0603L114.879 61.045C116.217 59.933 117.889 59.0961 118.51 57.4654C118.574 57.2467 118.675 57.0403 118.807 56.8544C118.855 56.7977 118.91 56.7477 118.972 56.7057C119.242 56.5306 119.569 56.4667 119.886 56.5274C120.271 56.6137 120.636 56.7731 120.962 56.9971C121.494 57.3192 122.011 57.666 122.514 58.0377C123.013 58.3941 123.487 58.7834 123.934 59.2031C124.714 59.9464 125.363 60.8279 126.09 61.6292C126.816 62.4304 127.647 63.1782 128.656 63.5617C129.665 63.9452 130.885 63.9289 131.752 63.2852C132.752 62.5419 133.073 61.213 133.325 59.994C133.882 59.4559 134.05 58.6368 134.322 57.9128C134.493 57.4535 134.712 57.0209 134.896 56.563C135.116 56.0249 135.288 55.4689 135.461 54.9145C135.656 54.3577 135.789 53.7808 135.856 53.1945C135.927 52.2684 135.679 51.2828 135.939 50.4132C136.282 50.3374 136.594 50.1441 136.932 50.0312C137.434 49.8662 137.972 49.8929 138.504 49.8959H138.538C138.721 49.9154 138.906 49.8719 139.061 49.7725C139.24 49.6238 139.268 49.3696 139.277 49.1392C139.298 48.5699 139.262 47.9307 138.835 47.562ZM117.305 22.2045C117.182 22.2349 117.054 22.244 116.929 22.2313L117.305 22.2045Z" fill="url(#paint0_linear_56_507)"/>
<path d="M117.89 31.6084C117.71 31.7613 117.499 31.8734 117.272 31.9369L116.218 32.3145C115.646 32.5197 115.049 32.7263 114.445 32.652C114.108 32.6103 112.662 32.3978 112.444 32.1346C112.111 31.7273 113.277 31.1282 113.676 30.7849C113.766 30.7199 113.849 30.6462 113.925 30.5648C114.074 30.3835 114.055 30.1293 114.034 29.9004C113.958 29.3204 113.932 28.7351 113.956 28.1507C113.968 28.0114 113.988 27.8729 114.016 27.736C114.165 27.0521 114.801 27.3019 115.303 27.4832C115.907 27.6797 116.492 27.9331 117.049 28.2399C117.218 28.3274 117.366 28.4524 117.48 28.6056C117.7 28.9386 117.612 29.3756 117.576 29.7948C117.545 30.1204 117.547 30.4325 117.75 30.6689C117.853 30.7593 117.947 30.8588 118.031 30.9662C118.079 31.0744 118.091 31.1949 118.065 31.3103C118.04 31.4258 117.978 31.5302 117.89 31.6084Z" fill="#BE6F72"/>
<path d="M103.336 20.8948C103.485 20.2363 103.517 19.5569 103.696 18.9043C103.821 18.48 103.977 18.0652 104.162 17.6631L104.817 16.1334C104.877 15.9528 104.984 15.7912 105.127 15.6651C105.279 15.5705 105.457 15.5229 105.636 15.5284C106.277 15.5046 106.95 15.7038 107.387 16.175C107.824 16.6463 107.962 17.4089 107.614 17.9485C107.198 18.5981 106.29 18.7289 105.748 19.276C105.401 19.6253 105.234 20.1114 105.131 20.5916C104.861 21.8403 104.951 23.135 104.868 24.4105C104.841 24.8074 104.764 25.2608 104.422 25.4659C104.216 25.5672 103.986 25.6118 103.756 25.5953L102.782 25.6116C102.618 25.6116 102.025 25.7142 101.917 25.5908C101.727 25.3753 102.16 24.302 102.239 24.0626C102.415 23.5319 102.63 23.0146 102.834 22.4928C103.01 22.0276 103.336 21.3987 103.336 20.8948Z" fill="#BE6F72"/>
<path d="M123.464 67.5961C123.24 68.4554 122.565 69.1243 122.219 69.9434C121.697 71.1698 121.932 72.6697 121.195 73.7787C120.956 74.1155 120.667 74.4138 120.337 74.6632C120.155 74.8184 119.956 74.9526 119.743 75.0631C119.523 75.1846 119.264 75.2166 119.021 75.1523C118.707 75.0452 118.519 74.7063 118.487 74.3793C118.476 74.272 118.476 74.1639 118.487 74.0567C118.519 73.8354 118.568 73.6171 118.636 73.4041C118.814 72.8025 118.992 72.2 119.169 71.5964C119.28 71.2691 119.352 70.9298 119.383 70.5856C119.403 70.211 119.165 69.7234 119.266 69.3741C119.312 69.2165 119.484 69.0768 119.563 68.9444C119.675 68.754 119.761 68.5496 119.819 68.3364C119.941 67.9217 120.024 67.4787 120.279 67.1294C120.446 66.9222 120.641 66.7395 120.859 66.5868C121.02 66.4459 121.208 66.3401 121.412 66.2761C121.61 66.2413 121.813 66.2509 122.006 66.3043C122.258 66.3582 122.506 66.4287 122.749 66.5154H122.763C123.06 66.6225 123.375 66.7875 123.468 67.0877C123.514 67.2544 123.512 67.4303 123.464 67.5961Z" fill="#3F3D56"/>
<path d="M139.275 49.3207C139.266 49.5511 139.238 49.8083 139.06 49.9525C138.904 50.0518 138.72 50.0954 138.537 50.0758H138.496C137.966 50.0758 137.427 50.0461 136.924 50.2111C136.542 50.3375 136.192 50.5694 135.793 50.6155C135.245 50.6779 134.729 50.3776 134.243 50.116C133.786 49.8694 133.316 49.6461 132.836 49.447C132.521 49.3177 131.878 49.2345 131.726 48.8896C131.674 48.7264 131.631 48.5607 131.595 48.3931C131.57 48.3182 131.54 48.2451 131.505 48.1745C131.416 48.0239 131.359 47.8563 131.338 47.6825C131.339 47.5092 131.399 47.3414 131.508 47.2068C131.629 47.0632 131.777 46.9451 131.944 46.8591C132.111 46.7731 132.294 46.721 132.481 46.7058C132.856 46.6767 133.232 46.6967 133.602 46.7653L137.26 47.2915C137.542 47.3317 137.826 47.3718 138.104 47.4402C138.368 47.486 138.617 47.5951 138.829 47.7583C139.262 48.121 139.297 48.7588 139.275 49.3207Z" fill="#3F3D56"/>
<path d="M136.059 50.272C135.614 51.213 135.935 52.3264 135.854 53.367C135.787 53.9518 135.654 54.5272 135.459 55.0825C135.287 55.6355 135.114 56.19 134.894 56.7266C134.71 57.1726 134.492 57.6185 134.321 58.0734C134.049 58.7989 133.875 59.615 133.324 60.1546C133.071 61.3706 132.75 62.6995 131.75 63.4369C130.881 64.0791 129.67 64.1014 128.655 63.7134C127.64 63.3254 126.815 62.5821 126.088 61.7809C125.362 60.9796 124.712 60.107 123.932 59.3608C123.485 58.941 123.01 58.5521 122.51 58.1968C122.007 57.8311 121.489 57.4872 120.957 57.1651C120.631 56.9422 120.266 56.7833 119.881 56.6969C119.565 56.6362 119.237 56.7001 118.967 56.8753C118.906 56.9172 118.85 56.9672 118.802 57.0239C118.67 57.2091 118.57 57.4151 118.505 57.6334C117.881 59.2597 116.206 60.0951 114.869 61.2041L113.647 62.2164C113.481 62.3547 113.297 62.5568 113.378 62.7575C113.435 62.859 113.525 62.9371 113.634 62.9775C114.344 63.3284 115.178 63.4696 115.763 64.0047C115.977 64.201 116.182 64.4596 116.472 64.4745C116.625 64.4655 116.776 64.4319 116.918 64.3749C117.142 64.3144 117.376 64.3065 117.603 64.3519C117.83 64.3973 118.044 64.4947 118.227 64.6365C118.331 64.738 118.452 64.821 118.584 64.8818C118.694 64.911 118.809 64.9181 118.923 64.9026C119.239 64.8803 119.575 64.8521 119.859 64.9933C120.143 65.1345 120.376 65.4675 120.707 65.4913C120.869 65.5032 121.063 65.4497 121.217 65.4645C121.26 65.4659 121.301 65.4774 121.338 65.4981C121.376 65.5187 121.407 65.548 121.431 65.5834C121.466 65.6651 121.489 65.7512 121.501 65.8391C121.562 66.0487 121.767 66.1766 121.901 66.349C122.106 66.6136 122.135 66.9734 122.115 67.3078C122.047 68.3537 121.581 69.3338 120.813 70.0461C120.595 70.2692 120.316 70.4241 120.012 70.492C119.859 70.5239 119.701 70.5071 119.558 70.4439C119.416 70.3806 119.297 70.2742 119.218 70.1397C119.185 70.024 119.135 69.9138 119.07 69.8127C118.831 69.5495 118.294 69.829 118.074 69.5481C117.937 69.3727 118.036 69.0917 117.905 68.9103C117.774 68.729 117.459 68.7617 117.217 68.7513C116.933 68.7364 116.67 68.6026 116.395 68.5328C115.949 68.4168 115.483 68.4599 115.026 68.4287C114.647 68.3953 114.271 68.3357 113.9 68.2503L112.01 67.8638C110.806 67.6185 109.598 67.3703 108.452 66.9317C108.014 66.7652 107.572 66.5601 107.263 66.2033C107.014 65.8898 106.854 65.515 106.8 65.1182C106.531 63.532 107.957 62.1763 108.137 60.5783C108.201 59.9955 108.434 59.4455 108.654 58.9044C109.058 57.9372 109.46 56.9694 109.861 56.0012C109.926 55.8209 110.011 55.6484 110.114 55.4868C110.285 55.2799 110.477 55.092 110.689 54.9264C111.252 54.4152 111.656 53.7525 111.852 53.0177C111.867 52.9359 111.901 52.8589 111.952 52.7932C112.004 52.7491 112.062 52.7117 112.124 52.6817C112.23 52.6126 112.31 52.5098 112.351 52.3898C112.392 52.2699 112.391 52.1397 112.349 52.0202C112.441 52.0126 112.527 51.9721 112.592 51.906C112.657 51.84 112.696 51.7529 112.702 51.6605C112.691 51.58 112.696 51.4982 112.717 51.4197C112.753 51.3424 112.842 51.3037 112.894 51.2353C112.979 51.1238 112.949 50.9677 112.936 50.828C112.927 50.7395 112.927 50.6504 112.936 50.5619C112.968 50.2471 113.109 49.9534 113.334 49.7309C113.689 49.3816 114.194 49.4723 114.685 49.389C115.174 49.2834 115.651 49.1306 116.111 48.9327C117.401 48.4244 118.758 48.1103 120.14 48.0006C121.528 47.8914 122.923 48.1135 124.208 48.6487C124.395 48.7245 124.572 48.8245 124.733 48.946C124.847 49.0343 124.941 49.1464 125.008 49.2746C125.063 49.4319 125.13 49.5846 125.21 49.7309C125.369 49.948 125.669 50.0178 125.843 50.223C126.017 50.4281 126.032 50.7745 126.176 51.0287C126.382 51.3914 126.861 51.5594 127.004 51.9533C127.048 52.0782 127.054 52.2149 127.087 52.3443C127.167 52.6683 127.408 52.924 127.62 53.1797C128.399 54.1118 128.898 55.2458 129.059 56.4501C129.106 55.6964 129.613 55.029 130.248 54.6127C130.418 54.5013 130.616 54.3779 130.65 54.1757C130.693 53.92 130.445 53.6926 130.462 53.4324C130.48 53.3054 130.531 53.1854 130.61 53.0846C130.893 52.674 131.204 52.2831 131.54 51.9147C131.723 51.714 131.928 51.4687 131.852 51.2041C131.795 51.0064 131.592 50.8904 131.481 50.718C131.416 50.6152 131.383 50.4955 131.385 50.3739C131.388 50.2522 131.426 50.1341 131.496 50.0342C131.6 49.893 131.765 49.7904 131.815 49.6224C131.873 49.4247 131.744 49.2106 131.784 49.007C131.838 48.8439 131.946 48.704 132.09 48.6101C132.287 48.4305 132.512 48.283 132.754 48.173C133.147 48.0244 133.584 48.0794 134 48.1374C134.695 48.234 135.475 48.3826 135.868 48.9654C136.119 49.3296 136.247 49.8826 136.059 50.272Z" fill="#5F5F5F"/>
<path opacity="0.1" d="M139.275 49.3206C139.266 49.5511 139.238 49.8082 139.06 49.9524C138.904 50.0518 138.72 50.0953 138.537 50.0758H138.496C138.557 49.7666 138.933 49.5897 138.999 49.2761C139.01 49.1797 139.001 49.0821 138.973 48.9893C138.945 48.8964 138.898 48.8104 138.835 48.7364C138.517 48.3068 138.006 48.069 137.498 47.8951C136.062 47.4026 134.524 47.2875 133.031 47.5606C132.625 47.6267 132.23 47.7483 131.857 47.9218C131.733 47.9992 131.614 48.0836 131.5 48.1745C131.411 48.0239 131.354 47.8563 131.334 47.6825C131.334 47.5092 131.394 47.3414 131.503 47.2068C131.624 47.0632 131.773 46.9451 131.94 46.8591C132.107 46.7731 132.289 46.721 132.477 46.7058C132.851 46.6767 133.228 46.6967 133.597 46.7653L137.256 47.2915C137.538 47.3317 137.822 47.3718 138.1 47.4402C138.364 47.486 138.612 47.5951 138.825 47.7583C139.262 48.121 139.297 48.7587 139.275 49.3206Z" fill="black"/>
<path opacity="0.1" d="M123.464 67.5962C123.24 68.4554 122.565 69.1243 122.219 69.9434C121.697 71.1698 121.932 72.6698 121.195 73.7787C120.956 74.1156 120.667 74.4138 120.337 74.6632C120.155 74.8185 119.956 74.9526 119.743 75.0631C119.523 75.1847 119.264 75.2166 119.021 75.1523C118.707 75.0453 118.519 74.7063 118.487 74.3793C118.476 74.2721 118.476 74.1639 118.487 74.0567L118.496 74.0805C118.626 74.3927 118.837 74.7197 119.169 74.7747C119.294 74.7837 119.42 74.7668 119.538 74.7252C119.656 74.6835 119.764 74.6178 119.856 74.5324C120.346 74.1385 120.632 73.5513 120.904 72.9849C121.116 72.5765 121.285 72.1464 121.406 71.702C121.465 71.4493 121.494 71.1906 121.554 70.9379C121.837 69.71 122.798 68.7081 123.011 67.4639C123.028 67.3783 123.032 67.2905 123.023 67.2037C122.995 67.0905 122.952 66.9815 122.895 66.8796C122.843 66.7646 122.805 66.6438 122.782 66.5199C123.079 66.6269 123.394 66.7919 123.488 67.0922C123.526 67.2592 123.518 67.4335 123.464 67.5962Z" fill="black"/>
<path opacity="0.1" d="M121.22 65.4645C121.083 65.8242 120.851 66.1404 120.55 66.3803C120.127 66.7027 119.632 66.917 119.107 67.0046C118.863 67.0669 118.607 67.0638 118.364 66.9957C118.034 66.8812 117.796 66.572 117.459 66.4828C117.218 66.4174 116.96 66.4754 116.716 66.4397C116.278 66.3788 115.937 66.0443 115.584 65.7767C114.5 64.9621 113.078 64.699 111.995 63.8844C111.947 63.8547 111.907 63.8133 111.879 63.7639C111.858 63.7105 111.851 63.6529 111.857 63.596C111.861 63.1018 111.972 62.6145 112.182 62.1674C112.354 61.8555 112.56 61.5629 112.794 61.2948C113.765 60.1056 114.74 58.9074 115.902 57.904C116.389 57.4833 116.921 57.0908 117.536 56.9006C117.878 56.795 118.553 56.6954 118.969 56.8738C118.907 56.9157 118.852 56.9657 118.804 57.0225C118.672 57.2077 118.571 57.4136 118.507 57.6319C117.881 59.2597 116.206 60.0951 114.869 61.2041L113.647 62.2164C113.481 62.3547 113.297 62.5569 113.378 62.7575C113.435 62.859 113.525 62.9371 113.634 62.9776C114.344 63.3284 115.178 63.4696 115.763 64.0048C115.977 64.201 116.182 64.4596 116.472 64.4745C116.625 64.4655 116.776 64.4319 116.918 64.3749C117.142 64.3144 117.376 64.3065 117.603 64.3519C117.83 64.3973 118.044 64.4947 118.227 64.6365C118.331 64.7381 118.452 64.821 118.584 64.8818C118.694 64.911 118.809 64.9181 118.923 64.9026C119.239 64.8803 119.575 64.8521 119.859 64.9933C120.143 65.1345 120.376 65.4675 120.707 65.4913C120.872 65.5032 121.066 65.4467 121.22 65.4645Z" fill="black"/>
<path d="M107.553 45.2892C107.271 45.4705 106.971 45.6757 106.855 45.9908C106.76 46.248 106.804 46.5423 106.69 46.792C106.576 47.0418 106.318 47.2157 106.262 47.4833C106.222 47.678 106.301 47.8832 106.262 48.0779C106.228 48.1792 106.201 48.2824 106.18 48.3871C106.165 48.6086 106.356 48.7885 106.541 48.9119C106.937 49.1692 107.387 49.3301 107.856 49.3817C108.325 49.4334 108.799 49.3743 109.241 49.2092C109.638 49.0605 109.996 48.8182 110.377 48.6279C110.748 48.4142 111.172 48.3111 111.6 48.3306C111.845 48.3574 112.08 48.4466 112.325 48.4793C112.446 48.5032 112.571 48.4973 112.689 48.4621C112.808 48.4269 112.916 48.3634 113.004 48.2771C113.08 48.1725 113.131 48.052 113.153 47.9248C113.359 47.1087 113.266 46.2435 113.069 45.4229C112.873 44.6024 112.576 43.813 112.367 42.9969C112.218 42.3919 112.103 41.772 111.855 41.1997C111.607 40.6274 111.19 40.0952 110.606 39.8767C110.56 39.854 110.507 39.8472 110.457 39.8573C110.42 39.873 110.386 39.8975 110.36 39.9287C109.898 40.4184 109.55 41.0042 109.341 41.6442C109.108 42.3562 109.044 43.1114 108.83 43.8264C108.738 44.1237 108.619 44.5221 108.384 44.7495C108.149 44.977 107.819 45.1182 107.553 45.2892Z" fill="#D91167"/>
<path opacity="0.1" d="M113.157 47.9203C113.132 48.0479 113.079 48.1683 113.001 48.2726C112.913 48.3591 112.805 48.4227 112.686 48.4577C112.568 48.4927 112.443 48.498 112.322 48.4732C112.078 48.4435 111.843 48.3528 111.598 48.3246C111.17 48.3048 110.746 48.408 110.375 48.6219C109.995 48.8122 109.632 49.0485 109.238 49.2017C108.662 49.4202 108.033 49.456 107.436 49.3042C107.119 49.2245 106.817 49.0918 106.544 48.9118C106.357 48.7899 106.168 48.6145 106.183 48.387C106.204 48.2828 106.231 48.1801 106.265 48.0793C106.304 47.8846 106.226 47.6794 106.265 47.4847C106.321 47.2171 106.58 47.0387 106.693 46.792C106.806 46.5452 106.763 46.2494 106.856 45.9922C106.972 45.6756 107.274 45.4719 107.556 45.2891C107.839 45.1062 108.174 44.9665 108.4 44.745C108.429 44.7105 108.456 44.6737 108.479 44.635C108.642 44.3837 108.761 44.1068 108.833 43.8159C109.051 43.0994 109.111 42.3457 109.342 41.6322C109.553 40.9927 109.901 40.4075 110.363 39.9182C110.388 39.8863 110.421 39.8616 110.458 39.8468C110.509 39.8366 110.561 39.8429 110.607 39.8647C111.189 40.0847 111.607 40.6168 111.857 41.1892C112.106 41.7615 112.212 42.3784 112.368 42.9849C112.576 43.801 112.875 44.5934 113.071 45.4124C113.267 46.2315 113.364 47.1027 113.157 47.9203Z" fill="black"/>
<path opacity="0.1" d="M117.576 29.7903C116.878 30.0124 116.122 29.9683 115.453 29.6664C114.785 29.3646 114.252 28.8263 113.957 28.1551C113.968 28.0158 113.988 27.8773 114.016 27.7403C114.165 27.0565 114.801 27.3063 115.303 27.4876C115.907 27.6841 116.492 27.9375 117.049 28.2443C117.219 28.3318 117.366 28.4568 117.48 28.61C117.7 28.9385 117.612 29.3755 117.576 29.7903Z" fill="black"/>
<path d="M116.679 29.7815C118.32 29.7815 119.651 28.4504 119.651 26.8084C119.651 25.1664 118.32 23.8353 116.679 23.8353C115.038 23.8353 113.707 25.1664 113.707 26.8084C113.707 28.4504 115.038 29.7815 116.679 29.7815Z" fill="#BE6F72"/>
<path opacity="0.1" d="M124.743 49.0263C124.743 49.273 124.409 49.3518 124.161 49.3384C123.269 49.2864 122.397 49.0411 121.514 49.1155C120.398 49.2165 119.373 49.8335 118.254 49.8899C117.823 49.9122 117.385 49.8483 116.96 49.9271C116.41 50.0297 115.919 50.3642 115.359 50.4117C114.873 50.4533 114.393 50.2705 113.907 50.2898C113.568 50.3101 113.236 50.4045 112.937 50.5663C112.97 50.2515 113.11 49.9578 113.335 49.7353C113.69 49.386 114.196 49.4767 114.686 49.3934C115.175 49.2878 115.653 49.135 116.113 48.9371C117.402 48.4288 118.76 48.1147 120.141 48.005C121.529 47.8946 122.923 48.1152 124.208 48.6487C124.396 48.7245 124.572 48.8244 124.733 48.946C124.741 48.9719 124.745 48.9991 124.743 49.0263Z" fill="black"/>
<path d="M115.304 32.2372L114.101 31.7913L113.592 31.604C113.385 31.5172 113.167 31.4591 112.945 31.4315C112.362 31.3869 111.814 31.7749 111.503 32.2699C111.193 32.765 111.075 33.3551 110.976 33.9304C110.839 34.7173 110.723 35.5071 110.628 36.3C110.525 37.0159 110.473 37.7382 110.472 38.4614C110.506 40.3017 110.895 42.1168 111.323 43.9081C111.533 44.7023 111.691 45.5092 111.797 46.3237C111.833 46.6597 111.849 46.9971 111.885 47.3346C111.924 47.7136 111.986 48.0882 112.048 48.4643L112.407 50.6005C112.852 50.2839 113.359 50.0059 113.907 49.9895C114.393 49.9717 114.875 50.1531 115.359 50.1114C115.917 50.0653 116.41 49.7309 116.96 49.6283C117.385 49.5495 117.823 49.612 118.256 49.5911C119.373 49.5347 120.4 48.9163 121.514 48.8167C122.399 48.7364 123.277 48.9861 124.162 49.0381C124.409 49.053 124.743 48.9742 124.743 48.726C124.743 48.5535 124.571 48.4391 124.421 48.3529C123.714 47.9267 123.04 47.4461 122.407 46.9154C121.822 46.4516 121.228 45.9759 120.825 45.3485C119.855 43.8397 120.187 41.7987 119.36 40.2066C118.686 38.9133 119.36 37.2186 119.36 35.7603C119.36 35.0334 119.36 34.2976 119.189 33.5915C119.082 33.1965 118.949 32.8092 118.791 32.432L118.212 30.9677C118.2 30.9249 118.177 30.8863 118.144 30.8562C118.105 30.8295 118.059 30.8154 118.012 30.8161C117.665 30.7953 117.322 30.905 117.052 31.1238C116.78 31.3453 116.606 31.6634 116.339 31.8938C116.046 32.148 115.668 32.371 115.304 32.2372Z" fill="#E3E8F4"/>
<path d="M117.247 31.3929C117.342 30.9856 117.444 30.5619 117.716 30.2438C117.988 29.9257 118.484 29.7577 118.835 29.9852C119.233 30.2438 119.25 30.8414 119.59 31.1744C119.887 31.4598 120.333 31.4821 120.737 31.5193C121.464 31.5854 122.178 31.7536 122.858 32.0187C122.99 32.0599 123.111 32.1323 123.21 32.2298C123.396 32.4409 123.359 32.765 123.451 33.0281C123.577 33.367 123.926 33.5826 124.061 33.92C124.21 34.2947 124.061 34.7139 123.937 35.0989C123.712 35.7901 123.571 36.5081 123.353 37.2023C123.134 37.8965 122.824 38.5804 122.312 39.1036C122.086 39.3355 121.751 39.5496 121.453 39.4113L121.339 40.2364C121.306 40.4107 121.306 40.5898 121.339 40.7641C121.356 40.8513 121.398 40.9319 121.459 40.9966C121.52 41.0613 121.598 41.1074 121.684 41.1298C121.706 41.2576 121.841 41.3186 121.951 41.3884C122.032 41.444 122.102 41.5151 122.155 41.5976C122.209 41.6801 122.245 41.7725 122.263 41.8693C122.28 41.9661 122.279 42.0654 122.258 42.1615C122.236 42.2576 122.196 42.3485 122.14 42.429C122.046 42.5554 121.908 42.655 121.864 42.8051C121.797 43.0222 121.956 43.2511 122.149 43.37C122.342 43.4889 122.569 43.5439 122.766 43.6584C123.173 43.8933 123.391 44.3556 123.531 44.8045C123.635 45.1435 123.721 45.5106 123.977 45.7574C124.075 45.851 124.192 45.9224 124.286 46.0205C124.448 46.212 124.541 46.4521 124.552 46.7028C124.592 47.0135 124.524 47.3288 124.359 47.5948C124.061 48.0199 123.507 48.1463 123.021 48.338C122.232 48.6621 121.583 49.2419 120.887 49.7354C120.604 49.9636 120.27 50.1206 119.914 50.1932C119.432 50.2572 118.958 50.0446 118.474 50.0253C118.184 50.028 117.896 50.0659 117.615 50.1382L116.723 50.3315C116.771 49.6402 116.391 48.9475 116.178 48.289C115.777 47.0492 115.703 45.7232 115.798 44.424C115.893 43.1247 116.157 41.8433 116.419 40.5679C116.602 39.6759 116.584 38.7439 116.865 37.8772C117.128 37.0433 117.504 36.242 117.642 35.3739C117.868 33.9691 116.929 32.7784 117.247 31.3929Z" fill="#D91167"/>
<path d="M124.006 34.1415C124.088 34.2925 124.146 34.4556 124.177 34.6246C124.246 34.8865 124.375 35.1287 124.553 35.3322C124.703 35.4641 124.835 35.6139 124.948 35.7782C125.085 36.0368 125.033 36.352 125.097 36.6344C125.171 36.9421 125.387 37.2097 125.418 37.5264C125.419 37.6171 125.427 37.7076 125.443 37.7969C125.54 38.1566 126.069 38.2429 126.186 38.6026C126.265 38.836 126.13 39.0902 126.155 39.3355C126.174 39.4113 126.178 39.4899 126.168 39.5674C126.135 39.655 126.076 39.7306 125.999 39.7844C125.507 40.2544 125.167 40.8605 125.021 41.5252C124.878 42.1862 124.803 42.8601 124.797 43.5365L124.216 42.7679C124.154 42.6747 124.076 42.594 123.984 42.5301C123.91 42.4855 123.824 42.4632 123.748 42.4186C123.528 42.2937 123.442 42.0291 123.357 41.7913C123.122 41.1329 122.769 40.5225 122.317 39.9896C122.08 39.7116 121.806 39.4321 121.753 39.0709C121.738 38.905 121.747 38.7377 121.78 38.5744C121.929 37.6007 122.088 36.6032 122.562 35.7395C122.783 35.3352 123.07 34.9695 123.283 34.5592C123.425 34.2872 123.626 33.5796 124.006 34.1415Z" fill="#D91167"/>
<path d="M109.347 35.0764C109.35 35.2016 109.318 35.3251 109.255 35.4332C109.198 35.4991 109.124 35.5478 109.041 35.5741C108.958 35.6003 108.87 35.603 108.785 35.5819C108.616 35.5394 108.457 35.4647 108.316 35.3619C107.902 35.1002 107.487 34.8381 107.073 34.5755C106.842 34.4361 106.619 34.2832 106.406 34.1176C106.08 33.8424 105.785 33.5329 105.525 33.1945C104.803 32.3025 104.164 31.3348 103.36 30.5187C103.141 30.2957 102.914 30.0817 102.703 29.8483C102.415 29.5109 102.149 29.1543 101.909 28.7809C101.678 28.4375 101.437 28.057 101.477 27.6467C101.501 27.4148 101.612 27.2007 101.645 26.9703C101.678 26.7399 101.59 26.4589 101.367 26.3965C101.341 26.3899 101.314 26.3854 101.287 26.3831C101.243 26.3785 101.199 26.369 101.157 26.3549C100.951 26.2687 100.982 25.9491 101.131 25.7811C101.279 25.6131 101.499 25.5194 101.635 25.3351C101.697 25.2257 101.768 25.1209 101.846 25.0215C101.945 24.9361 102.064 24.8764 102.192 24.8475C103.049 24.5948 103.956 24.5606 104.829 24.7479C104.978 24.7806 105.147 24.8401 105.192 24.9843C105.21 25.0545 105.21 25.1281 105.192 25.1984C105.126 25.4915 105.089 25.7901 105.079 26.0903C105.079 26.1529 105.082 26.2154 105.089 26.2776C105.159 26.9079 105.568 27.4415 105.966 27.9336C106.439 28.5193 106.919 29.1005 107.4 29.6803C107.661 30.0162 107.952 30.3273 108.27 30.6094C108.567 30.8561 108.952 31.0553 109.183 31.372C109.372 31.6277 109.311 31.977 109.332 32.2847C109.401 33.2138 109.406 34.1466 109.347 35.0764Z" fill="#D91167"/>
<path d="M128.219 41.2784C128.366 41.1357 128.498 40.9788 128.614 40.8101C128.739 40.6011 128.839 40.3781 128.912 40.1457L129.774 37.7003C129.91 37.3138 130.047 36.9258 130.219 36.5497C130.398 36.1439 130.609 35.7529 130.803 35.3605C131.304 34.3277 131.691 33.2436 131.958 32.1272C132.005 31.9739 132.021 31.8126 132.004 31.653C131.962 31.3959 131.768 31.1952 131.582 31.0123C131.395 30.8105 131.182 30.6345 130.949 30.4891C130.832 30.4162 130.701 30.3673 130.565 30.3454C130.429 30.3234 130.29 30.3288 130.155 30.3612C129.775 30.4727 129.536 30.8622 129.448 31.2532C129.36 31.6441 129.393 32.044 129.356 32.4424C129.302 33.0132 129.106 33.5647 129.059 34.1371C129.034 34.4686 129.059 34.803 129.019 35.133C128.946 35.5664 128.794 35.9829 128.573 36.3624C128.09 37.2664 127.438 38.0689 126.651 38.726C126.436 38.8851 126.242 39.0715 126.075 39.2805C125.935 39.4896 125.84 39.7255 125.797 39.9732C125.698 40.3504 125.741 40.7508 125.917 41.0985C126.16 41.5118 126.625 41.6931 127.069 41.7853C127.669 41.9102 127.808 41.705 128.219 41.2784Z" fill="#BE6F72"/>
<path d="M116.697 22.5003C116.825 22.2598 117.021 22.0623 117.26 21.9325C117.499 21.8027 117.772 21.7463 118.043 21.7704C118.316 21.8188 118.571 21.9428 118.777 22.1282C118.983 22.3137 119.134 22.5533 119.211 22.8199C119.281 23.0414 119.309 23.2867 119.431 23.4769C119.615 23.7638 119.957 23.8471 120.213 24.0552C120.365 24.197 120.488 24.3679 120.574 24.5578C120.66 24.7477 120.707 24.9529 120.712 25.1612C120.726 25.5867 120.659 26.011 120.514 26.4114C120.453 26.5822 120.403 26.757 120.366 26.9346C120.336 27.1071 120.333 27.2825 120.306 27.4549C120.273 27.6785 120.196 27.8933 120.079 28.0865C119.962 28.2798 119.807 28.4476 119.624 28.5802C119.572 28.6227 119.507 28.6463 119.44 28.6471C119.324 28.6338 119.253 28.4985 119.21 28.3766C118.973 27.6943 119.03 26.8603 118.594 26.3162C118.396 26.0968 118.157 25.9184 117.89 25.7915C117.781 25.7212 117.659 25.6751 117.53 25.6562C117.342 25.6664 117.161 25.7326 117.01 25.8465C116.697 26.0569 116.349 26.2109 115.982 26.3014C115.799 26.3447 115.609 26.3467 115.425 26.3071C115.241 26.2675 115.068 26.1873 114.919 26.0724C114.714 25.903 114.564 25.6488 114.337 25.5165C114.11 25.3842 113.872 25.3916 113.647 25.3009C113.504 25.2401 113.377 25.1474 113.275 25.0299C113.174 24.9124 113.1 24.7732 113.06 24.623C113.02 24.4727 113.015 24.3154 113.046 24.1629C113.076 24.0104 113.14 23.8668 113.234 23.743C113.383 23.5646 113.603 23.4636 113.735 23.2659C113.906 23.0102 113.891 22.6593 113.973 22.3531C114.021 22.1594 114.115 21.98 114.247 21.8298C114.378 21.6796 114.544 21.5629 114.729 21.4894C114.909 21.4283 115.102 21.4166 115.289 21.4555C115.475 21.4945 115.647 21.5827 115.787 21.7109C115.936 21.8447 116.055 22.0172 116.2 22.1569C116.344 22.2946 116.52 22.3939 116.712 22.4459C116.904 22.4978 117.107 22.5007 117.3 22.4542" fill="#332F38"/>
<path opacity="0.1" d="M119.14 44.3807C119.053 44.4578 118.992 44.5592 118.964 44.6716C118.936 44.784 118.942 44.9023 118.982 45.011C119.015 45.0809 120.548 44.7851 120.71 44.7628C121.115 44.7048 121.823 44.733 122.095 44.3629C122.58 43.7073 121.079 43.853 120.804 43.8768C120.281 43.9214 119.538 43.9928 119.14 44.3807Z" fill="black"/>
<path d="M105.189 25.2043C105.123 25.4974 105.086 25.796 105.076 26.0962C104.63 26.1869 104.167 26.0382 103.739 25.8896L102.51 25.4704C102.435 25.4226 102.345 25.4051 102.258 25.4214C102.17 25.4376 102.093 25.4865 102.04 25.5581C101.842 25.7632 101.571 26.1527 101.297 26.3831C101.253 26.3785 101.21 26.369 101.168 26.3549C100.961 26.2687 100.992 25.9491 101.141 25.7811C101.29 25.6131 101.51 25.5194 101.645 25.3351C101.708 25.2257 101.778 25.1209 101.856 25.0215C101.955 24.9361 102.074 24.8764 102.202 24.8475C103.059 24.5948 103.966 24.5606 104.84 24.7479C104.988 24.7806 105.158 24.8401 105.202 24.9843C105.217 25.0576 105.212 25.1333 105.189 25.2043Z" fill="#D91167"/>
<path opacity="0.1" d="M105.189 25.2043C105.123 25.4974 105.086 25.796 105.076 26.0962C104.63 26.1869 104.167 26.0382 103.739 25.8896L102.51 25.4704C102.435 25.4226 102.345 25.4051 102.258 25.4214C102.17 25.4376 102.093 25.4865 102.04 25.5581C101.842 25.7632 101.571 26.1527 101.297 26.3831C101.253 26.3785 101.21 26.369 101.168 26.3549C100.961 26.2687 100.992 25.9491 101.141 25.7811C101.29 25.6131 101.51 25.5194 101.645 25.3351C101.708 25.2257 101.778 25.1209 101.856 25.0215C101.955 24.9361 102.074 24.8764 102.202 24.8475C103.059 24.5948 103.966 24.5606 104.84 24.7479C104.988 24.7806 105.158 24.8401 105.202 24.9843C105.217 25.0576 105.212 25.1333 105.189 25.2043Z" fill="#D91167"/>
<path opacity="0.1" d="M116.431 53.4264C116.645 53.4978 116.876 53.6018 116.949 53.8159L115.228 53.3789L114.337 53.1514C114.179 53.1113 113.615 53.0652 113.511 52.9418C113.362 52.7604 113.89 52.8853 113.985 52.8987C114.273 52.9418 114.561 52.9864 114.848 53.0384C115.389 53.135 115.909 53.2941 116.431 53.4264Z" fill="black"/>
<path opacity="0.1" d="M117.098 54.9502C116.949 54.8506 116.523 54.8625 116.34 54.8193C116.073 54.7554 115.81 54.6707 115.547 54.5889C115.013 54.415 114.484 54.2173 113.936 54.0894C113.835 54.0671 113.49 54.0612 113.506 53.9333C113.523 53.8055 113.851 53.7609 113.933 53.755C114.419 53.7193 115.025 53.9467 115.477 54.1088C116.052 54.3151 116.598 54.5981 117.098 54.9502Z" fill="black"/>
<path opacity="0.1" d="M116.007 52.0677C115.462 51.9191 114.967 51.5801 114.405 51.5147C114.259 51.5203 114.115 51.4763 113.997 51.3898C113.931 51.3249 113.885 51.2423 113.864 51.152C114.24 51.1327 114.677 51.2917 115.019 51.4419C115.207 51.5226 115.388 51.6191 115.56 51.7303C115.685 51.8061 115.872 52.0246 116.007 52.0677Z" fill="black"/>
<path d="M126.403 38.7572C126.311 39.3752 126.445 40.0058 126.779 40.5335C127.114 41.0612 127.627 41.4507 128.225 41.6307C128.152 41.983 127.788 42.1777 127.531 42.429C127.169 42.7813 126.981 43.309 126.553 43.5766C126.076 43.8739 125.463 43.7579 124.919 43.6331C124.869 43.6275 124.824 43.6037 124.791 43.5662C124.78 43.5484 124.772 43.5288 124.767 43.5082C124.587 42.8497 124.47 42.1465 124.654 41.4865C124.803 40.9246 125.16 40.4459 125.445 39.9494C125.73 39.4529 125.757 38.9207 126.403 38.7572Z" fill="#D91167"/>
<path d="M113.117 30.2333C112.542 30.2751 111.983 30.4453 111.482 30.7313C111.149 30.9215 110.808 31.1772 110.427 31.1311C110.203 31.1059 109.981 30.9825 109.763 31.042C109.64 31.0916 109.525 31.1598 109.423 31.2441C109.371 31.2855 109.309 31.3128 109.243 31.3232C109.178 31.3336 109.11 31.3269 109.048 31.3036L108.9 33.361C108.843 34.1429 108.788 34.9412 108.975 35.7038C109.072 36.0932 109.284 36.447 109.308 36.8424C109.332 37.2379 109.296 37.6437 109.325 38.0436C109.351 38.4137 109.433 38.7779 109.454 39.1481C109.495 39.8467 109.323 40.5395 109.157 41.2188C108.905 42.2208 108.754 43.245 108.265 44.1518C108.128 44.403 107.968 44.6587 107.968 44.9441C107.968 44.9798 107.968 45.014 107.977 45.0482C107.828 45.1299 107.69 45.2072 107.564 45.2875C107.281 45.4703 106.98 45.674 106.864 45.9906C106.77 46.2478 106.813 46.5421 106.7 46.7904C106.587 47.0386 106.329 47.2155 106.272 47.4831C106.232 47.6779 106.309 47.883 106.272 48.0777C106.239 48.1785 106.211 48.2813 106.191 48.3854C106.176 48.6084 106.364 48.7883 106.552 48.9102C106.825 49.0902 107.126 49.2229 107.443 49.3026L108.33 45.7795C109.139 44.2835 109.812 42.7178 110.341 41.1014C110.492 40.573 110.687 40.0579 110.922 39.5613C111.09 39.2804 111.239 38.9884 111.368 38.6872C111.503 38.3126 111.516 37.9068 111.582 37.5114C111.659 37.0499 111.776 36.5958 111.931 36.1542C112.091 35.677 112.277 35.2013 112.31 34.7003C112.359 33.9838 112.099 33.2272 112.375 32.5642C112.493 32.316 112.645 32.0862 112.829 31.8818C113.212 31.4121 113.561 30.9201 113.945 30.4503C113.745 30.2377 113.414 30.2154 113.117 30.2333Z" fill="#D91167"/>
<g opacity="0.1">
<path opacity="0.1" d="M117.304 22.0114L117.119 22.0247L117.098 22.0396C117.167 22.0368 117.237 22.0273 117.304 22.0114Z" fill="black"/>
<path opacity="0.1" d="M120.705 25.0974C120.674 25.393 120.61 25.6841 120.514 25.9656C120.453 26.1364 120.403 26.3112 120.366 26.4888C120.336 26.6613 120.333 26.8367 120.306 27.0091C120.273 27.2327 120.196 27.4474 120.079 27.6407C119.962 27.834 119.807 28.0018 119.624 28.1344C119.572 28.1769 119.507 28.2005 119.44 28.2013C119.324 28.1879 119.253 28.0527 119.21 27.9308C118.973 27.2484 119.03 26.4145 118.594 25.8704C118.396 25.6509 118.157 25.4726 117.89 25.3457C117.781 25.2754 117.659 25.2293 117.53 25.2104C117.342 25.2205 117.161 25.2868 117.01 25.4007C116.697 25.6111 116.349 25.7651 115.982 25.8556C115.799 25.8989 115.609 25.9009 115.425 25.8613C115.241 25.8216 115.068 25.7415 114.919 25.6266C114.714 25.4572 114.564 25.203 114.337 25.0707C114.11 24.9384 113.872 24.9458 113.647 24.8551C113.507 24.7952 113.382 24.7045 113.282 24.5897C113.182 24.475 113.109 24.3391 113.068 24.1921C113.063 24.1736 113.059 24.1547 113.056 24.1356C113.019 24.3016 113.023 24.4741 113.068 24.6381C113.109 24.785 113.182 24.9209 113.282 25.0357C113.382 25.1505 113.507 25.2412 113.647 25.3011C113.872 25.3917 114.124 25.3932 114.337 25.5166C114.549 25.64 114.714 25.9031 114.919 26.0726C115.068 26.1874 115.241 26.2676 115.425 26.3072C115.609 26.3468 115.799 26.3449 115.982 26.3015C116.349 26.211 116.697 26.0571 117.01 25.8466C117.161 25.7328 117.342 25.6665 117.53 25.6564C117.659 25.6753 117.781 25.7214 117.89 25.7916C118.154 25.9211 118.389 26.1008 118.584 26.3208C119.019 26.8649 118.963 27.6989 119.199 28.3812C119.242 28.5046 119.314 28.6384 119.43 28.6517C119.501 28.6521 119.57 28.6268 119.624 28.5804C119.808 28.4474 119.963 28.2789 120.081 28.0848C120.198 27.8908 120.275 27.6751 120.308 27.4506C120.335 27.2782 120.337 27.1028 120.367 26.9303C120.405 26.7527 120.454 26.5779 120.516 26.4071C120.661 26.0067 120.728 25.5824 120.713 25.1569C120.71 25.139 120.708 25.1182 120.705 25.0974Z" fill="black"/>
</g>
<path d="M111.302 37.0254L111.201 38.3826C111.187 38.5669 110.834 42.9552 108.237 48.0838C106.008 52.4825 101.67 58.2116 93.4807 61.4315C92.8417 61.6842 92.1784 61.9201 91.4909 62.1391L90.7241 59.7309C92.6492 59.1248 94.5035 58.3135 96.2551 57.3108C100.429 54.8996 103.675 51.4583 105.938 47.0298C107.139 44.6721 107.994 42.1539 108.479 39.5525H99.1617V37.0254H111.302Z" fill="#FE9738"/>
<path opacity="0.1" d="M92.4776 61.4329C100.666 58.2131 105.005 52.4854 107.232 48.0867C109.83 42.9581 110.183 38.5728 110.197 38.3855L110.298 37.0283H111.338L111.237 38.3855C111.224 38.5699 110.87 42.9581 108.272 48.0867C106.043 52.4854 101.706 58.2131 93.5178 61.4329C92.8788 61.6856 92.2151 61.922 91.5266 62.142L91.4255 61.8254C91.7841 61.6975 92.1348 61.5667 92.4776 61.4329Z" fill="white"/>
<path d="M76.0839 59.7309L75.3171 62.1391C74.6286 61.9191 73.9649 61.6827 73.3259 61.43C65.1379 58.2101 60.7988 52.4825 58.5712 48.0838C55.9737 42.9552 55.62 38.5699 55.6066 38.3826L55.5056 37.0254H67.6404V39.5525H58.3216C58.8087 42.1542 59.667 44.6724 60.8701 47.0298C63.1333 51.4583 66.3773 54.8996 70.5515 57.3093C72.3033 58.313 74.1581 59.1249 76.0839 59.7309Z" fill="#FE9738"/>
<path opacity="0.1" d="M74.3275 61.4329C66.1395 58.2131 61.8004 52.4854 59.5728 48.0867C56.9753 42.9581 56.6216 38.5728 56.6082 38.3855L56.5072 37.0283H55.467L55.568 38.3855C55.5814 38.5699 55.9351 42.9581 58.5326 48.0867C60.7616 52.4854 65.0993 58.2131 73.2873 61.4329C73.9262 61.6856 74.59 61.922 75.2785 62.142L75.3796 61.8254C75.0219 61.6975 74.6712 61.5667 74.3275 61.4329Z" fill="white"/>
<path d="M97.4216 83.0101V96.6372H69.385V83.0101L70.2766 81.8209C79.3621 78.5951 81.2033 70.1827 81.5703 66.8543C81.625 66.3944 81.6562 65.932 81.6639 65.4689H85.1308C85.1386 65.932 85.1698 66.3944 85.2244 66.8543C85.5974 70.1827 87.4386 78.598 96.5181 81.8209L97.4216 83.0101Z" fill="#FE9738"/>
<path opacity="0.1" d="M97.4216 83.0101H69.385V84.7197H97.4216V83.0101Z" fill="black"/>
<path opacity="0.1" d="M71.7626 81.8209C80.8481 78.5951 82.6893 70.1827 83.0563 66.8543C83.111 66.3944 83.1422 65.932 83.15 65.4689H81.6639C81.6562 65.932 81.625 66.3944 81.5703 66.8543C81.1973 70.1827 79.3562 78.598 70.2766 81.8209L69.385 83.0101V96.6372H70.871V83.0101L71.7626 81.8209Z" fill="white"/>
<path opacity="0.1" d="M65.1261 37.0254H67.6404V39.5525H65.349C65.2588 38.7201 65.1845 37.8777 65.1261 37.0254Z" fill="black"/>
<path opacity="0.1" d="M76.0839 59.7309L75.3171 62.1391C74.6286 61.9191 73.9648 61.6827 73.3259 61.43C72.2747 60.1459 71.3459 58.7664 70.5515 57.3093C72.3032 58.3131 74.1581 59.125 76.0839 59.7309Z" fill="black"/>
<path opacity="0.1" d="M90.7226 59.7308C92.6477 59.1247 94.502 58.3134 96.2536 57.3107C95.4587 58.7679 94.5299 60.1479 93.4792 61.4329C92.8402 61.6856 92.1769 61.9214 91.4894 62.1405L90.7226 59.7308Z" fill="black"/>
<path opacity="0.1" d="M101.679 37.0254C101.621 37.8777 101.546 38.7201 101.456 39.5525H99.1661V37.0254H101.679Z" fill="black"/>
<path opacity="0.1" d="M85.2304 66.8543C84.0236 67.0882 82.7831 67.0882 81.5763 66.8543C81.6309 66.3944 81.6622 65.932 81.6699 65.4689H85.1368C85.1445 65.932 85.1758 66.3944 85.2304 66.8543Z" fill="black"/>
<path d="M65.4233 32.8392C65.4872 51.5786 73.5116 66.7324 83.404 66.7324C93.2964 66.7324 101.319 51.5786 101.385 32.8392H65.4233Z" fill="#FE9738"/>
<path opacity="0.1" d="M68.6182 32.8392H65.4233C65.4872 51.5786 73.5116 66.7324 83.404 66.7324C83.9393 66.7315 84.4736 66.6862 85.0015 66.5972C75.8566 65.069 68.6791 50.5588 68.6182 32.8392Z" fill="white"/>
<path d="M92.9382 88.2264H73.8682V93.132H92.9382V88.2264Z" fill="#3F3D56"/>
<path opacity="0.1" d="M74.7598 88.8954H92.9382V88.2264H73.8682V93.132H74.7598V88.8954Z" fill="white"/>
<path d="M55.253 50.932C54.9098 50.8175 52.8888 49.218 52.7357 48.494C52.5827 47.7701 53.8042 41.0256 53.8042 41.0256C53.8042 41.0256 53.6912 41.0256 53.507 41.0033V40.8948L53.7581 32.035C53.7581 32.035 54.7879 26.0889 52.8427 26.4352C50.8975 26.7816 52.1175 32.035 52.1175 32.035C52.1175 32.035 51.8961 34.7019 51.7401 35.5016C51.5915 36.2732 50.9109 39.4157 51.3745 40.3924C51.3915 40.4271 51.4104 40.4608 51.431 40.4935C51.431 40.4935 51.5083 43.8456 50.6687 44.3035C49.8677 44.739 49.5348 46.9317 49.5066 47.1279L49.4635 47.1101C49.2244 46.9604 49.0144 46.7685 48.8438 46.5437C48.826 46.5214 48.8126 46.4976 48.7963 46.4738C49.343 45.8585 49.6377 45.0596 49.6214 44.2365C49.6052 43.4134 49.2792 42.6267 48.7086 42.0335C48.4433 41.7578 48.132 41.5305 47.7888 41.3616C47.7788 41.0776 47.7116 40.7985 47.5911 40.541C47.2048 39.7145 45.0649 38.6338 43.5447 38.6085C42.8433 38.5877 42.2682 38.7869 42.0587 39.3354C41.9517 39.6134 41.9844 39.9301 41.9398 40.2185C41.8507 40.8131 41.4687 41.2784 40.9784 41.6485C40.7803 41.4274 40.5663 41.2212 40.3379 41.0316C39.8416 40.651 38.8519 39.3964 38.8519 39.3964C38.8519 39.3964 35.7624 36.1959 35.5336 35.3188C35.3048 34.4417 32.2183 29.1749 31.5318 30.0921C30.8452 31.0093 33.896 35.0066 33.896 35.0066C33.896 35.0066 34.4756 36.459 34.9214 36.9495C35.3672 37.4401 38.785 42.4052 38.785 42.4052L38.9485 42.7441C38.2263 43.1246 37.5665 43.6093 37.3332 44.3644C36.9914 45.4764 37.7388 46.5942 38.256 47.6348C39.2635 49.6654 39.4076 52.255 38.1074 54.1102C36.9423 55.7484 34.9214 56.5273 33.0297 57.2082C33.9433 57.9258 35.0782 58.3027 36.2395 58.274C35.8026 59.5406 34.2541 59.9598 32.9346 60.1946C33.627 60.8606 34.6182 61.1029 35.5693 61.2501C36.0351 61.3294 36.507 61.3667 36.9795 61.3616H37.0954L37.2113 61.3526C37.3724 61.342 37.5327 61.3216 37.6913 61.2917C38.3778 61.152 39.0451 60.7774 39.3958 60.1708C39.693 59.652 39.797 58.9444 40.3364 58.6843C40.4769 58.6209 40.6282 58.585 40.7822 58.5788H40.7659C40.8669 58.5788 40.9709 58.5788 41.072 58.5788L43.3203 58.6011C43.4139 58.6011 43.5105 58.6011 43.6071 58.6011C44.2417 58.5862 44.9193 58.4762 45.2417 57.9514C45.3744 57.6966 45.4442 57.4137 45.4453 57.1264C45.4929 56.4143 45.4453 55.6815 45.4646 54.9635C45.6563 56.2702 45.857 58.3067 45.3799 59.0589C44.9924 59.6289 44.5227 60.1383 43.9861 60.5707C43.8511 60.6841 43.7276 60.8106 43.6175 60.9483C43.5447 61.0003 43.5016 61.0286 43.5016 61.0286L43.4555 61.1668C43.2862 61.4238 43.1634 61.7086 43.093 62.0082C43.067 62.0852 43.0574 62.1667 43.0647 62.2475C43.1167 62.3531 42.6932 62.7886 42.8166 62.9715C41.7585 64.2128 41.5579 66.0932 41.5579 66.0932L39.6261 69.0277C38.6334 71.6366 37.1474 71.9041 37.1474 71.9041C37.1474 71.9041 33.6568 69.5613 33.5617 69.4469C33.4666 69.3324 32.1321 68.7601 32.1321 68.7601C31.9748 68.4841 31.7346 68.2646 31.4456 68.1328C30.9879 67.9425 30.9492 67.2408 30.9492 67.2408C30.8928 65.5834 29.9194 65.457 29.9194 65.457C29.1348 65.3901 28.536 65.5298 28.0753 65.7855L27.9356 65.7959C27.261 65.8509 26.4496 65.9119 25.558 65.9713C23.0778 66.1349 22.4879 67.7418 22.4879 67.7418C22.4879 67.7418 22.1832 68.0852 22.583 68.4568C22.9827 68.8285 25.5416 68.4568 25.6501 68.4479C25.4551 68.4691 25.2579 68.4555 25.0676 68.4078C25.4703 68.3929 26.0246 68.3781 26.4971 68.3781H26.6116C26.5818 68.6287 26.5674 68.8809 26.5685 69.1332C26.5685 69.6089 27.8836 69.9137 27.8836 69.9137L31.8884 73.4814C31.8884 73.4814 34.4057 74.6067 36.0076 76.2255C37.6096 77.8444 39.0257 76.447 39.0257 76.447C40.7213 76.0278 45.5999 70.1277 45.6043 70.1218C45.6043 70.2942 45.7069 76.0323 45.9015 77.1843C45.9093 77.2428 45.9237 77.3002 45.9446 77.3553C46.1735 77.8503 45.8673 79.2031 45.7351 79.7739C45.6507 80.2516 45.6184 80.7371 45.6385 81.2218C45.6385 81.2218 43.8092 88.2085 43.9608 88.8225C44.1124 89.4364 42.9696 92.2891 42.9696 92.2891V94.6676L43.1687 94.6572C43.1428 94.6955 43.119 94.7352 43.0974 94.7761L43.084 94.8014C43.084 94.8014 44.3041 95.0675 45.1243 94.9917C45.9446 94.9158 47.3534 95.6234 47.3534 95.6234C47.3534 95.6234 47.8304 95.8494 49.2986 95.9445C50.7667 96.0397 50.7667 95.2964 50.7667 95.2964C50.5988 94.284 48.2792 93.9451 48.2078 93.9347C48.0206 93.8173 47.8452 93.6894 47.7011 93.5794L47.6714 93.5557C47.6811 93.5334 47.6895 93.5105 47.6966 93.4873C47.9448 92.4764 46.5717 92.0379 46.5717 92.0379V91.7911C47.4633 91.3333 47.6402 88.1907 47.6402 88.1907C47.6402 88.1907 48.9776 84.3049 49.1648 83.6568C49.3521 83.0086 49.1648 82.0379 49.1648 82.0379L49.2986 81.1995C49.2986 81.1995 49.5854 80.6287 49.5854 80.5142C49.6225 80.2241 49.7341 79.9486 49.9093 79.7144C50.1188 79.4662 49.6805 78.876 49.6805 78.876L50.0624 77.886V76.7993L50.954 72.857C50.954 72.857 51.8887 68.2651 51.5647 66.7622C51.2408 65.2593 51.9466 64.4952 51.9466 64.4952C51.883 64.5287 51.8175 64.5584 51.7505 64.5844C51.8397 64.3781 51.9166 64.1666 51.9808 63.9511L53.9869 64.1994V64.2291H54.7106C54.7106 64.2291 54.4818 61.4047 54.4818 60.266C54.4818 59.1273 55.253 55.0408 55.253 55.0408C55.253 55.0408 55.5963 51.0464 55.253 50.932ZM46.3473 47.6348C46.3473 47.7463 46.3369 47.8623 46.3295 47.9812L46.2894 48.0421L46.2151 47.9797L46.1244 48.1209L46.0977 48.1343C45.9015 48.0332 45.8005 47.4549 45.6593 47.5798L45.64 47.5962C45.6088 47.5605 45.5776 47.5501 45.5449 47.5798L45.5152 47.6051C45.5152 47.562 45.5152 47.5174 45.5152 47.4728C45.787 47.5428 46.0666 47.5782 46.3473 47.5783C46.3488 47.5977 46.3473 47.617 46.3473 47.6348ZM53.0195 60.7878H53.0626L52.9913 60.9751C53.0002 60.9126 53.0091 60.8517 53.0195 60.7878ZM45.695 94.4981L45.4215 94.4297L45.5701 94.4045L45.7083 94.4951L45.7247 94.507L45.695 94.4981ZM48.4887 94.0982C48.398 94.0507 48.3059 93.9957 48.2167 93.9392C48.2465 93.9555 48.3639 94.0165 48.4887 94.0982Z" fill="url(#paint1_linear_56_507)"/>
<path d="M54.0062 57.9796L52.2066 62.6711H52.6435L50.951 64.0209L54.0062 64.4015V57.9796Z" fill="#F86D70"/>
<path opacity="0.1" d="M54.0062 57.9796L52.2066 62.6711L51.7534 62.5492L50.951 64.0209L54.0062 64.4015V57.9796Z" fill="black"/>
<path d="M51.1843 60.981H54.0062L55.042 52.4557H51.1843V60.981Z" fill="#F86D70"/>
<path opacity="0.1" d="M51.1843 60.981H54.0062L55.042 52.4557H51.1843V60.981Z" fill="black"/>
<path d="M45.6726 54.4744L46.2819 54.3718L47.6817 54.134C47.6817 54.134 51.8856 53.1855 52.7535 53.1082C53.2792 53.0388 53.7919 52.8926 54.2751 52.6742C54.5025 52.5761 54.6466 52.5017 54.6466 52.5017L53.1324 49.7353L50.783 47.993C50.783 47.993 49.297 47.6764 48.6684 46.8112C48.5281 46.6251 48.4368 46.4067 48.4028 46.1761C48.3688 45.9454 48.3932 45.7099 48.4737 45.4912C48.8571 44.302 46.1838 46.6284 46.1838 46.6284C46.1838 46.6284 46.209 47.1859 46.1838 47.8964C46.1838 48.0362 46.1704 48.1818 46.16 48.3305C46.16 48.4286 46.1466 48.5267 46.1362 48.6278C46.0708 49.3339 45.9371 50.0608 45.6726 50.4949C45.0262 51.5563 45.6726 54.4744 45.6726 54.4744Z" fill="#FBBEBE"/>
<path opacity="0.1" d="M46.1838 47.9559H46.2432C46.3502 47.9559 46.4364 47.7285 46.5405 47.7181C47.3771 47.6378 48.1409 47.4624 48.6714 46.8692C48.5315 46.6832 48.4404 46.4651 48.4064 46.2347C48.3724 46.0044 48.3966 45.7692 48.4767 45.5507C48.8601 44.3614 46.1868 46.6864 46.1868 46.6864C46.1868 46.6864 46.215 47.2453 46.1838 47.9559Z" fill="black"/>
<path d="M42.9295 44.5845C42.9293 45.0124 43.0134 45.4362 43.177 45.8317C43.3406 46.2271 43.5806 46.5864 43.8831 46.889C44.1856 47.1916 44.5448 47.4316 44.94 47.5953C45.3353 47.759 45.759 47.8432 46.1868 47.843C46.2938 47.843 46.3993 47.843 46.5048 47.8281C47.1325 47.7665 47.7287 47.524 48.2213 47.1299C48.7138 46.7359 49.0814 46.2073 49.2794 45.6084C49.4774 45.0094 49.4974 44.3658 49.3369 43.7557C49.1763 43.1456 48.8422 42.5952 48.3751 42.1714C47.9079 41.7476 47.3278 41.4686 46.7052 41.3682C46.0826 41.2678 45.4442 41.3504 44.8676 41.6059C44.291 41.8614 43.8009 42.2788 43.4568 42.8076C43.1128 43.3363 42.9296 43.9536 42.9295 44.5845Z" fill="#FBBEBE"/>
<path d="M41.9294 39.6387C41.8224 39.9152 41.8551 40.2244 41.812 40.5173C41.653 41.5742 40.5786 42.2075 39.6068 42.6505C38.6349 43.0934 37.5382 43.6182 37.2292 44.6395C36.8903 45.744 37.6304 46.8514 38.1445 47.8876C39.1461 49.9063 39.2888 52.481 37.9959 54.3273C36.8473 55.9625 34.8456 56.7384 32.9613 57.4193C33.8682 58.133 34.9953 58.5083 36.1488 58.4807C35.7164 59.7398 34.1784 60.1575 32.8677 60.3894C33.5557 61.0524 34.541 61.2932 35.4846 61.4389C36.1726 61.5459 36.8785 61.6158 37.565 61.4775C38.2515 61.3393 38.9024 60.9662 39.2561 60.3626C39.5533 59.8468 39.6543 59.1437 40.1908 58.8835C40.4329 58.7882 40.6938 58.75 40.9531 58.772L43.1821 58.7958C43.8761 58.7958 44.6979 58.7423 45.056 58.1492C45.1881 57.8958 45.2574 57.6144 45.2581 57.3286C45.3547 55.8658 45.0738 54.3198 45.6757 52.9849C45.857 52.5821 44.6934 51.9443 44.8153 51.5177C45.2343 50.0505 45.3398 48.8954 45.3354 47.3687C45.3354 46.1869 46.1036 45.1687 46.7382 44.1712C47.3727 43.1737 47.9032 41.9146 47.4024 40.8443C46.8377 39.6506 42.5966 37.9158 41.9294 39.6387Z" fill="#332F38"/>
<path d="M44.8969 94.07L45.4646 94.4461L45.5523 94.5041L45.5686 94.5145L46.2418 94.9604L47.814 95.225L49.196 95.1299C49.196 95.1299 49.5942 94.2974 48.9686 94.3168C48.7682 94.3065 48.5729 94.25 48.398 94.1517L48.3118 94.1086C48.2211 94.0611 48.1305 94.0076 48.0413 93.9511C47.8556 93.8336 47.6802 93.7058 47.5391 93.5973C47.331 93.4367 47.1928 93.3148 47.1928 93.3148L44.8969 94.07Z" fill="#FBBEBE"/>
<path opacity="0.1" d="M45.472 94.4461L45.5597 94.504L45.5761 94.5145L46.2492 94.9604L47.8214 95.225L49.2034 95.1299C49.2034 95.1299 49.6017 94.2974 48.976 94.3167C48.7757 94.3065 48.5804 94.25 48.4054 94.1517C48.5154 94.238 48.6075 94.3316 48.6164 94.4104C48.6417 94.623 47.5941 95.005 47.5941 95.005L46.117 94.6141C46.117 94.6141 45.8658 94.5427 45.5226 94.4535L45.4899 94.4446L45.472 94.4461Z" fill="black"/>
<path d="M42.9458 94.8089C42.9458 94.8089 44.1569 95.0735 44.9712 94.9977C45.7856 94.9219 47.1884 95.6235 47.1884 95.6235C47.1884 95.6235 47.6624 95.8465 49.1202 95.9416C50.578 96.0367 50.578 95.2965 50.578 95.2965C50.4115 94.2901 48.1082 93.9586 48.0369 93.9437C48.0651 93.9586 48.1855 94.0195 48.3073 94.1013C48.4708 94.2083 48.6476 94.3481 48.661 94.461C48.6863 94.6721 47.6386 95.0556 47.6386 95.0556L46.1615 94.6662C46.1615 94.6662 45.9104 94.5933 45.5671 94.5041H45.5344C45.0255 94.3655 44.5083 94.2587 43.986 94.1845C43.35 94.1162 43.0246 94.6573 42.9577 94.7791C42.9528 94.7887 42.9489 94.7986 42.9458 94.8089Z" fill="#3F3D56"/>
<path d="M23.8564 68.0763L24.4999 68.5699C24.4999 68.5699 24.6871 68.5609 24.9665 68.552H25.0556C25.4554 68.5372 26.0067 68.5223 26.4748 68.5223C26.7774 68.5087 27.0806 68.5256 27.3798 68.5728C27.7007 68.6858 28.2714 66.7355 28.2714 66.7355L27.6264 66.5868L27.4125 66.5363L27.2639 66.5006L26.7393 66.3772L25.1493 66.5586L24.0318 67.278L23.8564 68.0763Z" fill="#FBBEBE"/>
<path opacity="0.1" d="M23.8564 68.0763L24.4999 68.5699C24.4999 68.5699 24.6871 68.561 24.9665 68.552C24.8383 68.5026 24.7326 68.4079 24.6693 68.2859C24.2532 67.1309 26.3173 66.6373 26.3173 66.6373L27.2787 66.5957L27.466 66.5868H27.6146L27.4006 66.5363L27.252 66.5006L26.7274 66.3772L25.1374 66.5586L24.0199 67.2781L23.8564 68.0763Z" fill="black"/>
<path d="M22.5874 68.598C22.9767 68.9578 25.5267 68.598 25.6337 68.5891C25.4402 68.6109 25.2443 68.5973 25.0556 68.549C24.9622 68.5323 24.8738 68.4949 24.7966 68.4396C24.7195 68.3843 24.6557 68.3125 24.6098 68.2294C24.1938 67.0729 26.2578 66.5808 26.2578 66.5808L27.2193 66.5392L27.405 66.5303L29.7425 66.4292L29.8555 65.7855C29.8555 65.7855 29.0961 65.8569 27.9043 65.952C27.2341 66.007 26.4183 66.068 25.5371 66.1259C23.0748 66.2895 22.4893 67.8875 22.4893 67.8875C22.4893 67.8875 22.1906 68.2294 22.5874 68.598Z" fill="#3F3D56"/>
<path d="M51.1858 40.6956C51.2016 40.7309 51.2205 40.7647 51.2422 40.7967L51.8099 41.6292L53.287 41.7778L53.3034 41.1921L53.5515 32.3799C53.5515 32.3799 54.5739 26.4694 52.6421 26.8098C50.7103 27.1502 51.9228 32.3799 51.9228 32.3799C51.9228 32.3799 51.7029 35.0319 51.5484 35.8287C51.3983 36.5987 50.7251 39.7294 51.1858 40.6956Z" fill="#FBBEBE"/>
<path d="M47.8705 62.5835L48.291 63.303L49.2316 64.9129C49.2316 64.9129 50.9376 65.5388 51.3745 65.0616C51.6137 64.8014 51.8723 63.8931 52.0536 63.1291C52.2022 62.5107 52.3017 61.9889 52.3017 61.9889L47.8705 62.5835Z" fill="#FBBEBE"/>
<path opacity="0.1" d="M47.8705 62.5835L48.291 63.303C48.3174 63.2803 48.3413 63.2549 48.3623 63.2272C48.8378 62.6207 50.9316 63.0979 52.0536 63.1365C52.2022 62.5181 52.3017 61.9963 52.3017 61.9963L47.8705 62.5835Z" fill="black"/>
<path opacity="0.1" d="M26.4748 68.5193C26.7774 68.5056 27.0806 68.5226 27.3798 68.5698C27.7008 68.6828 28.2714 66.7324 28.2714 66.7324L27.4125 66.5303L29.75 66.4292L29.8629 65.7855C29.8629 65.7855 29.1036 65.8569 27.9118 65.952C27.6655 66.0939 27.4458 66.2775 27.2624 66.4946L27.2267 66.5392C26.7289 67.1502 26.5446 67.938 26.4748 68.5193Z" fill="black"/>
<path opacity="0.1" d="M44.8969 94.0701L45.5523 94.5041C46.5301 94.3272 47.4232 94.0493 47.5287 93.6122C47.5292 93.6053 47.5292 93.5983 47.5287 93.5914C47.3206 93.4309 47.1824 93.309 47.1824 93.309L44.8969 94.0701Z" fill="black"/>
<path opacity="0.1" d="M42.9592 94.7835C43.8227 94.7405 44.683 94.6482 45.5359 94.507C45.0265 94.3672 44.5089 94.2595 43.986 94.1844C43.3515 94.116 43.0261 94.6571 42.9592 94.7835Z" fill="black"/>
<path d="M26.5461 69.2699C26.5461 69.7441 27.8523 70.0474 27.8523 70.0474L31.8304 73.5898C31.8304 73.5898 34.3299 74.7077 35.9199 76.3176C37.5099 77.9275 38.9127 76.5451 38.9127 76.5451C40.5979 76.1288 45.4512 70.2555 45.4512 70.2555C45.4512 70.2555 45.5641 76.9628 45.7915 77.4548C46.0189 77.9469 45.7157 79.2922 45.5835 79.8615C45.5 80.3364 45.4681 80.8188 45.4883 81.3005C45.4883 81.3005 43.671 88.2531 43.8225 88.8596C43.9741 89.4661 42.8373 92.3084 42.8373 92.3084V94.6765C42.8373 94.6765 47.2879 94.5055 47.5331 93.5021C47.7783 92.4987 46.4171 92.0616 46.4171 92.0616V91.8149C47.3087 91.36 47.4766 88.2352 47.4766 88.2352C47.4766 88.2352 48.8036 84.3702 48.9924 83.7266C49.1811 83.0829 48.9924 82.1151 48.9924 82.1151L49.1246 81.2827C49.1246 81.2827 49.4085 80.7133 49.4085 80.6004C49.4456 80.3119 49.5566 80.0379 49.7309 79.8051C49.939 79.5583 49.5036 78.9711 49.5036 78.9711L49.8825 77.9855V76.9063L50.7741 72.9848C50.7741 72.9848 51.7029 68.4181 51.3804 66.9212C51.0579 65.4242 51.7593 64.6676 51.7593 64.6676C50.2391 65.4644 49.4724 63.6909 49.2212 62.9283C49.1573 62.7321 49.1261 62.6013 49.1261 62.6013C49.1261 62.6013 47.0383 61.8312 45.0946 62.0156C44.6998 62.0476 44.3108 62.13 43.937 62.2608C41.7778 63.0383 41.4375 66.2582 41.4375 66.2582L39.525 69.1763C38.5397 71.7718 37.0626 72.0364 37.0626 72.0364C37.0626 72.0364 33.5973 69.707 33.4962 69.5925C33.3952 69.478 32.0756 68.9102 32.0756 68.9102C31.9196 68.6354 31.6809 68.4169 31.3935 68.2858C30.9388 68.0955 30.9016 67.3939 30.9016 67.3939C30.8452 65.7453 29.8793 65.61 29.8793 65.61C26.5268 65.3306 26.5461 68.7972 26.5461 69.2699Z" fill="#332F38"/>
<path d="M45.8257 60.0073H47.8704V53.6612H45.8257V60.0073Z" fill="#F86D70"/>
<path opacity="0.1" d="M45.8257 60.0073H47.8704V53.6612H45.8257V60.0073Z" fill="black"/>
<path opacity="0.1" d="M51.1842 40.6823C51.1839 40.6867 51.1839 40.6912 51.1842 40.6956C51.2001 40.7309 51.2189 40.7647 51.2407 40.7967L51.8084 41.6292L53.2855 41.7778L53.3018 41.1921C52.8412 41.1565 51.792 41.0301 51.1842 40.6823Z" fill="black"/>
<path d="M51.2423 40.7968C51.2423 40.7968 51.3181 44.1296 50.4844 44.5845C49.6507 45.0394 49.3268 47.4089 49.3268 47.4089C49.3268 47.4089 51.853 49.0709 52.4162 49.8022C52.9794 50.5336 54.2723 52.2759 54.0063 52.6921C53.7403 53.1083 54.6512 55.0037 54.6512 55.0037C54.6512 55.0037 52.9839 58.4138 53.3628 59.7026C53.7417 60.9915 53.7789 64.4001 53.7789 64.4001H54.4996C54.4996 64.4001 54.2723 61.5965 54.2723 60.4593C54.2723 59.3221 55.0286 55.2683 55.0286 55.2683C55.0286 55.2683 55.3704 51.2903 55.0286 51.1773C54.6869 51.0643 52.6807 49.4722 52.5292 48.7513C52.3776 48.0303 53.5902 41.3185 53.5902 41.3185C53.5902 41.3185 52.0373 41.2516 51.2423 40.7968Z" fill="#FF2080"/>
<path opacity="0.1" d="M45.7871 53.0727C45.8562 53.5364 46.025 53.9797 46.2819 54.3719L47.6817 54.134C47.6817 54.134 51.8857 53.1856 52.7535 53.1083C53.2792 53.0389 53.7919 52.8926 54.2752 52.6743C53.9421 51.4936 53.2919 50.4267 52.3954 49.5897L51.8619 49.0947C51.0758 48.3646 50.1647 47.782 49.1722 47.3748C49.2346 47.4268 53.6451 51.1937 52.6792 51.9325C51.7133 52.6713 49.1128 50.8726 49.1128 50.8726L46.1556 48.3306L46.0486 48.2384L45.8777 48.5045C45.9647 48.5403 46.0495 48.581 46.1318 48.6264C47.1397 49.1798 47.8876 50.1097 48.2122 51.213C48.82 53.257 45.7871 53.0727 45.7871 53.0727Z" fill="black"/>
<path d="M44.8776 62.5449C44.8776 62.5449 47.6802 64.0983 48.3608 63.2272C48.5094 63.0354 48.823 62.9522 49.2138 62.9299C49.1499 62.7337 49.1187 62.6028 49.1187 62.6028C49.1187 62.6028 47.0309 61.8328 45.0872 62.0172C44.9594 62.3382 44.8776 62.5449 44.8776 62.5449Z" fill="#444053"/>
<path d="M46.1675 48.2413L49.2317 50.8785C49.2317 50.8785 51.8218 52.6831 52.7981 51.9384C53.7744 51.1936 49.2896 47.3792 49.2896 47.3792C50.28 47.7876 51.1901 48.3684 51.9778 49.0946L52.5113 49.5896C53.9141 50.8904 54.2306 50.8904 54.2782 52.8021C54.2901 53.2733 54.1296 53.9497 54.0062 54.0716C53.5515 54.5175 53.2335 57.7567 53.3033 58.1358C53.3732 58.5149 52.4563 61.7867 52.7535 62.6965C53.0507 63.6063 49.0385 62.2416 48.3594 63.1142C47.6803 63.9868 44.8776 62.4319 44.8776 62.4319C44.8776 62.4319 46.4305 58.4524 46.8094 58.1878C47.1884 57.9232 47.6431 55.8762 46.8094 54.9293C45.9758 53.9824 45.9015 53.0726 45.9015 53.0726C45.9015 53.0726 48.933 53.2599 48.3252 51.2159C48.1542 50.6235 47.8576 50.0749 47.4555 49.6075C47.0534 49.1401 46.5553 48.7649 45.9951 48.5074L46.1675 48.2413Z" fill="#F9F3FF"/>
<path opacity="0.1" d="M50.257 54.9486C50.257 54.9486 49.0816 57.1651 47.5614 57.7404C47.5123 57.7582 47.4648 57.7745 47.4128 57.7894C45.8257 58.2725 50.3759 55.6354 50.257 54.9486Z" fill="black"/>
<path d="M33.8187 35.3397C33.8187 35.3397 34.3864 36.7801 34.8411 37.2722C35.2958 37.7642 38.6661 42.6906 38.6661 42.6906L38.9514 43.2852L39.1966 43.7922L41.3558 43.5647L41.5044 42.6936L41.4211 42.5925C41.2042 42.3324 40.6128 41.6337 40.216 41.3289C39.7241 40.9514 38.7389 39.7012 38.7389 39.7012C38.7389 39.7012 35.6718 36.517 35.4444 35.6459C35.217 34.7748 32.1484 29.551 31.4678 30.4549C30.7872 31.3587 33.8187 35.3397 33.8187 35.3397Z" fill="#FBBEBE"/>
<g opacity="0.1">
<path opacity="0.1" d="M40.0838 58.772C39.8246 58.7496 39.5637 58.7873 39.3215 58.8821C38.7865 59.1422 38.6854 59.8453 38.3882 60.3612C38.0405 60.9647 37.3778 61.3378 36.6957 61.4761C36.5601 61.5024 36.4232 61.5212 36.2855 61.5325C36.7199 61.5748 37.1582 61.5558 37.5873 61.4761C38.2694 61.3378 38.9321 60.9647 39.2798 60.3612C39.5771 59.8453 39.6781 59.1422 40.2131 58.8821C40.3535 58.8188 40.5049 58.7835 40.6589 58.778L40.0838 58.772Z" fill="black"/>
<path opacity="0.1" d="M45.3621 47.3687C45.3621 46.1869 46.1304 45.1687 46.7635 44.1712C47.3965 43.1737 47.9285 41.9146 47.4277 40.8443C46.9997 39.9301 44.42 38.7037 42.931 38.946C44.3888 39.1348 46.1854 40.0951 46.5361 40.8443C47.0369 41.9146 46.5049 43.1737 45.8718 44.1712C45.2388 45.1687 44.4676 46.1869 44.4705 47.3687C44.4705 48.8939 44.368 50.0445 43.9489 51.5177C43.8286 51.9413 44.9891 52.582 44.8108 52.9834C44.2075 54.3213 44.4898 55.8643 44.3933 57.3271C44.3912 57.6129 44.3215 57.8941 44.1897 58.1477C43.8925 58.6367 43.2832 58.7631 42.6903 58.7898H43.2089C43.9014 58.7898 44.7232 58.7363 45.0813 58.1432C45.2131 57.8896 45.2829 57.6084 45.2849 57.3226C45.3815 55.8599 45.0991 54.3154 45.7024 52.979C45.8837 52.5776 44.7202 51.9384 44.8405 51.5132C45.2596 50.0505 45.3651 48.8939 45.3621 47.3687Z" fill="black"/>
</g>
<path opacity="0.1" d="M38.9514 43.2822L39.1966 43.7891L41.3558 43.5617L41.5044 42.6906L41.4212 42.5895C41.1908 42.7025 39.4656 43.5334 38.9514 43.2822Z" fill="black"/>
<path opacity="0.1" d="M46.9239 48.9801C46.9239 48.9801 46.3934 48.1477 46.0903 48.3736C45.7871 48.5996 45.6697 47.6913 45.4958 47.8429C45.322 47.9945 44.8153 48.4167 44.6042 47.8266C44.4393 47.3568 42.6442 44.3852 41.916 43.19C41.7288 42.8808 41.6114 42.6906 41.6114 42.6906C41.6114 42.6906 39.5667 43.7133 39.0748 43.3729V44.0924L39.4909 44.131L41.7199 48.2933C41.7199 48.2933 42.4213 49.4097 42.3737 49.7992C42.3262 50.1887 43.2728 51.8937 43.4243 52.0067C43.5759 52.1197 45.2076 54.015 45.2076 54.015C45.2076 54.015 46.0412 58.1075 45.3205 59.2447C44.5998 60.3819 43.3515 61.2144 43.3515 61.2144C43.3515 61.2144 42.9756 62.3129 43.0306 62.4274C43.0855 62.5419 42.5937 63.0339 42.821 63.1855C43.0484 63.3372 43.3515 64.3971 43.3515 64.3971C43.3515 64.3971 44.4125 62.692 44.9861 62.4274C45.5597 62.1628 46.2938 58.6754 46.2938 58.6754C46.2938 58.6754 46.5034 56.621 46.5197 55.295C46.5361 53.969 46.4692 48.9801 46.9239 48.9801Z" fill="black"/>
<path d="M46.8095 48.9801C46.8095 48.9801 46.2805 48.1477 45.9773 48.3736C45.6742 48.5996 45.5553 47.6913 45.3829 47.8429C45.2105 47.9945 44.7038 48.4167 44.4913 47.8266C44.3249 47.3568 42.5298 44.3852 41.8031 43.19L41.4985 42.6906C41.4985 42.6906 39.4537 43.7133 38.9604 43.3729V44.0924L39.3779 44.131L41.607 48.2933C41.607 48.2933 42.3098 49.4097 42.2608 49.7992C42.2118 50.1887 43.1524 51.8937 43.3114 52.0067C43.4704 52.1197 45.0946 54.015 45.0946 54.015C45.0946 54.015 45.9283 58.1075 45.2091 59.2447C44.8291 59.8159 44.3669 60.3278 43.8375 60.764C43.3927 61.131 43.0797 61.633 42.9459 62.194C42.9201 62.2705 42.9109 62.3516 42.9191 62.4319C42.9741 62.5448 42.4822 63.0384 42.7096 63.19C42.9369 63.3416 43.2431 64.406 43.2431 64.406C43.2431 64.406 44.3041 62.7009 44.8777 62.4363C45.4513 62.1717 46.1869 58.6843 46.1869 58.6843C46.1869 58.6843 46.3949 56.6299 46.4127 55.3039C46.4306 53.9779 46.3637 48.9801 46.8095 48.9801Z" fill="#FF2080"/>
<path opacity="0.1" d="M41.6203 66.2212C41.6203 66.2212 43.2118 66.5185 43.8493 66.9778C44.4868 67.4372 41.4256 66.2584 41.4256 66.2584L41.6203 66.2212Z" fill="black"/>
<path opacity="0.1" d="M45.4468 70.2556C45.4468 70.2556 47.1067 71.6396 46.8095 72.8898C46.5123 74.14 45.7455 77.2855 45.7455 77.2855L45.4468 70.2556Z" fill="black"/>
<path opacity="0.1" d="M30.9299 67.5947C30.9299 67.5947 28.5909 67.8504 28.7425 68.1537C28.8941 68.4569 30.9299 67.8742 30.9299 67.8742V67.5947Z" fill="black"/>
<path opacity="0.1" d="M48.8898 79.1035C48.8898 79.1035 49.0384 79.2923 48.1706 79.1035C47.3028 78.9148 47.9432 78.332 47.9432 78.332L48.8898 79.1035Z" fill="black"/>
<path opacity="0.1" d="M48.5927 81.7184C48.5927 81.7184 47.4039 81.9072 46.7664 81.7184C46.1289 81.5297 48.5927 81.7184 48.5927 81.7184Z" fill="black"/>
<path opacity="0.1" d="M46.1467 91.9487C46.1467 91.9487 45.9387 91.7213 44.897 92.1375C43.8553 92.5538 43.4392 92.5731 43.136 92.4348C42.8329 92.2966 46.1467 91.9487 46.1467 91.9487Z" fill="black"/>
<path opacity="0.1" d="M47.3028 67.2721L45.8257 69.328C45.8257 69.328 46.6207 67.5278 47.3028 67.2721Z" fill="black"/>
<path opacity="0.1" d="M44.4318 48.3737C44.4318 48.3737 44.3679 49.056 43.4154 49.3221C42.4628 49.5882 42.2815 49.8037 42.2815 49.8037" fill="black"/>
<path opacity="0.1" d="M41.9561 43.4279C41.9561 43.4279 40.6989 44.3198 39.3867 44.131L41.9561 43.4279Z" fill="black"/>
<path opacity="0.1" d="M42.9131 62.5255C42.9131 62.5255 43.2802 62.756 44.1613 61.748L42.9131 62.5255Z" fill="black"/>
<path opacity="0.1" d="M52.0655 51.8388C52.1012 51.6544 51.9734 51.4835 51.853 51.3393L51.6063 51.042C51.5581 50.9811 51.5038 50.9254 51.4443 50.8755C51.2957 50.761 51.1055 50.7268 50.951 50.6243" fill="black"/>
<path opacity="0.1" d="M131.853 0.0164194C131.853 0.0164194 119.342 -0.738744 120.813 8.03187C120.813 8.03187 120.516 9.58233 121.924 10.2855C121.924 10.2855 121.947 9.63585 123.208 9.85734C123.658 9.93183 124.114 9.95378 124.568 9.92275C125.182 9.88036 125.765 9.63929 126.229 9.23597C126.229 9.23597 129.747 7.78213 131.114 2.03217C131.114 2.03217 132.126 0.777531 132.086 0.454951L129.974 1.35728C129.974 1.35728 130.696 2.88099 130.123 4.14753C130.123 4.14753 130.054 1.41228 129.649 1.47175C129.567 1.48513 128.552 1.99947 128.552 1.99947C128.552 1.99947 129.793 4.65295 128.857 6.58249C128.857 6.58249 129.212 3.31209 128.164 2.19123L126.678 3.05938C126.678 3.05938 128.129 5.80056 127.145 8.03781C127.145 8.03781 127.397 4.60687 126.365 3.27047L125.018 4.32145C125.018 4.32145 126.381 7.02399 125.55 8.8792C125.55 8.8792 125.442 4.88485 124.727 4.58309C124.727 4.58309 123.549 5.62366 123.369 6.04882C123.369 6.04882 124.302 8.01106 123.723 9.04569C123.723 9.04569 123.367 6.38478 123.076 6.36991C123.076 6.36991 121.902 8.13295 121.78 9.343C121.78 9.343 121.831 7.54577 122.792 6.20342C122.792 6.20342 121.657 6.39815 120.994 7.13399C120.994 7.13399 121.177 5.88827 123.082 5.77975C123.082 5.77975 124.052 4.44186 124.311 4.3601C124.311 4.3601 122.418 4.20253 121.269 4.71093C121.269 4.71093 122.28 3.53507 124.659 4.07023L125.989 2.98356C125.989 2.98356 123.495 2.64314 122.437 3.01924C122.437 3.01924 123.654 1.97866 126.347 2.7368L127.794 1.87163C127.794 1.87163 125.668 1.41377 124.402 1.57432C124.402 1.57432 125.739 0.853345 128.219 1.63527L129.259 1.16998C129.259 1.16998 127.702 0.86375 127.246 0.814694C126.79 0.765638 126.766 0.640769 126.766 0.640769C127.753 0.476186 128.765 0.588891 129.692 0.966322C129.692 0.966322 131.891 0.154668 131.853 0.0164194Z" fill="#BE8FDC"/>
<path opacity="0.1" d="M116.422 2.24752C116.422 2.24752 110.775 1.90561 111.436 5.86874C111.436 5.86874 111.304 6.57039 111.937 6.88851C111.937 6.88851 111.947 6.5912 112.518 6.69377C112.721 6.72789 112.927 6.73787 113.132 6.7235C113.409 6.70464 113.673 6.59553 113.882 6.41281C113.882 6.41281 115.472 5.75725 116.09 3.15877C116.09 3.15877 116.547 2.59091 116.529 2.44523L115.575 2.85254C115.575 2.85254 115.902 3.5423 115.645 4.11462C115.645 4.11462 115.613 2.87781 115.431 2.90754C115.393 2.90754 114.934 3.14539 114.934 3.14539C114.934 3.14539 115.496 4.34503 115.072 5.21763C115.072 5.21763 115.233 3.74001 114.759 3.2331L114.087 3.62554C114.087 3.62554 114.744 4.86383 114.298 5.87468C114.298 5.87468 114.413 4.32422 113.946 3.72068L113.338 4.20084C113.338 4.20084 113.954 5.42278 113.579 6.2597C113.579 6.2597 113.53 4.45503 113.206 4.31976C113.206 4.31976 112.674 4.78951 112.592 4.98276C112.592 4.98276 113.014 5.87468 112.753 6.33551C112.753 6.33551 112.592 5.1329 112.456 5.12844C112.456 5.12844 111.927 5.92523 111.87 6.46633C111.897 5.96134 112.054 5.472 112.328 5.04668C112.022 5.10469 111.739 5.25091 111.515 5.46737C111.515 5.46737 111.598 4.90546 112.459 4.85491C112.459 4.85491 112.904 4.25138 113.014 4.21421C113.014 4.21421 112.158 4.14286 111.64 4.37327C111.64 4.37327 112.096 3.84109 113.172 4.07597L113.766 3.58541C113.766 3.58541 112.64 3.43675 112.161 3.60176C112.161 3.60176 112.711 3.13201 113.928 3.47391L114.582 3.08295C114.582 3.08295 113.622 2.87484 113.049 2.95065C113.049 2.95065 113.653 2.62361 114.774 2.97741L115.242 2.76781C115.242 2.76781 114.538 2.62807 114.331 2.60726C114.124 2.58645 114.114 2.52847 114.114 2.52847C114.56 2.45424 115.018 2.50571 115.437 2.67713C115.437 2.67713 116.44 2.30995 116.422 2.24752Z" fill="#BE8FDC"/>
<path d="M136.147 96.7384C139.447 96.7384 142.122 96.2858 142.122 95.7275C142.122 95.1693 139.447 94.7167 136.147 94.7167C132.847 94.7167 130.172 95.1693 130.172 95.7275C130.172 96.2858 132.847 96.7384 136.147 96.7384Z" fill="#BE8FDC"/>
<path d="M138.618 94.0745C138.891 93.8521 139.09 93.5519 139.188 93.2137C139.262 92.8733 139.116 92.4705 138.789 92.3382C138.424 92.1984 138.033 92.4526 137.737 92.7083C137.441 92.964 137.101 93.2569 136.715 93.2019C136.914 93.0209 137.063 92.7916 137.147 92.536C137.232 92.2805 137.248 92.0075 137.196 91.7436C137.179 91.6342 137.133 91.5315 137.063 91.4463C136.859 91.2292 136.492 91.3214 136.248 91.4923C135.475 92.0364 135.26 93.0874 135.256 94.0313C135.178 93.6909 135.244 93.3356 135.242 92.9908C135.241 92.6459 135.144 92.2475 134.848 92.0647C134.666 91.9665 134.461 91.9183 134.254 91.9249C133.908 91.9115 133.52 91.9472 133.284 92.2014C132.986 92.5166 133.065 93.0458 133.321 93.3906C133.576 93.7355 133.967 93.957 134.327 94.1964C134.614 94.3679 134.86 94.6022 135.045 94.8817C135.067 94.9207 135.085 94.9621 135.098 95.005H137.277C137.764 94.7568 138.215 94.4438 138.618 94.0745Z" fill="#BE8FDC"/>
</g>
<defs>
<linearGradient id="paint0_linear_56_507" x1="120.146" y1="75.0601" x2="120.146" y2="15.2564" gradientUnits="userSpaceOnUse">
<stop stop-color="#808080" stop-opacity="0.25"/>
<stop offset="0.54" stop-color="#808080" stop-opacity="0.12"/>
<stop offset="1" stop-color="#808080" stop-opacity="0.1"/>
</linearGradient>
<linearGradient id="paint1_linear_56_507" x1="5921.98" y1="37250.5" x2="13261.6" y2="37250.5" gradientUnits="userSpaceOnUse">
<stop stop-color="#808080" stop-opacity="0.25"/>
<stop offset="0.54" stop-color="#808080" stop-opacity="0.12"/>
<stop offset="1" stop-color="#808080" stop-opacity="0.1"/>
</linearGradient>
<clipPath id="clip0_56_507">
<rect width="170" height="97" fill="white"/>
</clipPath>
</defs>
</svg>
