<svg width="26" height="24" viewBox="0 0 26 24" fill="none" xmlns="http://www.w3.org/2000/svg">
<path fill-rule="evenodd" clip-rule="evenodd" d="M0 0H11.6465H12.9545H14.4445C20.8264 0 26 5.1736 26 11.5556C26 17.9375 20.8264 23.1111 14.4444 23.1111H12.9545H11.6465H0V0ZM12.7292 17.0625C15.5213 17.0625 17.7847 14.7991 17.7847 12.007C17.7847 9.21485 15.5213 6.9514 12.7292 6.9514C9.93707 6.9514 7.67362 9.21485 7.67362 12.007C7.67362 14.7991 9.93707 17.0625 12.7292 17.0625Z" fill="url(#paint0_radial_66_1860)"/>
<path fill-rule="evenodd" clip-rule="evenodd" d="M0 0V7.80903V15.6181H7.80902H9.19101C8.25461 14.7005 7.67361 13.4216 7.67361 12.0069C7.67361 9.21484 9.93706 6.95139 12.7292 6.95139C15.5213 6.95139 17.7847 9.21484 17.7847 12.0069C17.7847 13.2194 17.3579 14.3322 16.6463 15.2033C19.7237 14.1557 21.9375 11.2409 21.9375 7.80903C21.9375 3.49622 18.4413 0 14.1285 0H10.9688H7.80903H0Z" fill="url(#paint1_linear_66_1860)"/>
<path fill-rule="evenodd" clip-rule="evenodd" d="M0 23.1112V15.9792V14.4445V12.9098C0 8.97091 3.19308 5.77783 7.13194 5.77783C8.70298 5.77783 10.1554 6.2858 11.3338 7.14646C9.22034 7.75207 7.67361 9.6989 7.67361 12.007C7.67361 14.7991 9.93706 17.0626 12.7292 17.0626C13.2642 17.0626 13.7799 16.9794 14.2639 16.8254V23.1112H7.13194H0Z" fill="url(#paint2_linear_66_1860)"/>
<defs>
<radialGradient id="paint0_radial_66_1860" cx="0" cy="0" r="1" gradientUnits="userSpaceOnUse" gradientTransform="translate(7.08681 22.2535) rotate(-34.5027) scale(22.9501 34.3776)">
<stop offset="0.334095" stop-color="#73007B"/>
<stop offset="1" stop-color="#FF2080"/>
</radialGradient>
<linearGradient id="paint1_linear_66_1860" x1="21.9375" y1="9.93056" x2="-3.58167" y2="0.242825" gradientUnits="userSpaceOnUse">
<stop offset="0.380208" stop-color="#FF2080"/>
<stop offset="1" stop-color="#73007B"/>
</linearGradient>
<linearGradient id="paint2_linear_66_1860" x1="4.82986" y1="3.38547" x2="20.9266" y2="16.3694" gradientUnits="userSpaceOnUse">
<stop stop-color="#FF2080"/>
<stop offset="0.833333" stop-color="#73007B"/>
</linearGradient>
</defs>
</svg>
