<svg width="375" height="174" viewBox="0 0 375 174" fill="none" xmlns="http://www.w3.org/2000/svg">
<rect width="375" height="174" fill="#F9F3FF"/>
<rect x="135" y="48" width="111" height="110" rx="8" fill="#C6192D"/>
<path d="M214.355 130.659L212.046 132.969L209.736 130.659L209.704 104.58L214.388 104.58L214.355 130.659Z" fill="#FEFEFF"/>
<path d="M214.385 103.586L209.706 103.586L209.748 100.969C209.746 100.557 209.948 100.129 210.24 99.8369C210.383 99.6929 210.554 99.5786 210.741 99.5008C210.929 99.4229 211.13 99.383 211.333 99.3834L212.761 99.3834C212.964 99.3834 213.164 99.4234 213.351 99.5013C213.539 99.5791 213.708 99.6932 213.851 99.8369C214.145 100.131 214.344 100.558 214.344 100.97L214.385 103.586Z" fill="#FEFEFF"/>
<path d="M186.5 105.094V129.375M186.5 105.094C186.5 105.094 178.406 98.1562 170.312 103.937V129.375C178.406 123.594 186.5 129.375 186.5 129.375C186.5 129.375 194.594 123.594 202.688 129.375V103.937C194.594 98.1562 186.5 105.094 186.5 105.094Z" stroke="#FEFEFF" stroke-width="2" stroke-linecap="round" stroke-linejoin="round"/>
<path d="M150.859 70.4187H152.148V72.239H150.859V74.7H148.602V72.239H143.938L143.836 70.8171L148.578 63.325H150.859V70.4187ZM146.086 70.4187H148.602V66.4031L148.453 66.6609L146.086 70.4187Z" fill="#FEFEFF"/>
<path d="M167.912 61.319H165.1V63.2233H168.4V64.4H163.635V57.2906H168.391V58.4772H165.1V60.1715H167.912V61.319ZM169.26 64.4V57.2906H171.447C172.072 57.2906 172.631 57.4323 173.122 57.7155C173.617 57.9954 174.003 58.3958 174.279 58.9166C174.556 59.4342 174.694 60.0234 174.694 60.6842V61.0114C174.694 61.6722 174.558 62.2597 174.284 62.774C174.014 63.2884 173.632 63.6871 173.137 63.9703C172.642 64.2535 172.084 64.3968 171.462 64.4H169.26ZM170.725 58.4772V63.2233H171.433C172.006 63.2233 172.443 63.0361 172.746 62.6617C173.049 62.2874 173.203 61.7519 173.21 61.0553V60.6793C173.21 59.9567 173.06 59.4098 172.761 59.0387C172.461 58.6643 172.023 58.4772 171.447 58.4772H170.725ZM181.145 57.2906V61.9733C181.145 62.7513 180.9 63.3665 180.412 63.819C179.927 64.2714 179.263 64.4977 178.42 64.4977C177.59 64.4977 176.931 64.278 176.442 63.8385C175.954 63.399 175.705 62.7952 175.695 62.027V57.2906H177.16V61.983C177.16 62.4485 177.271 62.7887 177.492 63.0035C177.717 63.2151 178.026 63.3209 178.42 63.3209C179.243 63.3209 179.662 62.888 179.675 62.0221V57.2906H181.145ZM187.927 62.0319C187.871 62.7968 187.588 63.399 187.077 63.8385C186.569 64.278 185.899 64.4977 185.065 64.4977C184.154 64.4977 183.436 64.1917 182.912 63.5797C182.391 62.9645 182.131 62.1214 182.131 61.0504V60.6158C182.131 59.9323 182.251 59.33 182.492 58.8092C182.733 58.2884 183.076 57.8896 183.522 57.6129C183.972 57.333 184.493 57.193 185.085 57.193C185.905 57.193 186.566 57.4127 187.067 57.8522C187.569 58.2916 187.858 58.9085 187.937 59.7028H186.472C186.436 59.2438 186.307 58.9117 186.086 58.7067C185.868 58.4983 185.534 58.3942 185.085 58.3942C184.597 58.3942 184.23 58.5699 183.986 58.9215C183.745 59.2698 183.622 59.8118 183.615 60.5475V61.0846C183.615 61.8528 183.731 62.4143 183.962 62.7692C184.196 63.124 184.564 63.3014 185.065 63.3014C185.518 63.3014 185.855 63.1989 186.076 62.9938C186.301 62.7854 186.429 62.4648 186.462 62.0319H187.927ZM192.902 62.9352H190.334L189.846 64.4H188.288L190.935 57.2906H192.292L194.953 64.4H193.396L192.902 62.9352ZM190.729 61.7487H192.507L191.613 59.0875L190.729 61.7487ZM201.091 62.0319C201.035 62.7968 200.752 63.399 200.241 63.8385C199.733 64.278 199.063 64.4977 198.229 64.4977C197.318 64.4977 196.6 64.1917 196.076 63.5797C195.555 62.9645 195.295 62.1214 195.295 61.0504V60.6158C195.295 59.9323 195.415 59.33 195.656 58.8092C195.897 58.2884 196.241 57.8896 196.687 57.6129C197.136 57.333 197.657 57.193 198.249 57.193C199.069 57.193 199.73 57.4127 200.231 57.8522C200.733 58.2916 201.022 58.9085 201.101 59.7028H199.636C199.6 59.2438 199.471 58.9117 199.25 58.7067C199.032 58.4983 198.698 58.3942 198.249 58.3942C197.761 58.3942 197.395 58.5699 197.15 58.9215C196.91 59.2698 196.786 59.8118 196.779 60.5475V61.0846C196.779 61.8528 196.895 62.4143 197.126 62.7692C197.36 63.124 197.728 63.3014 198.229 63.3014C198.682 63.3014 199.019 63.1989 199.24 62.9938C199.465 62.7854 199.593 62.4648 199.626 62.0319H201.091ZM198.767 64.3707L198.713 64.6539C199.201 64.7418 199.445 65.0234 199.445 65.4987C199.445 65.8567 199.296 66.1399 198.996 66.3483C198.7 66.5566 198.282 66.6608 197.741 66.6608L197.707 65.8453C198.072 65.8453 198.254 65.7135 198.254 65.4498C198.254 65.3131 198.199 65.2187 198.088 65.1666C197.98 65.1178 197.805 65.0852 197.561 65.069L197.712 64.3707H198.767ZM206.066 62.9352H203.498L203.01 64.4H201.452L204.099 57.2906H205.456L208.117 64.4H206.56L206.066 62.9352ZM203.894 61.7487H205.671L204.777 59.0875L203.894 61.7487ZM206.633 55.4547C206.633 55.8226 206.525 56.1318 206.311 56.3824C206.096 56.6298 205.834 56.7535 205.524 56.7535C205.401 56.7535 205.29 56.7405 205.192 56.7145C205.098 56.6852 204.966 56.625 204.797 56.5338C204.628 56.4427 204.506 56.3873 204.431 56.3678C204.356 56.345 204.274 56.3336 204.187 56.3336C204.073 56.3336 203.975 56.3743 203.894 56.4557C203.815 56.5371 203.776 56.6526 203.776 56.8024L202.956 56.7535C202.956 56.3922 203.062 56.0846 203.273 55.8307C203.488 55.5768 203.75 55.4498 204.06 55.4498C204.157 55.4498 204.248 55.4628 204.333 55.4889C204.421 55.5117 204.562 55.5703 204.758 55.6647C204.953 55.7591 205.088 55.816 205.163 55.8356C205.238 55.8551 205.316 55.8649 205.397 55.8649C205.511 55.8649 205.609 55.8258 205.69 55.7477C205.775 55.6663 205.817 55.5507 205.817 55.401L206.633 55.4547ZM214.514 61.0065C214.514 61.7063 214.39 62.3199 214.143 62.8473C213.895 63.3746 213.54 63.7815 213.078 64.068C212.619 64.3545 212.092 64.4977 211.496 64.4977C210.907 64.4977 210.381 64.3561 209.919 64.0729C209.457 63.7897 209.099 63.386 208.845 62.8619C208.591 62.3346 208.462 61.7291 208.459 61.0455V60.694C208.459 59.9941 208.584 59.3789 208.835 58.8483C209.089 58.3144 209.445 57.9059 209.904 57.6227C210.367 57.3362 210.894 57.193 211.486 57.193C212.079 57.193 212.604 57.3362 213.063 57.6227C213.526 57.9059 213.882 58.3144 214.133 58.8483C214.387 59.3789 214.514 59.9925 214.514 60.6891V61.0065ZM213.029 60.6842C213.029 59.9388 212.896 59.3724 212.629 58.985C212.362 58.5976 211.981 58.4039 211.486 58.4039C210.995 58.4039 210.616 58.596 210.349 58.9801C210.082 59.361 209.947 59.9209 209.943 60.6598V61.0065C209.943 61.7324 210.077 62.2955 210.344 62.6959C210.611 63.0963 210.995 63.2965 211.496 63.2965C211.988 63.2965 212.365 63.1045 212.629 62.7203C212.893 62.333 213.026 61.7698 213.029 61.0309V60.6842ZM163.635 79.4V72.2906H165.822C166.447 72.2906 167.006 72.4323 167.497 72.7155C167.992 72.9954 168.378 73.3958 168.654 73.9166C168.931 74.4342 169.069 75.0234 169.069 75.6842V76.0114C169.069 76.6722 168.933 77.2597 168.659 77.774C168.389 78.2884 168.007 78.6871 167.512 78.9703C167.017 79.2535 166.459 79.3968 165.837 79.4H163.635ZM165.1 73.4772V78.2233H165.808C166.381 78.2233 166.818 78.0361 167.121 77.6617C167.424 77.2874 167.578 76.7519 167.585 76.0553V75.6793C167.585 74.9567 167.435 74.4098 167.136 74.0387C166.836 73.6643 166.398 73.4772 165.822 73.4772H165.1ZM174.416 76.319H171.604V78.2233H174.904V79.4H170.139V72.2906H174.895V73.4772H171.604V75.1715H174.416V76.319ZM184.084 76.0065C184.084 76.6705 183.977 77.2483 183.762 77.7399C183.547 78.2281 183.249 78.6204 182.868 78.9166L184.05 79.8444L183.117 80.6696L181.604 79.4537C181.431 79.483 181.252 79.4977 181.066 79.4977C180.477 79.4977 179.951 79.3561 179.489 79.0729C179.027 78.7897 178.669 78.386 178.415 77.8619C178.161 77.3346 178.033 76.7291 178.029 76.0455V75.694C178.029 74.9941 178.155 74.3789 178.405 73.8483C178.659 73.3144 179.016 72.9059 179.475 72.6227C179.937 72.3362 180.464 72.193 181.057 72.193C181.649 72.193 182.175 72.3362 182.634 72.6227C183.096 72.9059 183.452 73.3144 183.703 73.8483C183.957 74.3789 184.084 74.9925 184.084 75.6891V76.0065ZM182.6 75.6842C182.6 74.9388 182.466 74.3724 182.199 73.985C181.932 73.5976 181.551 73.4039 181.057 73.4039C180.565 73.4039 180.186 73.596 179.919 73.9801C179.652 74.361 179.517 74.9209 179.514 75.6598V76.0065C179.514 76.7324 179.647 77.2955 179.914 77.6959C180.181 78.0963 180.565 78.2965 181.066 78.2965C181.558 78.2965 181.936 78.1045 182.199 77.7203C182.463 77.333 182.596 76.7698 182.6 76.0309V75.6842ZM190.539 72.2906V76.9733C190.539 77.7513 190.295 78.3665 189.807 78.819C189.322 79.2714 188.658 79.4977 187.814 79.4977C186.984 79.4977 186.325 79.278 185.837 78.8385C185.349 78.399 185.1 77.7952 185.09 77.027V72.2906H186.555V76.983C186.555 77.4485 186.665 77.7887 186.887 78.0035C187.111 78.2151 187.421 78.3209 187.814 78.3209C188.638 78.3209 189.056 77.888 189.069 77.0221V72.2906H190.539ZM195.646 77.9352H193.078L192.59 79.4H191.032L193.679 72.2906H195.036L197.697 79.4H196.14L195.646 77.9352ZM193.474 76.7487H195.251L194.357 74.0875L193.474 76.7487ZM199.826 78.2233H202.937V79.4H198.361V72.2906H199.826V78.2233ZM205.339 79.4H203.874V72.2906H205.339V79.4ZM206.701 79.4V72.2906H208.889C209.514 72.2906 210.072 72.4323 210.563 72.7155C211.058 72.9954 211.444 73.3958 211.721 73.9166C211.997 74.4342 212.136 75.0234 212.136 75.6842V76.0114C212.136 76.6722 211.999 77.2597 211.726 77.774C211.455 78.2884 211.073 78.6871 210.578 78.9703C210.083 79.2535 209.525 79.3968 208.903 79.4H206.701ZM208.166 73.4772V78.2233H208.874C209.447 78.2233 209.885 78.0361 210.188 77.6617C210.49 77.2874 210.645 76.7519 210.651 76.0553V75.6793C210.651 74.9567 210.502 74.4098 210.202 74.0387C209.903 73.6643 209.465 73.4772 208.889 73.4772H208.166ZM217.111 77.9352H214.543L214.055 79.4H212.497L215.144 72.2906H216.501L219.162 79.4H217.604L217.111 77.9352ZM214.938 76.7487H216.716L215.822 74.0875L214.938 76.7487ZM219.826 79.4V72.2906H222.014C222.639 72.2906 223.197 72.4323 223.688 72.7155C224.183 72.9954 224.569 73.3958 224.846 73.9166C225.122 74.4342 225.261 75.0234 225.261 75.6842V76.0114C225.261 76.6722 225.124 77.2597 224.851 77.774C224.58 78.2884 224.198 78.6871 223.703 78.9703C223.208 79.2535 222.65 79.3968 222.028 79.4H219.826ZM221.291 73.4772V78.2233H221.999C222.572 78.2233 223.01 78.0361 223.312 77.6617C223.615 77.2874 223.77 76.7519 223.776 76.0553V75.6793C223.776 74.9567 223.627 74.4098 223.327 74.0387C223.028 73.6643 222.59 73.4772 222.014 73.4772H221.291ZM230.607 76.319H227.795V78.2233H231.096V79.4H226.33V72.2906H231.086V73.4772H227.795V75.1715H230.607V76.319Z" fill="#FEFEFF"/>
<rect x="16" y="48" width="111" height="110" rx="8" fill="#DF3C81"/>
<path d="M73.6154 89L82.1424 98.2308H65.0884L73.6154 89Z" fill="#FEFEFF"/>
<path d="M49 112.385L58.2308 103.858V120.912L49 112.385Z" fill="#FEFEFF"/>
<path d="M97 112.385L87.7692 120.912V103.858L97 112.385Z" fill="#FEFEFF"/>
<path d="M73.6154 137L65.0884 127.769H82.1424L73.6154 137Z" fill="#FEFEFF"/>
<rect x="65" y="114.846" width="17.2308" height="4.92308" fill="#FEFEFF"/>
<rect x="65" y="105" width="17.2308" height="4.92308" fill="#FEFEFF"/>
<path d="M27.5703 71.4H25.3125V62.6969L22.6172 63.5328V61.6969L27.3281 60.0094H27.5703V71.4ZM38.9297 66.6969C38.9297 68.2698 38.6042 69.4729 37.9531 70.3063C37.3021 71.1396 36.349 71.5563 35.0938 71.5563C33.8542 71.5563 32.9062 71.1474 32.25 70.3297C31.5938 69.512 31.2578 68.3401 31.2422 66.8141V64.7203C31.2422 63.1318 31.5703 61.9261 32.2266 61.1031C32.888 60.2802 33.8385 59.8688 35.0781 59.8688C36.3177 59.8688 37.2656 60.2776 37.9219 61.0953C38.5781 61.9078 38.9141 63.0771 38.9297 64.6031V66.6969ZM36.6719 64.4C36.6719 63.4573 36.5417 62.7724 36.2812 62.3453C36.026 61.913 35.625 61.6969 35.0781 61.6969C34.5469 61.6969 34.1536 61.9026 33.8984 62.3141C33.6484 62.7203 33.5156 63.3584 33.5 64.2281V66.9938C33.5 67.9209 33.625 68.611 33.875 69.0641C34.1302 69.512 34.5365 69.736 35.0938 69.736C35.6458 69.736 36.0443 69.5198 36.2891 69.0875C36.5339 68.6552 36.6615 67.9938 36.6719 67.1031V64.4Z" fill="#FEFEFF"/>
<path d="M46.2666 59.5974H45.0996V62.2H43.6348V55.0906H46.2764C47.1162 55.0906 47.764 55.2778 48.2197 55.6521C48.6755 56.0264 48.9033 56.5554 48.9033 57.239C48.9033 57.724 48.7975 58.1293 48.5859 58.4548C48.3776 58.7771 48.0602 59.0343 47.6338 59.2263L49.1719 62.1316V62.2H47.5996L46.2666 59.5974ZM45.0996 58.4109H46.2812C46.6491 58.4109 46.9339 58.3181 47.1357 58.1326C47.3376 57.9438 47.4385 57.685 47.4385 57.3562C47.4385 57.0209 47.3424 56.7572 47.1504 56.5652C46.9616 56.3731 46.6702 56.2771 46.2764 56.2771H45.0996V58.4109ZM54.2988 59.1189H51.4863V61.0232H54.7871V62.2H50.0215V55.0906H54.7773V56.2771H51.4863V57.9714H54.2988V59.1189ZM55.6465 62.2V55.0906H57.834C58.459 55.0906 59.0173 55.2322 59.5088 55.5154C60.0036 55.7953 60.3893 56.1957 60.666 56.7166C60.9427 57.2341 61.0811 57.8233 61.0811 58.4841V58.8113C61.0811 59.4721 60.9443 60.0597 60.6709 60.574C60.4007 61.0883 60.0182 61.4871 59.5234 61.7703C59.0286 62.0535 58.4704 62.1967 57.8486 62.2H55.6465ZM57.1113 56.2771V61.0232H57.8193C58.3923 61.0232 58.8301 60.836 59.1328 60.4617C59.4355 60.0873 59.5902 59.5518 59.5967 58.8552V58.4792C59.5967 57.7566 59.4469 57.2097 59.1475 56.8386C58.848 56.4643 58.4102 56.2771 57.834 56.2771H57.1113ZM67.5312 55.0906V59.7732C67.5312 60.5512 67.2871 61.1664 66.7988 61.6189C66.3138 62.0714 65.6497 62.2976 64.8066 62.2976C63.9766 62.2976 63.3174 62.0779 62.8291 61.6384C62.3408 61.199 62.0918 60.5951 62.082 59.8269V55.0906H63.5469V59.783C63.5469 60.2485 63.6576 60.5886 63.8789 60.8035C64.1035 61.0151 64.4128 61.1208 64.8066 61.1208C65.6302 61.1208 66.0485 60.6879 66.0615 59.822V55.0906H67.5312ZM70.2852 61.0232H73.8691V62.2H68.4541V61.3406L71.9697 56.2771H68.459V55.0906H73.791V55.9304L70.2852 61.0232ZM76.3545 62.2H74.8896V55.0906H76.3545V62.2ZM80.3486 59.5974H79.1816V62.2H77.7168V55.0906H80.3584C81.1982 55.0906 81.846 55.2778 82.3018 55.6521C82.7575 56.0264 82.9854 56.5554 82.9854 57.239C82.9854 57.724 82.8796 58.1293 82.668 58.4548C82.4596 58.7771 82.1423 59.0343 81.7158 59.2263L83.2539 62.1316V62.2H81.6816L80.3486 59.5974ZM79.1816 58.4109H80.3633C80.7311 58.4109 81.016 58.3181 81.2178 58.1326C81.4196 57.9438 81.5205 57.685 81.5205 57.3562C81.5205 57.0209 81.4245 56.7572 81.2324 56.5652C81.0436 56.3731 80.7523 56.2771 80.3584 56.2771H79.1816V58.4109ZM90.6074 60.7351H88.0391L87.5508 62.2H85.9932L88.6396 55.0906H89.9971L92.6582 62.2H91.1006L90.6074 60.7351ZM88.4346 59.5486H90.2119L89.3184 56.8875L88.4346 59.5486ZM97.0088 60.3347C97.0088 60.058 96.9111 59.8464 96.7158 59.7C96.5205 59.5502 96.1689 59.394 95.6611 59.2312C95.1533 59.0652 94.7513 58.9024 94.4551 58.7429C93.6478 58.3067 93.2441 57.7192 93.2441 56.9802C93.2441 56.5961 93.3516 56.2543 93.5664 55.9548C93.7845 55.6521 94.0954 55.4161 94.499 55.2468C94.9059 55.0776 95.3617 54.9929 95.8662 54.9929C96.374 54.9929 96.8265 55.0857 97.2236 55.2712C97.6208 55.4535 97.9284 55.7123 98.1465 56.0476C98.3678 56.3829 98.4785 56.7638 98.4785 57.1902H97.0137C97.0137 56.8647 96.9111 56.6124 96.7061 56.4333C96.501 56.2511 96.2129 56.1599 95.8418 56.1599C95.4837 56.1599 95.2054 56.2364 95.0068 56.3894C94.8083 56.5391 94.709 56.7377 94.709 56.9851C94.709 57.2162 94.8245 57.4099 95.0557 57.5662C95.29 57.7224 95.6335 57.8689 96.0859 58.0056C96.9193 58.2563 97.5264 58.5671 97.9072 58.9382C98.2881 59.3093 98.4785 59.7716 98.4785 60.325C98.4785 60.9402 98.2458 61.4236 97.7803 61.7751C97.3148 62.1235 96.6882 62.2976 95.9004 62.2976C95.3535 62.2976 94.8555 62.1983 94.4062 61.9998C93.957 61.7979 93.6136 61.5229 93.376 61.1746C93.1416 60.8263 93.0244 60.4226 93.0244 59.9636H94.4941C94.4941 60.7481 94.9629 61.1404 95.9004 61.1404C96.2487 61.1404 96.5205 61.0704 96.7158 60.9304C96.9111 60.7872 97.0088 60.5886 97.0088 60.3347ZM43.6348 77.2V70.0906H45.8223C46.4473 70.0906 47.0055 70.2322 47.4971 70.5154C47.9919 70.7953 48.3776 71.1957 48.6543 71.7166C48.931 72.2341 49.0693 72.8233 49.0693 73.4841V73.8113C49.0693 74.4721 48.9326 75.0597 48.6592 75.574C48.389 76.0883 48.0065 76.4871 47.5117 76.7703C47.0169 77.0535 46.4587 77.1967 45.8369 77.2H43.6348ZM45.0996 71.2771V76.0232H45.8076C46.3805 76.0232 46.8184 75.836 47.1211 75.4617C47.4238 75.0873 47.5785 74.5518 47.585 73.8552V73.4792C47.585 72.7566 47.4352 72.2097 47.1357 71.8386C46.8363 71.4643 46.3984 71.2771 45.8223 71.2771H45.0996ZM54.416 74.1189H51.6035V76.0232H54.9043V77.2H50.1387V70.0906H54.8945V71.2771H51.6035V72.9714H54.416V74.1189ZM59.4502 75.3347C59.4502 75.058 59.3525 74.8464 59.1572 74.7C58.9619 74.5502 58.6104 74.394 58.1025 74.2312C57.5947 74.0652 57.1927 73.9024 56.8965 73.7429C56.0892 73.3067 55.6855 72.7192 55.6855 71.9802C55.6855 71.5961 55.793 71.2543 56.0078 70.9548C56.2259 70.6521 56.5368 70.4161 56.9404 70.2468C57.3473 70.0776 57.8031 69.9929 58.3076 69.9929C58.8154 69.9929 59.2679 70.0857 59.665 70.2712C60.0622 70.4535 60.3698 70.7123 60.5879 71.0476C60.8092 71.3829 60.9199 71.7638 60.9199 72.1902H59.4551C59.4551 71.8647 59.3525 71.6124 59.1475 71.4333C58.9424 71.2511 58.6543 71.1599 58.2832 71.1599C57.9251 71.1599 57.6468 71.2364 57.4482 71.3894C57.2497 71.5391 57.1504 71.7377 57.1504 71.9851C57.1504 72.2162 57.266 72.4099 57.4971 72.5662C57.7314 72.7224 58.0749 72.8689 58.5273 73.0056C59.3607 73.2563 59.9678 73.5671 60.3486 73.9382C60.7295 74.3093 60.9199 74.7716 60.9199 75.325C60.9199 75.9402 60.6872 76.4236 60.2217 76.7751C59.7562 77.1235 59.1296 77.2976 58.3418 77.2976C57.7949 77.2976 57.2969 77.1983 56.8477 76.9998C56.3984 76.7979 56.055 76.5229 55.8174 76.1746C55.583 75.8263 55.4658 75.4226 55.4658 74.9636H56.9355C56.9355 75.7481 57.4043 76.1404 58.3418 76.1404C58.6901 76.1404 58.9619 76.0704 59.1572 75.9304C59.3525 75.7872 59.4502 75.5886 59.4502 75.3347ZM63.4736 77.2H62.0088V70.0906H63.4736V77.2ZM70.4609 76.3015C70.1973 76.6173 69.8245 76.863 69.3428 77.0388C68.861 77.2113 68.3271 77.2976 67.7412 77.2976C67.126 77.2976 66.5856 77.1641 66.1201 76.8972C65.6579 76.627 65.2998 76.2364 65.0459 75.7253C64.7952 75.2143 64.6667 74.6137 64.6602 73.9236V73.4402C64.6602 72.7306 64.779 72.1169 65.0166 71.5994C65.2575 71.0785 65.6025 70.6814 66.0518 70.408C66.5042 70.1313 67.0332 69.9929 67.6387 69.9929C68.4818 69.9929 69.141 70.1947 69.6162 70.5984C70.0915 70.9988 70.373 71.5831 70.4609 72.3513H69.0352C68.9701 71.9444 68.8252 71.6466 68.6006 71.4578C68.3792 71.269 68.0732 71.1746 67.6826 71.1746C67.1846 71.1746 66.8053 71.3617 66.5449 71.7361C66.2845 72.1104 66.1527 72.6671 66.1494 73.406V73.8601C66.1494 74.6056 66.291 75.1687 66.5742 75.5496C66.8574 75.9304 67.2725 76.1208 67.8193 76.1208C68.3695 76.1208 68.7617 76.0037 68.9961 75.7693V74.5437H67.6631V73.4646H70.4609V76.3015ZM77.0332 70.0906V74.7732C77.0332 75.5512 76.7891 76.1664 76.3008 76.6189C75.8158 77.0714 75.1517 77.2976 74.3086 77.2976C73.4785 77.2976 72.8193 77.0779 72.3311 76.6384C71.8428 76.199 71.5938 75.5951 71.584 74.8269V70.0906H73.0488V74.783C73.0488 75.2485 73.1595 75.5886 73.3809 75.8035C73.6055 76.0151 73.9147 76.1208 74.3086 76.1208C75.1322 76.1208 75.5505 75.6879 75.5635 74.822V70.0906H77.0332ZM82.1406 75.7351H79.5723L79.084 77.2H77.5264L80.1729 70.0906H81.5303L84.1914 77.2H82.6338L82.1406 75.7351ZM79.9678 74.5486H81.7451L80.8516 71.8875L79.9678 74.5486ZM86.3203 76.0232H89.4307V77.2H84.8555V70.0906H86.3203V76.0232ZM90.2754 77.2V70.0906H92.4629C93.0879 70.0906 93.6462 70.2322 94.1377 70.5154C94.6325 70.7953 95.0182 71.1957 95.2949 71.7166C95.5716 72.2341 95.71 72.8233 95.71 73.4841V73.8113C95.71 74.4721 95.5732 75.0597 95.2998 75.574C95.0296 76.0883 94.6471 76.4871 94.1523 76.7703C93.6576 77.0535 93.0993 77.1967 92.4775 77.2H90.2754ZM91.7402 71.2771V76.0232H92.4482C93.0212 76.0232 93.459 75.836 93.7617 75.4617C94.0645 75.0873 94.2191 74.5518 94.2256 73.8552V73.4792C94.2256 72.7566 94.0758 72.2097 93.7764 71.8386C93.4769 71.4643 93.0391 71.2771 92.4629 71.2771H91.7402ZM100.686 75.7351H98.1172L97.6289 77.2H96.0713L98.7178 70.0906H100.075L102.736 77.2H101.179L100.686 75.7351ZM98.5127 74.5486H100.29L99.3965 71.8875L98.5127 74.5486ZM103.4 77.2V70.0906H105.588C106.213 70.0906 106.771 70.2322 107.263 70.5154C107.757 70.7953 108.143 71.1957 108.42 71.7166C108.697 72.2341 108.835 72.8233 108.835 73.4841V73.8113C108.835 74.4721 108.698 75.0597 108.425 75.574C108.155 76.0883 107.772 76.4871 107.277 76.7703C106.783 77.0535 106.224 77.1967 105.603 77.2H103.4ZM104.865 71.2771V76.0232H105.573C106.146 76.0232 106.584 75.836 106.887 75.4617C107.189 75.0873 107.344 74.5518 107.351 73.8552V73.4792C107.351 72.7566 107.201 72.2097 106.901 71.8386C106.602 71.4643 106.164 71.2771 105.588 71.2771H104.865ZM114.182 74.1189H111.369V76.0232H114.67V77.2H109.904V70.0906H114.66V71.2771H111.369V72.9714H114.182V74.1189ZM119.216 75.3347C119.216 75.058 119.118 74.8464 118.923 74.7C118.728 74.5502 118.376 74.394 117.868 74.2312C117.36 74.0652 116.958 73.9024 116.662 73.7429C115.855 73.3067 115.451 72.7192 115.451 71.9802C115.451 71.5961 115.559 71.2543 115.773 70.9548C115.992 70.6521 116.302 70.4161 116.706 70.2468C117.113 70.0776 117.569 69.9929 118.073 69.9929C118.581 69.9929 119.034 70.0857 119.431 70.2712C119.828 70.4535 120.135 70.7123 120.354 71.0476C120.575 71.3829 120.686 71.7638 120.686 72.1902H119.221C119.221 71.8647 119.118 71.6124 118.913 71.4333C118.708 71.2511 118.42 71.1599 118.049 71.1599C117.691 71.1599 117.412 71.2364 117.214 71.3894C117.015 71.5391 116.916 71.7377 116.916 71.9851C116.916 72.2162 117.032 72.4099 117.263 72.5662C117.497 72.7224 117.84 72.8689 118.293 73.0056C119.126 73.2563 119.733 73.5671 120.114 73.9382C120.495 74.3093 120.686 74.7716 120.686 75.325C120.686 75.9402 120.453 76.4236 119.987 76.7751C119.522 77.1235 118.895 77.2976 118.107 77.2976C117.561 77.2976 117.062 77.1983 116.613 76.9998C116.164 76.7979 115.821 76.5229 115.583 76.1746C115.349 75.8263 115.231 75.4226 115.231 74.9636H116.701C116.701 75.7481 117.17 76.1404 118.107 76.1404C118.456 76.1404 118.728 76.0704 118.923 75.9304C119.118 75.7872 119.216 75.5886 119.216 75.3347Z" fill="#FEFEFF"/>
<rect x="254" y="48" width="111" height="110" rx="8" fill="#02689D"/>
<path d="M334.224 124.014C334.117 123.937 331.631 123.883 328.695 123.883L323.356 123.883L322.936 124.306C321.858 125.437 322.179 127.852 323.471 128.26C323.647 128.314 326.079 128.345 328.878 128.345C334.4 128.329 334.346 128.337 334.836 127.491C335.272 126.714 335.295 125.66 334.882 124.798C334.683 124.368 334.583 124.252 334.224 124.014Z" fill="#FEFEFF"/>
<path d="M334.3 129.183C334.094 129.283 323.265 129.283 323.066 129.175C322.959 129.114 322.898 129.206 322.768 129.614C322.485 130.468 322.232 131.553 322.079 132.568C321.995 133.099 321.903 133.56 321.873 133.591C321.842 133.622 320.527 133.653 318.967 133.653L316.122 133.653L315.334 132.799C314.676 132.06 314.47 131.899 313.904 131.622C313.544 131.445 313.009 131.245 312.718 131.199C312.42 131.145 307.594 131.106 301.973 131.114C290.838 131.129 291.236 131.099 289.943 131.999C287.213 133.914 287.381 138.268 290.257 139.93C291.473 140.645 291.404 140.638 302.264 140.638C311.648 140.63 312.604 140.607 313.269 140.368C314.24 140.022 315.013 139.461 315.594 138.661L316.045 138.037L318.921 138.037C320.511 138.037 321.835 138.06 321.873 138.099C321.903 138.13 321.995 138.607 322.072 139.161C322.148 139.714 322.362 140.684 322.546 141.314L322.875 142.476L323.402 142.361C324.106 142.207 334.048 142.253 334.323 142.407L334.553 142.53L334.79 141.815C335.937 138.307 335.929 133.391 334.782 129.852C334.507 129.037 334.53 129.06 334.3 129.183Z" fill="#FEFEFF"/>
<path d="M334.224 143.399C334.125 143.33 331.685 143.276 328.802 143.268C323.043 143.26 323.089 143.26 322.615 144.137C321.942 145.399 322.408 147.315 323.471 147.645C323.861 147.761 333.696 147.745 334.056 147.63C334.935 147.345 335.432 145.753 335.05 144.507C334.92 144.13 334.515 143.568 334.224 143.399Z" fill="#FEFEFF"/>
<g clip-path="url(#clip0_65_784)">
<path fill-rule="evenodd" clip-rule="evenodd" d="M322.592 102.506C322.822 102.383 323.254 102.216 323.542 102.137C324.139 101.977 324.563 101.963 325.117 102.064C325.815 102.194 325.966 102.592 325.721 103.649C325.448 104.792 324.592 105.87 323.513 106.405C322.902 106.702 322.139 106.912 321.614 106.912H321.319L321.549 107.939C322.075 110.219 322.863 113.102 323.664 115.693C324.036 116.059 324.423 116.436 324.63 116.588L324.678 116.622C324.678 116.641 324.351 116.643 323.962 116.64C324.082 117.013 324.201 117.377 324.319 117.729C324.513 118.322 324.678 118.865 324.678 118.944C324.678 119.132 324.355 119.429 324.139 119.429C323.793 119.429 323.628 119.154 323.218 117.866C322.966 117.078 322.794 116.636 322.722 116.622C322.719 116.622 322.716 116.621 322.712 116.621C322.609 116.616 321.921 116.721 321.139 116.853C319.751 117.085 319.643 117.114 319.312 117.353C319.118 117.49 318.83 117.656 318.679 117.722C317.909 118.047 317.643 118.409 317.154 119.871C315.615 124.414 313.335 127.12 310.184 128.148C309.705 128.302 309.179 128.413 308.623 128.478V131.881H307.623V128.546C307.294 128.553 306.96 128.546 306.623 128.524V131.881H305.623V128.418C305.229 128.36 304.836 128.282 304.451 128.184C304.149 128.104 303.868 128.039 303.825 128.039C303.782 128.039 303.278 128.98 302.703 130.138C301.567 132.409 301.495 132.511 300.826 132.713C300.394 132.844 299.862 132.844 298.984 132.706C297.466 132.475 296.402 131.925 295.567 130.919C294.776 129.978 294.251 128.553 294.229 127.316C294.215 126.766 294.237 126.665 294.416 126.361C294.524 126.173 294.719 125.941 294.848 125.84C295.114 125.644 301.788 122.034 301.788 122.034H301.822C301.117 121.669 300.444 121.124 299.948 120.5L299.581 120.03L299.02 119.936C296.395 119.516 294.287 117.642 293.107 114.697C292.856 114.053 292.769 113.923 292.259 113.395C291.251 112.36 290.503 111.304 289.849 109.987C289.439 109.169 289 108.07 289 107.867C289 107.635 289.273 107.346 289.496 107.346C289.604 107.346 291.489 107.997 293.683 108.786C295.869 109.582 297.675 110.219 297.689 110.211C297.697 110.197 297.639 110.038 297.56 109.85C297.229 109.061 296.841 107.216 296.841 106.384C296.841 106.109 296.877 106 297.02 105.863C297.114 105.762 297.258 105.682 297.344 105.682C297.423 105.682 300.006 106.905 303.084 108.402C306.156 109.9 309.098 111.333 309.608 111.579C309.91 111.726 310.417 111.972 310.958 112.234C311.346 112.422 311.751 112.619 312.112 112.794L313.673 113.561L314.126 113.221C314.694 112.787 315.536 112.375 316.248 112.179C316.665 112.064 317.025 112.027 317.701 112.02C318.521 112.013 318.636 112.035 318.996 112.201C319.521 112.447 320.017 112.925 320.305 113.453C320.513 113.836 320.614 113.923 321.19 114.278C321.303 114.346 321.42 114.417 321.53 114.484L321.53 114.484C321.769 114.629 321.979 114.756 322.067 114.806L322.069 114.806L322.077 114.805L322.097 114.802C321.901 114.056 321.674 113.071 321.493 112.283L321.493 112.283C321.38 111.791 321.285 111.376 321.225 111.145C321.103 110.667 320.988 110.24 320.974 110.19C320.952 110.124 320.851 110.153 320.636 110.276C318.78 111.354 316.032 110.689 314.903 108.894C314.586 108.395 314.608 108.156 314.989 107.802C315.68 107.158 316.607 106.818 317.665 106.811C318.485 106.803 319.06 106.934 319.765 107.281L319.924 107.356C320.159 107.465 320.334 107.547 320.334 107.541C320.341 107.534 320.29 107.252 320.211 106.912C320.031 106.058 319.737 104.358 319.607 103.381C319.514 102.665 319.514 102.535 319.607 102.354C319.78 102.021 320.103 101.97 320.391 102.223C320.549 102.368 320.585 102.498 320.686 103.258C320.751 103.736 320.815 104.134 320.83 104.148C320.844 104.162 320.952 104.025 321.074 103.851C321.377 103.403 322.089 102.773 322.592 102.506Z" fill="#FEFEFF"/>
</g>
<path d="M288.1 63.4951V66H286.635V58.8906H289.408C289.942 58.8906 290.411 58.9883 290.814 59.1836C291.221 59.3789 291.534 59.6572 291.752 60.0186C291.97 60.3766 292.079 60.7852 292.079 61.2441C292.079 61.9408 291.84 62.4909 291.361 62.8945C290.886 63.2949 290.227 63.4951 289.384 63.4951H288.1ZM288.1 62.3086H289.408C289.796 62.3086 290.09 62.2174 290.292 62.0352C290.497 61.8529 290.6 61.5924 290.6 61.2539C290.6 60.9056 290.497 60.624 290.292 60.4092C290.087 60.1943 289.804 60.0837 289.442 60.0771H288.1V62.3086ZM296.234 64.5352H293.666L293.178 66H291.62L294.267 58.8906H295.624L298.285 66H296.728L296.234 64.5352ZM294.062 63.3486H295.839L294.945 60.6875L294.062 63.3486ZM300.502 64.8232H304.086V66H298.671V65.1406L302.187 60.0771H298.676V58.8906H304.008V59.7305L300.502 64.8232ZM305.287 67.7822L304.55 67.3965L304.726 67.0791C304.944 66.682 305.056 66.2865 305.062 65.8926V64.7988H306.254L306.249 65.7754C306.246 66.1367 306.155 66.5013 305.976 66.8691C305.797 67.237 305.567 67.5413 305.287 67.7822ZM312.812 58.8906H314.276V63.8125C314.276 64.265 314.175 64.6654 313.974 65.0137C313.775 65.3587 313.493 65.6257 313.129 65.8145C312.764 66.0033 312.353 66.0977 311.894 66.0977C311.142 66.0977 310.556 65.9072 310.136 65.5264C309.716 65.1423 309.506 64.6003 309.506 63.9004H310.98C310.98 64.2487 311.054 64.5059 311.2 64.6719C311.347 64.8379 311.578 64.9209 311.894 64.9209C312.174 64.9209 312.396 64.8249 312.562 64.6328C312.729 64.4408 312.812 64.1673 312.812 63.8125V58.8906ZM320.912 58.8906V63.5732C320.912 64.3512 320.668 64.9665 320.18 65.4189C319.695 65.8714 319.031 66.0977 318.188 66.0977C317.357 66.0977 316.698 65.8779 316.21 65.4385C315.722 64.999 315.473 64.3952 315.463 63.627V58.8906H316.928V63.583C316.928 64.0485 317.038 64.3887 317.26 64.6035C317.484 64.8151 317.794 64.9209 318.188 64.9209C319.011 64.9209 319.429 64.488 319.442 63.6221V58.8906H320.912ZM325.8 64.1348C325.8 63.8581 325.702 63.6465 325.507 63.5C325.312 63.3503 324.96 63.194 324.452 63.0312C323.944 62.8652 323.542 62.7025 323.246 62.543C322.439 62.1068 322.035 61.5192 322.035 60.7803C322.035 60.3962 322.143 60.0544 322.357 59.7549C322.576 59.4521 322.886 59.2161 323.29 59.0469C323.697 58.8776 324.153 58.793 324.657 58.793C325.165 58.793 325.618 58.8857 326.015 59.0713C326.412 59.2536 326.719 59.5124 326.938 59.8477C327.159 60.1829 327.27 60.5638 327.27 60.9902H325.805C325.805 60.6647 325.702 60.4124 325.497 60.2334C325.292 60.0511 325.004 59.96 324.633 59.96C324.275 59.96 323.996 60.0365 323.798 60.1895C323.599 60.3392 323.5 60.5378 323.5 60.7852C323.5 61.0163 323.616 61.21 323.847 61.3662C324.081 61.5225 324.424 61.6689 324.877 61.8057C325.71 62.0563 326.317 62.3672 326.698 62.7383C327.079 63.1094 327.27 63.5716 327.27 64.125C327.27 64.7402 327.037 65.2236 326.571 65.5752C326.106 65.9235 325.479 66.0977 324.691 66.0977C324.145 66.0977 323.646 65.9984 323.197 65.7998C322.748 65.598 322.405 65.3229 322.167 64.9746C321.933 64.6263 321.815 64.2227 321.815 63.7637H323.285C323.285 64.5482 323.754 64.9404 324.691 64.9404C325.04 64.9404 325.312 64.8704 325.507 64.7305C325.702 64.5872 325.8 64.3887 325.8 64.1348ZM333.617 60.0771H331.439V66H329.975V60.0771H327.826V58.8906H333.617V60.0771ZM336.015 66H334.55V58.8906H336.015V66ZM342.958 63.6318C342.903 64.3968 342.619 64.999 342.108 65.4385C341.601 65.8779 340.93 66.0977 340.097 66.0977C339.185 66.0977 338.467 65.7917 337.943 65.1797C337.423 64.5645 337.162 63.7214 337.162 62.6504V62.2158C337.162 61.5322 337.283 60.93 337.523 60.4092C337.764 59.8883 338.108 59.4896 338.554 59.2129C339.003 58.9329 339.524 58.793 340.116 58.793C340.937 58.793 341.597 59.0127 342.099 59.4521C342.6 59.8916 342.89 60.5085 342.968 61.3027H341.503C341.467 60.8438 341.339 60.5117 341.117 60.3066C340.899 60.0983 340.565 59.9941 340.116 59.9941C339.628 59.9941 339.262 60.1699 339.018 60.5215C338.777 60.8698 338.653 61.4118 338.646 62.1475V62.6846C338.646 63.4528 338.762 64.0143 338.993 64.3691C339.228 64.724 339.595 64.9014 340.097 64.9014C340.549 64.9014 340.886 64.7988 341.107 64.5938C341.332 64.3854 341.461 64.0648 341.493 63.6318H342.958ZM340.634 65.9707L340.58 66.2539C341.068 66.3418 341.312 66.6234 341.312 67.0986C341.312 67.4567 341.163 67.7399 340.863 67.9482C340.567 68.1566 340.149 68.2607 339.608 68.2607L339.574 67.4453C339.939 67.4453 340.121 67.3135 340.121 67.0498C340.121 66.9131 340.066 66.8187 339.955 66.7666C339.848 66.7178 339.672 66.6852 339.428 66.6689L339.579 65.9707H340.634ZM347.934 64.5352H345.365L344.877 66H343.319L345.966 58.8906H347.323L349.984 66H348.427L347.934 64.5352ZM345.761 63.3486H347.538L346.645 60.6875L345.761 63.3486ZM357.416 62.9189H354.604V64.8232H357.904V66H353.139V58.8906H357.895V60.0771H354.604V61.7715H357.416V62.9189ZM288.192 81H286.728V73.8906H288.192V81ZM295.336 81H293.871L291.02 76.3223V81H289.555V73.8906H291.02L293.876 78.5781V73.8906H295.336V81ZM300.302 79.1348C300.302 78.8581 300.204 78.6465 300.009 78.5C299.813 78.3503 299.462 78.194 298.954 78.0312C298.446 77.8652 298.044 77.7025 297.748 77.543C296.941 77.1068 296.537 76.5192 296.537 75.7803C296.537 75.3962 296.645 75.0544 296.859 74.7549C297.077 74.4521 297.388 74.2161 297.792 74.0469C298.199 73.8776 298.655 73.793 299.159 73.793C299.667 73.793 300.119 73.8857 300.517 74.0713C300.914 74.2536 301.221 74.5124 301.439 74.8477C301.661 75.1829 301.771 75.5638 301.771 75.9902H300.307C300.307 75.6647 300.204 75.4124 299.999 75.2334C299.794 75.0511 299.506 74.96 299.135 74.96C298.777 74.96 298.498 75.0365 298.3 75.1895C298.101 75.3392 298.002 75.5378 298.002 75.7852C298.002 76.0163 298.118 76.21 298.349 76.3662C298.583 76.5225 298.926 76.6689 299.379 76.8057C300.212 77.0563 300.819 77.3672 301.2 77.7383C301.581 78.1094 301.771 78.5716 301.771 79.125C301.771 79.7402 301.539 80.2236 301.073 80.5752C300.608 80.9235 299.981 81.0977 299.193 81.0977C298.646 81.0977 298.148 80.9984 297.699 80.7998C297.25 80.598 296.907 80.3229 296.669 79.9746C296.435 79.6263 296.317 79.2227 296.317 78.7637H297.787C297.787 79.5482 298.256 79.9404 299.193 79.9404C299.542 79.9404 299.813 79.8704 300.009 79.7305C300.204 79.5872 300.302 79.3887 300.302 79.1348ZM308.119 75.0771H305.941V81H304.477V75.0771H302.328V73.8906H308.119V75.0771ZM310.517 81H309.052V73.8906H310.517V81ZM317.084 75.0771H314.906V81H313.441V75.0771H311.293V73.8906H317.084V75.0771ZM323.305 73.8906V78.5732C323.305 79.3512 323.061 79.9665 322.572 80.4189C322.087 80.8714 321.423 81.0977 320.58 81.0977C319.75 81.0977 319.091 80.8779 318.603 80.4385C318.114 79.999 317.865 79.3952 317.855 78.627V73.8906H319.32V78.583C319.32 79.0485 319.431 79.3887 319.652 79.6035C319.877 79.8151 320.186 79.9209 320.58 79.9209C321.404 79.9209 321.822 79.488 321.835 78.6221V73.8906H323.305ZM326.063 81H324.599V73.8906H326.063V81ZM333.007 78.6318C332.951 79.3968 332.668 79.999 332.157 80.4385C331.649 80.8779 330.979 81.0977 330.146 81.0977C329.234 81.0977 328.516 80.7917 327.992 80.1797C327.471 79.5645 327.211 78.7214 327.211 77.6504V77.2158C327.211 76.5322 327.331 75.93 327.572 75.4092C327.813 74.8883 328.157 74.4896 328.603 74.2129C329.052 73.9329 329.573 73.793 330.165 73.793C330.985 73.793 331.646 74.0127 332.147 74.4521C332.649 74.8916 332.938 75.5085 333.017 76.3027H331.552C331.516 75.8438 331.387 75.5117 331.166 75.3066C330.948 75.0983 330.614 74.9941 330.165 74.9941C329.677 74.9941 329.311 75.1699 329.066 75.5215C328.826 75.8698 328.702 76.4118 328.695 77.1475V77.6846C328.695 78.4528 328.811 79.0143 329.042 79.3691C329.276 79.724 329.644 79.9014 330.146 79.9014C330.598 79.9014 330.935 79.7988 331.156 79.5938C331.381 79.3854 331.509 79.0648 331.542 78.6318H333.007ZM330.683 80.9707L330.629 81.2539C331.117 81.3418 331.361 81.6234 331.361 82.0986C331.361 82.4567 331.212 82.7399 330.912 82.9482C330.616 83.1566 330.198 83.2607 329.657 83.2607L329.623 82.4453C329.988 82.4453 330.17 82.3135 330.17 82.0498C330.17 81.9131 330.115 81.8187 330.004 81.7666C329.896 81.7178 329.721 81.6852 329.477 81.6689L329.628 80.9707H330.683ZM339.809 77.6064C339.809 78.3063 339.685 78.9199 339.438 79.4473C339.19 79.9746 338.835 80.3815 338.373 80.668C337.914 80.9544 337.387 81.0977 336.791 81.0977C336.202 81.0977 335.676 80.9561 335.214 80.6729C334.752 80.3896 334.394 79.986 334.14 79.4619C333.886 78.9346 333.757 78.3291 333.754 77.6455V77.2939C333.754 76.5941 333.879 75.9788 334.13 75.4482C334.384 74.9144 334.74 74.5059 335.199 74.2227C335.661 73.9362 336.189 73.793 336.781 73.793C337.374 73.793 337.899 73.9362 338.358 74.2227C338.821 74.5059 339.177 74.9144 339.428 75.4482C339.682 75.9788 339.809 76.5924 339.809 77.2891V77.6064ZM338.324 77.2842C338.324 76.5387 338.191 75.9723 337.924 75.585C337.657 75.1976 337.276 75.0039 336.781 75.0039C336.29 75.0039 335.91 75.196 335.644 75.5801C335.377 75.9609 335.242 76.5208 335.238 77.2598V77.6064C335.238 78.3324 335.372 78.8955 335.639 79.2959C335.906 79.6963 336.29 79.8965 336.791 79.8965C337.283 79.8965 337.66 79.7044 337.924 79.3203C338.188 78.9329 338.321 78.3698 338.324 77.6309V77.2842ZM338.617 72.0547C338.617 72.4225 338.51 72.7318 338.295 72.9824C338.08 73.2298 337.818 73.3535 337.509 73.3535C337.385 73.3535 337.274 73.3405 337.177 73.3145C337.082 73.2852 336.951 73.2249 336.781 73.1338C336.612 73.0426 336.49 72.9873 336.415 72.9678C336.34 72.945 336.259 72.9336 336.171 72.9336C336.057 72.9336 335.959 72.9743 335.878 73.0557C335.8 73.137 335.761 73.2526 335.761 73.4023L334.94 73.3535C334.94 72.9922 335.046 72.6846 335.258 72.4307C335.473 72.1768 335.735 72.0498 336.044 72.0498C336.142 72.0498 336.233 72.0628 336.317 72.0889C336.405 72.1117 336.547 72.1702 336.742 72.2646C336.938 72.359 337.073 72.416 337.147 72.4355C337.222 72.4551 337.3 72.4648 337.382 72.4648C337.496 72.4648 337.593 72.4258 337.675 72.3477C337.759 72.2663 337.802 72.1507 337.802 72.001L338.617 72.0547ZM345.15 77.9189H342.338V79.8232H345.639V81H340.873V73.8906H345.629V75.0771H342.338V76.7715H345.15V77.9189ZM350.185 79.1348C350.185 78.8581 350.087 78.6465 349.892 78.5C349.696 78.3503 349.345 78.194 348.837 78.0312C348.329 77.8652 347.927 77.7025 347.631 77.543C346.824 77.1068 346.42 76.5192 346.42 75.7803C346.42 75.3962 346.527 75.0544 346.742 74.7549C346.96 74.4521 347.271 74.2161 347.675 74.0469C348.082 73.8776 348.537 73.793 349.042 73.793C349.55 73.793 350.002 73.8857 350.399 74.0713C350.797 74.2536 351.104 74.5124 351.322 74.8477C351.544 75.1829 351.654 75.5638 351.654 75.9902H350.189C350.189 75.6647 350.087 75.4124 349.882 75.2334C349.677 75.0511 349.389 74.96 349.018 74.96C348.66 74.96 348.381 75.0365 348.183 75.1895C347.984 75.3392 347.885 75.5378 347.885 75.7852C347.885 76.0163 348 76.21 348.231 76.3662C348.466 76.5225 348.809 76.6689 349.262 76.8057C350.095 77.0563 350.702 77.3672 351.083 77.7383C351.464 78.1094 351.654 78.5716 351.654 79.125C351.654 79.7402 351.422 80.2236 350.956 80.5752C350.491 80.9235 349.864 81.0977 349.076 81.0977C348.529 81.0977 348.031 80.9984 347.582 80.7998C347.133 80.598 346.789 80.3229 346.552 79.9746C346.317 79.6263 346.2 79.2227 346.2 78.7637H347.67C347.67 79.5482 348.139 79.9404 349.076 79.9404C349.424 79.9404 349.696 79.8704 349.892 79.7305C350.087 79.5872 350.185 79.3887 350.185 79.1348ZM290.912 93.0947H288.1V96H286.635V88.8906H291.264V90.0771H288.1V91.9131H290.912V93.0947ZM297.953 92.6064C297.953 93.3063 297.829 93.9199 297.582 94.4473C297.335 94.9746 296.98 95.3815 296.518 95.668C296.059 95.9544 295.531 96.0977 294.936 96.0977C294.346 96.0977 293.821 95.9561 293.358 95.6729C292.896 95.3896 292.538 94.986 292.284 94.4619C292.03 93.9346 291.902 93.3291 291.898 92.6455V92.2939C291.898 91.5941 292.024 90.9788 292.274 90.4482C292.528 89.9144 292.885 89.5059 293.344 89.2227C293.806 88.9362 294.333 88.793 294.926 88.793C295.518 88.793 296.044 88.9362 296.503 89.2227C296.965 89.5059 297.322 89.9144 297.572 90.4482C297.826 90.9788 297.953 91.5924 297.953 92.2891V92.6064ZM296.469 92.2842C296.469 91.5387 296.335 90.9723 296.068 90.585C295.801 90.1976 295.421 90.0039 294.926 90.0039C294.434 90.0039 294.055 90.196 293.788 90.5801C293.521 90.9609 293.386 91.5208 293.383 92.2598V92.6064C293.383 93.3324 293.516 93.8955 293.783 94.2959C294.05 94.6963 294.434 94.8965 294.936 94.8965C295.427 94.8965 295.805 94.7044 296.068 94.3203C296.332 93.9329 296.465 93.3698 296.469 92.6309V92.2842ZM301.649 93.3975H300.482V96H299.018V88.8906H301.659C302.499 88.8906 303.147 89.0778 303.603 89.4521C304.058 89.8265 304.286 90.3555 304.286 91.0391C304.286 91.5241 304.18 91.9294 303.969 92.2549C303.76 92.5771 303.443 92.8343 303.017 93.0264L304.555 95.9316V96H302.982L301.649 93.3975ZM300.482 92.2109H301.664C302.032 92.2109 302.317 92.1182 302.519 91.9326C302.72 91.7438 302.821 91.485 302.821 91.1562C302.821 90.821 302.725 90.5573 302.533 90.3652C302.344 90.1732 302.053 90.0771 301.659 90.0771H300.482V92.2109ZM310.512 90.0771H308.334V96H306.869V90.0771H304.721V88.8906H310.512V90.0771ZM315.629 92.9189H312.816V94.8232H316.117V96H311.352V88.8906H316.107V90.0771H312.816V91.7715H315.629V92.9189ZM320.663 94.1348C320.663 93.8581 320.565 93.6465 320.37 93.5C320.175 93.3503 319.823 93.194 319.315 93.0312C318.808 92.8652 318.406 92.7025 318.109 92.543C317.302 92.1068 316.898 91.5192 316.898 90.7803C316.898 90.3962 317.006 90.0544 317.221 89.7549C317.439 89.4521 317.75 89.2161 318.153 89.0469C318.56 88.8776 319.016 88.793 319.521 88.793C320.028 88.793 320.481 88.8857 320.878 89.0713C321.275 89.2536 321.583 89.5124 321.801 89.8477C322.022 90.1829 322.133 90.5638 322.133 90.9902H320.668C320.668 90.6647 320.565 90.4124 320.36 90.2334C320.155 90.0511 319.867 89.96 319.496 89.96C319.138 89.96 318.86 90.0365 318.661 90.1895C318.463 90.3392 318.363 90.5378 318.363 90.7852C318.363 91.0163 318.479 91.21 318.71 91.3662C318.944 91.5225 319.288 91.6689 319.74 91.8057C320.574 92.0563 321.181 92.3672 321.562 92.7383C321.942 93.1094 322.133 93.5716 322.133 94.125C322.133 94.7402 321.9 95.2236 321.435 95.5752C320.969 95.9235 320.342 96.0977 319.555 96.0977C319.008 96.0977 318.51 95.9984 318.061 95.7998C317.611 95.598 317.268 95.3229 317.03 94.9746C316.796 94.6263 316.679 94.2227 316.679 93.7637H318.148C318.148 94.5482 318.617 94.9404 319.555 94.9404C319.903 94.9404 320.175 94.8704 320.37 94.7305C320.565 94.5872 320.663 94.3887 320.663 94.1348Z" fill="#FEFEFF"/>
<path d="M269.57 72H267.312V63.2969L264.617 64.1328V62.2969L269.328 60.6094H269.57V72ZM279.398 60.5078V62.3672H279.18C278.159 62.3828 277.336 62.6484 276.711 63.1641C276.091 63.6797 275.719 64.3958 275.594 65.3125C276.198 64.6979 276.961 64.3906 277.883 64.3906C278.872 64.3906 279.659 64.7448 280.242 65.4531C280.826 66.1615 281.117 67.0938 281.117 68.25C281.117 68.9896 280.956 69.6589 280.633 70.2578C280.315 70.8568 279.862 71.3229 279.273 71.6562C278.69 71.9896 278.029 72.1562 277.289 72.1562C276.091 72.1562 275.122 71.7396 274.383 70.9062C273.648 70.0729 273.281 68.9609 273.281 67.5703V66.7578C273.281 65.5234 273.513 64.4349 273.977 63.4922C274.445 62.5443 275.115 61.8125 275.984 61.2969C276.859 60.776 277.872 60.513 279.023 60.5078H279.398ZM277.195 66.2031C276.831 66.2031 276.5 66.2995 276.203 66.4922C275.906 66.6797 275.688 66.9297 275.547 67.2422V67.9297C275.547 68.6849 275.695 69.276 275.992 69.7031C276.289 70.125 276.706 70.3359 277.242 70.3359C277.727 70.3359 278.117 70.1458 278.414 69.7656C278.716 69.3802 278.867 68.8828 278.867 68.2734C278.867 67.6536 278.716 67.1536 278.414 66.7734C278.112 66.3932 277.706 66.2031 277.195 66.2031Z" fill="#FEFEFF"/>
<path d="M25.1797 18.8594H21.5234V29H20.0312V18.8594H16.3828V17.625H25.1797V18.8594ZM25.4766 24.6953C25.4766 23.8672 25.638 23.1224 25.9609 22.4609C26.2891 21.7995 26.7422 21.2891 27.3203 20.9297C27.9036 20.5703 28.5677 20.3906 29.3125 20.3906C30.4635 20.3906 31.3932 20.7891 32.1016 21.5859C32.8151 22.3828 33.1719 23.4427 33.1719 24.7656V24.8672C33.1719 25.6901 33.013 26.4297 32.6953 27.0859C32.3828 27.737 31.9323 28.2448 31.3438 28.6094C30.7604 28.974 30.0885 29.1562 29.3281 29.1562C28.1823 29.1562 27.2526 28.7578 26.5391 27.9609C25.8307 27.1641 25.4766 26.1094 25.4766 24.7969V24.6953ZM26.9297 24.8672C26.9297 25.8047 27.1458 26.5573 27.5781 27.125C28.0156 27.6927 28.599 27.9766 29.3281 27.9766C30.0625 27.9766 30.6458 27.6901 31.0781 27.1172C31.5104 26.5391 31.7266 25.7318 31.7266 24.6953C31.7266 23.7682 31.5052 23.0182 31.0625 22.4453C30.625 21.8672 30.0417 21.5781 29.3125 21.5781C28.599 21.5781 28.0234 21.862 27.5859 22.4297C27.1484 22.9974 26.9297 23.8099 26.9297 24.8672ZM34.6328 24.7031C34.6328 23.4062 34.9401 22.3646 35.5547 21.5781C36.1693 20.7865 36.974 20.3906 37.9688 20.3906C38.9583 20.3906 39.7422 20.7292 40.3203 21.4062V17H41.7656V29H40.4375L40.3672 28.0938C39.7891 28.8021 38.9844 29.1562 37.9531 29.1562C36.974 29.1562 36.1745 28.7552 35.5547 27.9531C34.9401 27.151 34.6328 26.1042 34.6328 24.8125V24.7031ZM36.0781 24.8672C36.0781 25.8255 36.276 26.5755 36.6719 27.1172C37.0677 27.6589 37.6146 27.9297 38.3125 27.9297C39.2292 27.9297 39.8984 27.5182 40.3203 26.6953V22.8125C39.888 22.0156 39.224 21.6172 38.3281 21.6172C37.6198 21.6172 37.0677 21.8906 36.6719 22.4375C36.276 22.9844 36.0781 23.7943 36.0781 24.8672ZM47.5234 29.1562C46.3776 29.1562 45.4453 28.7812 44.7266 28.0312C44.0078 27.276 43.6484 26.2682 43.6484 25.0078V24.7422C43.6484 23.9036 43.8073 23.1562 44.125 22.5C44.4479 21.8385 44.8958 21.3229 45.4688 20.9531C46.0469 20.5781 46.6719 20.3906 47.3438 20.3906C48.4427 20.3906 49.2969 20.7526 49.9062 21.4766C50.5156 22.2005 50.8203 23.237 50.8203 24.5859V25.1875H45.0938C45.1146 26.0208 45.3568 26.6953 45.8203 27.2109C46.2891 27.7214 46.8828 27.9766 47.6016 27.9766C48.112 27.9766 48.5443 27.8724 48.8984 27.6641C49.2526 27.4557 49.5625 27.1797 49.8281 26.8359L50.7109 27.5234C50.0026 28.612 48.9401 29.1562 47.5234 29.1562ZM47.3438 21.5781C46.7604 21.5781 46.2708 21.7917 45.875 22.2188C45.4792 22.6406 45.2344 23.2344 45.1406 24H49.375V23.8906C49.3333 23.1562 49.1354 22.5885 48.7812 22.1875C48.4271 21.7812 47.9479 21.5781 47.3438 21.5781ZM57.4219 26.7578C57.4219 26.3672 57.2734 26.0651 56.9766 25.8516C56.6849 25.6328 56.1719 25.4453 55.4375 25.2891C54.7083 25.1328 54.1276 24.9453 53.6953 24.7266C53.2682 24.5078 52.9505 24.2474 52.7422 23.9453C52.5391 23.6432 52.4375 23.2839 52.4375 22.8672C52.4375 22.1745 52.7292 21.5885 53.3125 21.1094C53.901 20.6302 54.651 20.3906 55.5625 20.3906C56.5208 20.3906 57.2969 20.638 57.8906 21.1328C58.4896 21.6276 58.7891 22.2604 58.7891 23.0312H57.3359C57.3359 22.6354 57.1667 22.2943 56.8281 22.0078C56.4948 21.7214 56.0729 21.5781 55.5625 21.5781C55.0365 21.5781 54.625 21.6927 54.3281 21.9219C54.0312 22.151 53.8828 22.4505 53.8828 22.8203C53.8828 23.1693 54.0208 23.4323 54.2969 23.6094C54.5729 23.7865 55.0703 23.9557 55.7891 24.1172C56.513 24.2786 57.099 24.4714 57.5469 24.6953C57.9948 24.9193 58.3255 25.1901 58.5391 25.5078C58.7578 25.8203 58.8672 26.2031 58.8672 26.6562C58.8672 27.4115 58.5651 28.0182 57.9609 28.4766C57.3568 28.9297 56.5729 29.1562 55.6094 29.1562C54.9323 29.1562 54.3333 29.0365 53.8125 28.7969C53.2917 28.5573 52.8828 28.224 52.5859 27.7969C52.2943 27.3646 52.1484 26.8984 52.1484 26.3984H53.5938C53.6198 26.8828 53.8125 27.2682 54.1719 27.5547C54.5365 27.8359 55.0156 27.9766 55.6094 27.9766C56.1562 27.9766 56.5938 27.8672 56.9219 27.6484C57.2552 27.4245 57.4219 27.1276 57.4219 26.7578ZM69.9375 28.1641C69.375 28.8255 68.5495 29.1562 67.4609 29.1562C66.5599 29.1562 65.8724 28.8958 65.3984 28.375C64.9297 27.849 64.6927 27.0729 64.6875 26.0469V20.5469H66.1328V26.0078C66.1328 27.2891 66.6536 27.9297 67.6953 27.9297C68.7995 27.9297 69.5339 27.5182 69.8984 26.6953V20.5469H71.3438V29H69.9688L69.9375 28.1641ZM74.9141 20.5469L74.9609 21.6094C75.6068 20.7969 76.4505 20.3906 77.4922 20.3906C79.2786 20.3906 80.1797 21.3984 80.1953 23.4141V29H78.75V23.4062C78.7448 22.7969 78.6042 22.3464 78.3281 22.0547C78.0573 21.763 77.6328 21.6172 77.0547 21.6172C76.5859 21.6172 76.1745 21.7422 75.8203 21.9922C75.4661 22.2422 75.1901 22.5703 74.9922 22.9766V29H73.5469V20.5469H74.9141ZM83.9453 29H82.5V20.5469H83.9453V29ZM82.3828 18.3047C82.3828 18.0703 82.4531 17.8724 82.5938 17.7109C82.7396 17.5495 82.9531 17.4688 83.2344 17.4688C83.5156 17.4688 83.7292 17.5495 83.875 17.7109C84.0208 17.8724 84.0938 18.0703 84.0938 18.3047C84.0938 18.5391 84.0208 18.7344 83.875 18.8906C83.7292 19.0469 83.5156 19.125 83.2344 19.125C82.9531 19.125 82.7396 19.0469 82.5938 18.8906C82.4531 18.7344 82.3828 18.5391 82.3828 18.3047ZM85.9141 24.7031C85.9141 23.4062 86.2214 22.3646 86.8359 21.5781C87.4505 20.7865 88.2552 20.3906 89.25 20.3906C90.2396 20.3906 91.0234 20.7292 91.6016 21.4062V17H93.0469V29H91.7188L91.6484 28.0938C91.0703 28.8021 90.2656 29.1562 89.2344 29.1562C88.2552 29.1562 87.4557 28.7552 86.8359 27.9531C86.2214 27.151 85.9141 26.1042 85.9141 24.8125V24.7031ZM87.3594 24.8672C87.3594 25.8255 87.5573 26.5755 87.9531 27.1172C88.349 27.6589 88.8958 27.9297 89.5938 27.9297C90.5104 27.9297 91.1797 27.5182 91.6016 26.6953V22.8125C91.1693 22.0156 90.5052 21.6172 89.6094 21.6172C88.901 21.6172 88.349 21.8906 87.9531 22.4375C87.5573 22.9844 87.3594 23.7943 87.3594 24.8672ZM94.9141 24.6953C94.9141 23.8672 95.0755 23.1224 95.3984 22.4609C95.7266 21.7995 96.1797 21.2891 96.7578 20.9297C97.3411 20.5703 98.0052 20.3906 98.75 20.3906C99.901 20.3906 100.831 20.7891 101.539 21.5859C102.253 22.3828 102.609 23.4427 102.609 24.7656V24.8672C102.609 25.6901 102.451 26.4297 102.133 27.0859C101.82 27.737 101.37 28.2448 100.781 28.6094C100.198 28.974 99.526 29.1562 98.7656 29.1562C97.6198 29.1562 96.6901 28.7578 95.9766 27.9609C95.2682 27.1641 94.9141 26.1094 94.9141 24.7969V24.6953ZM96.3672 24.8672C96.3672 25.8047 96.5833 26.5573 97.0156 27.125C97.4531 27.6927 98.0365 27.9766 98.7656 27.9766C99.5 27.9766 100.083 27.6901 100.516 27.1172C100.948 26.5391 101.164 25.7318 101.164 24.6953C101.164 23.7682 100.943 23.0182 100.5 22.4453C100.062 21.8672 99.4792 21.5781 98.75 21.5781C98.0365 21.5781 97.4609 21.862 97.0234 22.4297C96.5859 22.9974 96.3672 23.8099 96.3672 24.8672ZM109.344 26.7578C109.344 26.3672 109.195 26.0651 108.898 25.8516C108.607 25.6328 108.094 25.4453 107.359 25.2891C106.63 25.1328 106.049 24.9453 105.617 24.7266C105.19 24.5078 104.872 24.2474 104.664 23.9453C104.461 23.6432 104.359 23.2839 104.359 22.8672C104.359 22.1745 104.651 21.5885 105.234 21.1094C105.823 20.6302 106.573 20.3906 107.484 20.3906C108.443 20.3906 109.219 20.638 109.812 21.1328C110.411 21.6276 110.711 22.2604 110.711 23.0312H109.258C109.258 22.6354 109.089 22.2943 108.75 22.0078C108.417 21.7214 107.995 21.5781 107.484 21.5781C106.958 21.5781 106.547 21.6927 106.25 21.9219C105.953 22.151 105.805 22.4505 105.805 22.8203C105.805 23.1693 105.943 23.4323 106.219 23.6094C106.495 23.7865 106.992 23.9557 107.711 24.1172C108.435 24.2786 109.021 24.4714 109.469 24.6953C109.917 24.9193 110.247 25.1901 110.461 25.5078C110.68 25.8203 110.789 26.2031 110.789 26.6562C110.789 27.4115 110.487 28.0182 109.883 28.4766C109.279 28.9297 108.495 29.1562 107.531 29.1562C106.854 29.1562 106.255 29.0365 105.734 28.7969C105.214 28.5573 104.805 28.224 104.508 27.7969C104.216 27.3646 104.07 26.8984 104.07 26.3984H105.516C105.542 26.8828 105.734 27.2682 106.094 27.5547C106.458 27.8359 106.938 27.9766 107.531 27.9766C108.078 27.9766 108.516 27.8672 108.844 27.6484C109.177 27.4245 109.344 27.1276 109.344 26.7578ZM123.781 24.8672C123.781 26.1536 123.487 27.1901 122.898 27.9766C122.31 28.763 121.513 29.1562 120.508 29.1562C119.482 29.1562 118.674 28.8307 118.086 28.1797V32.25H116.641V20.5469H117.961L118.031 21.4844C118.62 20.7552 119.438 20.3906 120.484 20.3906C121.5 20.3906 122.302 20.7734 122.891 21.5391C123.484 22.3047 123.781 23.3698 123.781 24.7344V24.8672ZM122.336 24.7031C122.336 23.75 122.133 22.9974 121.727 22.4453C121.32 21.8932 120.763 21.6172 120.055 21.6172C119.18 21.6172 118.523 22.0052 118.086 22.7812V26.8203C118.518 27.5911 119.18 27.9766 120.07 27.9766C120.763 27.9766 121.312 27.7031 121.719 27.1562C122.13 26.6042 122.336 25.7865 122.336 24.7031ZM129.133 29.1562C127.987 29.1562 127.055 28.7812 126.336 28.0312C125.617 27.276 125.258 26.2682 125.258 25.0078V24.7422C125.258 23.9036 125.417 23.1562 125.734 22.5C126.057 21.8385 126.505 21.3229 127.078 20.9531C127.656 20.5781 128.281 20.3906 128.953 20.3906C130.052 20.3906 130.906 20.7526 131.516 21.4766C132.125 22.2005 132.43 23.237 132.43 24.5859V25.1875H126.703C126.724 26.0208 126.966 26.6953 127.43 27.2109C127.898 27.7214 128.492 27.9766 129.211 27.9766C129.721 27.9766 130.154 27.8724 130.508 27.6641C130.862 27.4557 131.172 27.1797 131.438 26.8359L132.32 27.5234C131.612 28.612 130.549 29.1562 129.133 29.1562ZM128.953 21.5781C128.37 21.5781 127.88 21.7917 127.484 22.2188C127.089 22.6406 126.844 23.2344 126.75 24H130.984V23.8906C130.943 23.1562 130.745 22.5885 130.391 22.1875C130.036 21.7812 129.557 21.5781 128.953 21.5781ZM135.68 29H134.234V17H135.68V29ZM143.219 29C143.135 28.8333 143.068 28.5365 143.016 28.1094C142.344 28.8073 141.542 29.1562 140.609 29.1562C139.776 29.1562 139.091 28.9219 138.555 28.4531C138.023 27.9792 137.758 27.3802 137.758 26.6562C137.758 25.776 138.091 25.0938 138.758 24.6094C139.43 24.1198 140.372 23.875 141.586 23.875H142.992V23.2109C142.992 22.7057 142.841 22.3047 142.539 22.0078C142.237 21.7057 141.792 21.5547 141.203 21.5547C140.688 21.5547 140.255 21.6849 139.906 21.9453C139.557 22.2057 139.383 22.5208 139.383 22.8906H137.93C137.93 22.4688 138.078 22.0625 138.375 21.6719C138.677 21.276 139.083 20.9635 139.594 20.7344C140.109 20.5052 140.674 20.3906 141.289 20.3906C142.263 20.3906 143.026 20.6354 143.578 21.125C144.13 21.6094 144.417 22.2786 144.438 23.1328V27.0234C144.438 27.7995 144.536 28.4167 144.734 28.875V29H143.219ZM140.82 27.8984C141.273 27.8984 141.703 27.7812 142.109 27.5469C142.516 27.3125 142.81 27.0078 142.992 26.6328V24.8984H141.859C140.089 24.8984 139.203 25.4167 139.203 26.4531C139.203 26.9062 139.354 27.2604 139.656 27.5156C139.958 27.7708 140.346 27.8984 140.82 27.8984ZM150.32 24.7031C150.32 23.4062 150.628 22.3646 151.242 21.5781C151.857 20.7865 152.661 20.3906 153.656 20.3906C154.646 20.3906 155.43 20.7292 156.008 21.4062V17H157.453V29H156.125L156.055 28.0938C155.477 28.8021 154.672 29.1562 153.641 29.1562C152.661 29.1562 151.862 28.7552 151.242 27.9531C150.628 27.151 150.32 26.1042 150.32 24.8125V24.7031ZM151.766 24.8672C151.766 25.8255 151.964 26.5755 152.359 27.1172C152.755 27.6589 153.302 27.9297 154 27.9297C154.917 27.9297 155.586 27.5182 156.008 26.6953V22.8125C155.576 22.0156 154.911 21.6172 154.016 21.6172C153.307 21.6172 152.755 21.8906 152.359 22.4375C151.964 22.9844 151.766 23.7943 151.766 24.8672ZM161.273 29H159.828V20.5469H161.273V29ZM159.711 18.3047C159.711 18.0703 159.781 17.8724 159.922 17.7109C160.068 17.5495 160.281 17.4688 160.562 17.4688C160.844 17.4688 161.057 17.5495 161.203 17.7109C161.349 17.8724 161.422 18.0703 161.422 18.3047C161.422 18.5391 161.349 18.7344 161.203 18.8906C161.057 19.0469 160.844 19.125 160.562 19.125C160.281 19.125 160.068 19.0469 159.922 18.8906C159.781 18.7344 159.711 18.5391 159.711 18.3047ZM166.383 27.0391L168.477 20.5469H169.953L166.922 29H165.82L162.758 20.5469H164.234L166.383 27.0391ZM174.742 29.1562C173.596 29.1562 172.664 28.7812 171.945 28.0312C171.227 27.276 170.867 26.2682 170.867 25.0078V24.7422C170.867 23.9036 171.026 23.1562 171.344 22.5C171.667 21.8385 172.115 21.3229 172.688 20.9531C173.266 20.5781 173.891 20.3906 174.562 20.3906C175.661 20.3906 176.516 20.7526 177.125 21.4766C177.734 22.2005 178.039 23.237 178.039 24.5859V25.1875H172.312C172.333 26.0208 172.576 26.6953 173.039 27.2109C173.508 27.7214 174.102 27.9766 174.82 27.9766C175.331 27.9766 175.763 27.8724 176.117 27.6641C176.471 27.4557 176.781 27.1797 177.047 26.8359L177.93 27.5234C177.221 28.612 176.159 29.1562 174.742 29.1562ZM174.562 21.5781C173.979 21.5781 173.49 21.7917 173.094 22.2188C172.698 22.6406 172.453 23.2344 172.359 24H176.594V23.8906C176.552 23.1562 176.354 22.5885 176 22.1875C175.646 21.7812 175.167 21.5781 174.562 21.5781ZM183.805 21.8438C183.586 21.8073 183.349 21.7891 183.094 21.7891C182.146 21.7891 181.503 22.1927 181.164 23V29H179.719V20.5469H181.125L181.148 21.5234C181.622 20.7682 182.294 20.3906 183.164 20.3906C183.445 20.3906 183.659 20.4271 183.805 20.5V21.8438ZM190.062 26.7578C190.062 26.3672 189.914 26.0651 189.617 25.8516C189.326 25.6328 188.812 25.4453 188.078 25.2891C187.349 25.1328 186.768 24.9453 186.336 24.7266C185.909 24.5078 185.591 24.2474 185.383 23.9453C185.18 23.6432 185.078 23.2839 185.078 22.8672C185.078 22.1745 185.37 21.5885 185.953 21.1094C186.542 20.6302 187.292 20.3906 188.203 20.3906C189.161 20.3906 189.938 20.638 190.531 21.1328C191.13 21.6276 191.43 22.2604 191.43 23.0312H189.977C189.977 22.6354 189.807 22.2943 189.469 22.0078C189.135 21.7214 188.714 21.5781 188.203 21.5781C187.677 21.5781 187.266 21.6927 186.969 21.9219C186.672 22.151 186.523 22.4505 186.523 22.8203C186.523 23.1693 186.661 23.4323 186.938 23.6094C187.214 23.7865 187.711 23.9557 188.43 24.1172C189.154 24.2786 189.74 24.4714 190.188 24.6953C190.635 24.9193 190.966 25.1901 191.18 25.5078C191.398 25.8203 191.508 26.2031 191.508 26.6562C191.508 27.4115 191.206 28.0182 190.602 28.4766C189.997 28.9297 189.214 29.1562 188.25 29.1562C187.573 29.1562 186.974 29.0365 186.453 28.7969C185.932 28.5573 185.523 28.224 185.227 27.7969C184.935 27.3646 184.789 26.8984 184.789 26.3984H186.234C186.26 26.8828 186.453 27.2682 186.812 27.5547C187.177 27.8359 187.656 27.9766 188.25 27.9766C188.797 27.9766 189.234 27.8672 189.562 27.6484C189.896 27.4245 190.062 27.1276 190.062 26.7578ZM194.961 29H193.516V20.5469H194.961V29ZM193.398 18.3047C193.398 18.0703 193.469 17.8724 193.609 17.7109C193.755 17.5495 193.969 17.4688 194.25 17.4688C194.531 17.4688 194.745 17.5495 194.891 17.7109C195.036 17.8724 195.109 18.0703 195.109 18.3047C195.109 18.5391 195.036 18.7344 194.891 18.8906C194.745 19.0469 194.531 19.125 194.25 19.125C193.969 19.125 193.755 19.0469 193.609 18.8906C193.469 18.7344 193.398 18.5391 193.398 18.3047ZM196.93 24.7031C196.93 23.4062 197.237 22.3646 197.852 21.5781C198.466 20.7865 199.271 20.3906 200.266 20.3906C201.255 20.3906 202.039 20.7292 202.617 21.4062V17H204.062V29H202.734L202.664 28.0938C202.086 28.8021 201.281 29.1562 200.25 29.1562C199.271 29.1562 198.471 28.7552 197.852 27.9531C197.237 27.151 196.93 26.1042 196.93 24.8125V24.7031ZM198.375 24.8672C198.375 25.8255 198.573 26.5755 198.969 27.1172C199.365 27.6589 199.911 27.9297 200.609 27.9297C201.526 27.9297 202.195 27.5182 202.617 26.6953V22.8125C202.185 22.0156 201.521 21.6172 200.625 21.6172C199.917 21.6172 199.365 21.8906 198.969 22.4375C198.573 22.9844 198.375 23.7943 198.375 24.8672ZM211.531 29C211.448 28.8333 211.38 28.5365 211.328 28.1094C210.656 28.8073 209.854 29.1562 208.922 29.1562C208.089 29.1562 207.404 28.9219 206.867 28.4531C206.336 27.9792 206.07 27.3802 206.07 26.6562C206.07 25.776 206.404 25.0938 207.07 24.6094C207.742 24.1198 208.685 23.875 209.898 23.875H211.305V23.2109C211.305 22.7057 211.154 22.3047 210.852 22.0078C210.549 21.7057 210.104 21.5547 209.516 21.5547C209 21.5547 208.568 21.6849 208.219 21.9453C207.87 22.2057 207.695 22.5208 207.695 22.8906H206.242C206.242 22.4688 206.391 22.0625 206.688 21.6719C206.99 21.276 207.396 20.9635 207.906 20.7344C208.422 20.5052 208.987 20.3906 209.602 20.3906C210.576 20.3906 211.339 20.6354 211.891 21.125C212.443 21.6094 212.729 22.2786 212.75 23.1328V27.0234C212.75 27.7995 212.849 28.4167 213.047 28.875V29H211.531ZM209.133 27.8984C209.586 27.8984 210.016 27.7812 210.422 27.5469C210.828 27.3125 211.122 27.0078 211.305 26.6328V24.8984H210.172C208.401 24.8984 207.516 25.4167 207.516 26.4531C207.516 26.9062 207.667 27.2604 207.969 27.5156C208.271 27.7708 208.659 27.8984 209.133 27.8984ZM214.664 24.7031C214.664 23.4062 214.971 22.3646 215.586 21.5781C216.201 20.7865 217.005 20.3906 218 20.3906C218.99 20.3906 219.773 20.7292 220.352 21.4062V17H221.797V29H220.469L220.398 28.0938C219.82 28.8021 219.016 29.1562 217.984 29.1562C217.005 29.1562 216.206 28.7552 215.586 27.9531C214.971 27.151 214.664 26.1042 214.664 24.8125V24.7031ZM216.109 24.8672C216.109 25.8255 216.307 26.5755 216.703 27.1172C217.099 27.6589 217.646 27.9297 218.344 27.9297C219.26 27.9297 219.93 27.5182 220.352 26.6953V22.8125C219.919 22.0156 219.255 21.6172 218.359 21.6172C217.651 21.6172 217.099 21.8906 216.703 22.4375C216.307 22.9844 216.109 23.7943 216.109 24.8672ZM227.555 29.1562C226.409 29.1562 225.477 28.7812 224.758 28.0312C224.039 27.276 223.68 26.2682 223.68 25.0078V24.7422C223.68 23.9036 223.839 23.1562 224.156 22.5C224.479 21.8385 224.927 21.3229 225.5 20.9531C226.078 20.5781 226.703 20.3906 227.375 20.3906C228.474 20.3906 229.328 20.7526 229.938 21.4766C230.547 22.2005 230.852 23.237 230.852 24.5859V25.1875H225.125C225.146 26.0208 225.388 26.6953 225.852 27.2109C226.32 27.7214 226.914 27.9766 227.633 27.9766C228.143 27.9766 228.576 27.8724 228.93 27.6641C229.284 27.4557 229.594 27.1797 229.859 26.8359L230.742 27.5234C230.034 28.612 228.971 29.1562 227.555 29.1562ZM227.375 21.5781C226.792 21.5781 226.302 21.7917 225.906 22.2188C225.51 22.6406 225.266 23.2344 225.172 24H229.406V23.8906C229.365 23.1562 229.167 22.5885 228.812 22.1875C228.458 21.7812 227.979 21.5781 227.375 21.5781ZM240.008 29.1562C238.862 29.1562 237.93 28.7812 237.211 28.0312C236.492 27.276 236.133 26.2682 236.133 25.0078V24.7422C236.133 23.9036 236.292 23.1562 236.609 22.5C236.932 21.8385 237.38 21.3229 237.953 20.9531C238.531 20.5781 239.156 20.3906 239.828 20.3906C240.927 20.3906 241.781 20.7526 242.391 21.4766C243 22.2005 243.305 23.237 243.305 24.5859V25.1875H237.578C237.599 26.0208 237.841 26.6953 238.305 27.2109C238.773 27.7214 239.367 27.9766 240.086 27.9766C240.596 27.9766 241.029 27.8724 241.383 27.6641C241.737 27.4557 242.047 27.1797 242.312 26.8359L243.195 27.5234C242.487 28.612 241.424 29.1562 240.008 29.1562ZM239.828 21.5781C239.245 21.5781 238.755 21.7917 238.359 22.2188C237.964 22.6406 237.719 23.2344 237.625 24H241.859V23.8906C241.818 23.1562 241.62 22.5885 241.266 22.1875C240.911 21.7812 240.432 21.5781 239.828 21.5781ZM252.461 29.1562C251.315 29.1562 250.383 28.7812 249.664 28.0312C248.945 27.276 248.586 26.2682 248.586 25.0078V24.7422C248.586 23.9036 248.745 23.1562 249.062 22.5C249.385 21.8385 249.833 21.3229 250.406 20.9531C250.984 20.5781 251.609 20.3906 252.281 20.3906C253.38 20.3906 254.234 20.7526 254.844 21.4766C255.453 22.2005 255.758 23.237 255.758 24.5859V25.1875H250.031C250.052 26.0208 250.294 26.6953 250.758 27.2109C251.227 27.7214 251.82 27.9766 252.539 27.9766C253.049 27.9766 253.482 27.8724 253.836 27.6641C254.19 27.4557 254.5 27.1797 254.766 26.8359L255.648 27.5234C254.94 28.612 253.878 29.1562 252.461 29.1562ZM252.281 21.5781C251.698 21.5781 251.208 21.7917 250.812 22.2188C250.417 22.6406 250.172 23.2344 250.078 24H254.312V23.8906C254.271 23.1562 254.073 22.5885 253.719 22.1875C253.365 21.7812 252.885 21.5781 252.281 21.5781ZM257.086 24.7031C257.086 23.4062 257.393 22.3646 258.008 21.5781C258.622 20.7865 259.427 20.3906 260.422 20.3906C261.411 20.3906 262.195 20.7292 262.773 21.4062V17H264.219V29H262.891L262.82 28.0938C262.242 28.8021 261.438 29.1562 260.406 29.1562C259.427 29.1562 258.628 28.7552 258.008 27.9531C257.393 27.151 257.086 26.1042 257.086 24.8125V24.7031ZM258.531 24.8672C258.531 25.8255 258.729 26.5755 259.125 27.1172C259.521 27.6589 260.068 27.9297 260.766 27.9297C261.682 27.9297 262.352 27.5182 262.773 26.6953V22.8125C262.341 22.0156 261.677 21.6172 260.781 21.6172C260.073 21.6172 259.521 21.8906 259.125 22.4375C258.729 22.9844 258.531 23.7943 258.531 24.8672ZM271.688 28.1641C271.125 28.8255 270.299 29.1562 269.211 29.1562C268.31 29.1562 267.622 28.8958 267.148 28.375C266.68 27.849 266.443 27.0729 266.438 26.0469V20.5469H267.883V26.0078C267.883 27.2891 268.404 27.9297 269.445 27.9297C270.549 27.9297 271.284 27.5182 271.648 26.6953V20.5469H273.094V29H271.719L271.688 28.1641ZM278.688 27.9766C279.203 27.9766 279.654 27.8203 280.039 27.5078C280.424 27.1953 280.638 26.8047 280.68 26.3359H282.047C282.021 26.8203 281.854 27.2812 281.547 27.7188C281.24 28.1562 280.828 28.5052 280.312 28.7656C279.802 29.026 279.26 29.1562 278.688 29.1562C277.536 29.1562 276.62 28.7734 275.938 28.0078C275.26 27.237 274.922 26.1849 274.922 24.8516V24.6094C274.922 23.7865 275.073 23.0547 275.375 22.4141C275.677 21.7734 276.109 21.276 276.672 20.9219C277.24 20.5677 277.909 20.3906 278.68 20.3906C279.628 20.3906 280.414 20.6745 281.039 21.2422C281.669 21.8099 282.005 22.5469 282.047 23.4531H280.68C280.638 22.9062 280.43 22.4583 280.055 22.1094C279.685 21.7552 279.227 21.5781 278.68 21.5781C277.945 21.5781 277.375 21.8438 276.969 22.375C276.568 22.901 276.367 23.6641 276.367 24.6641V24.9375C276.367 25.9115 276.568 26.6615 276.969 27.1875C277.37 27.7135 277.943 27.9766 278.688 27.9766ZM288.891 29C288.807 28.8333 288.74 28.5365 288.688 28.1094C288.016 28.8073 287.214 29.1562 286.281 29.1562C285.448 29.1562 284.763 28.9219 284.227 28.4531C283.695 27.9792 283.43 27.3802 283.43 26.6562C283.43 25.776 283.763 25.0938 284.43 24.6094C285.102 24.1198 286.044 23.875 287.258 23.875H288.664V23.2109C288.664 22.7057 288.513 22.3047 288.211 22.0078C287.909 21.7057 287.464 21.5547 286.875 21.5547C286.359 21.5547 285.927 21.6849 285.578 21.9453C285.229 22.2057 285.055 22.5208 285.055 22.8906H283.602C283.602 22.4688 283.75 22.0625 284.047 21.6719C284.349 21.276 284.755 20.9635 285.266 20.7344C285.781 20.5052 286.346 20.3906 286.961 20.3906C287.935 20.3906 288.698 20.6354 289.25 21.125C289.802 21.6094 290.089 22.2786 290.109 23.1328V27.0234C290.109 27.7995 290.208 28.4167 290.406 28.875V29H288.891ZM286.492 27.8984C286.945 27.8984 287.375 27.7812 287.781 27.5469C288.188 27.3125 288.482 27.0078 288.664 26.6328V24.8984H287.531C285.76 24.8984 284.875 25.4167 284.875 26.4531C284.875 26.9062 285.026 27.2604 285.328 27.5156C285.63 27.7708 286.018 27.8984 286.492 27.8984ZM295.766 27.9766C296.281 27.9766 296.732 27.8203 297.117 27.5078C297.503 27.1953 297.716 26.8047 297.758 26.3359H299.125C299.099 26.8203 298.932 27.2812 298.625 27.7188C298.318 28.1562 297.906 28.5052 297.391 28.7656C296.88 29.026 296.339 29.1562 295.766 29.1562C294.615 29.1562 293.698 28.7734 293.016 28.0078C292.339 27.237 292 26.1849 292 24.8516V24.6094C292 23.7865 292.151 23.0547 292.453 22.4141C292.755 21.7734 293.188 21.276 293.75 20.9219C294.318 20.5677 294.987 20.3906 295.758 20.3906C296.706 20.3906 297.492 20.6745 298.117 21.2422C298.747 21.8099 299.083 22.5469 299.125 23.4531H297.758C297.716 22.9062 297.508 22.4583 297.133 22.1094C296.763 21.7552 296.305 21.5781 295.758 21.5781C295.023 21.5781 294.453 21.8438 294.047 22.375C293.646 22.901 293.445 23.6641 293.445 24.6641V24.9375C293.445 25.9115 293.646 26.6615 294.047 27.1875C294.448 27.7135 295.021 27.9766 295.766 27.9766ZM296 29.0703L295.906 29.4766C296.703 29.6172 297.102 30.0677 297.102 30.8281C297.102 31.3333 296.893 31.7318 296.477 32.0234C296.06 32.3203 295.479 32.4688 294.734 32.4688L294.68 31.6328C295.091 31.6328 295.409 31.5651 295.633 31.4297C295.862 31.2943 295.977 31.1042 295.977 30.8594C295.977 30.6302 295.893 30.4609 295.727 30.3516C295.56 30.2422 295.221 30.1641 294.711 30.1172L294.961 29.0703H296ZM305.969 29C305.885 28.8333 305.818 28.5365 305.766 28.1094C305.094 28.8073 304.292 29.1562 303.359 29.1562C302.526 29.1562 301.841 28.9219 301.305 28.4531C300.773 27.9792 300.508 27.3802 300.508 26.6562C300.508 25.776 300.841 25.0938 301.508 24.6094C302.18 24.1198 303.122 23.875 304.336 23.875H305.742V23.2109C305.742 22.7057 305.591 22.3047 305.289 22.0078C304.987 21.7057 304.542 21.5547 303.953 21.5547C303.438 21.5547 303.005 21.6849 302.656 21.9453C302.307 22.2057 302.133 22.5208 302.133 22.8906H300.68C300.68 22.4688 300.828 22.0625 301.125 21.6719C301.427 21.276 301.833 20.9635 302.344 20.7344C302.859 20.5052 303.424 20.3906 304.039 20.3906C305.013 20.3906 305.776 20.6354 306.328 21.125C306.88 21.6094 307.167 22.2786 307.188 23.1328V27.0234C307.188 27.7995 307.286 28.4167 307.484 28.875V29H305.969ZM303.57 27.8984C304.023 27.8984 304.453 27.7812 304.859 27.5469C305.266 27.3125 305.56 27.0078 305.742 26.6328V24.8984H304.609C302.839 24.8984 301.953 25.4167 301.953 26.4531C301.953 26.9062 302.104 27.2604 302.406 27.5156C302.708 27.7708 303.096 27.8984 303.57 27.8984ZM306.969 17.25C306.969 17.8125 306.807 18.2682 306.484 18.6172C306.167 18.9661 305.768 19.1406 305.289 19.1406C305.076 19.1406 304.891 19.1146 304.734 19.0625C304.578 19.0104 304.372 18.9036 304.117 18.7422C303.867 18.5807 303.685 18.4844 303.57 18.4531C303.461 18.4167 303.333 18.3984 303.188 18.3984C302.974 18.3984 302.792 18.4818 302.641 18.6484C302.49 18.8099 302.414 19.0182 302.414 19.2734L301.445 19.2188C301.445 18.6615 301.602 18.2005 301.914 17.8359C302.232 17.4714 302.633 17.2891 303.117 17.2891C303.299 17.2891 303.464 17.3151 303.609 17.3672C303.755 17.4193 303.953 17.5208 304.203 17.6719C304.453 17.8229 304.643 17.9219 304.773 17.9688C304.909 18.0156 305.057 18.0391 305.219 18.0391C305.443 18.0391 305.628 17.9505 305.773 17.7734C305.924 17.5964 306 17.3906 306 17.1562L306.969 17.25ZM309.07 24.6953C309.07 23.8672 309.232 23.1224 309.555 22.4609C309.883 21.7995 310.336 21.2891 310.914 20.9297C311.497 20.5703 312.161 20.3906 312.906 20.3906C314.057 20.3906 314.987 20.7891 315.695 21.5859C316.409 22.3828 316.766 23.4427 316.766 24.7656V24.8672C316.766 25.6901 316.607 26.4297 316.289 27.0859C315.977 27.737 315.526 28.2448 314.938 28.6094C314.354 28.974 313.682 29.1562 312.922 29.1562C311.776 29.1562 310.846 28.7578 310.133 27.9609C309.424 27.1641 309.07 26.1094 309.07 24.7969V24.6953ZM310.523 24.8672C310.523 25.8047 310.74 26.5573 311.172 27.125C311.609 27.6927 312.193 27.9766 312.922 27.9766C313.656 27.9766 314.24 27.6901 314.672 27.1172C315.104 26.5391 315.32 25.7318 315.32 24.6953C315.32 23.7682 315.099 23.0182 314.656 22.4453C314.219 21.8672 313.635 21.5781 312.906 21.5781C312.193 21.5781 311.617 21.862 311.18 22.4297C310.742 22.9974 310.523 23.8099 310.523 24.8672ZM320.195 25.7891H318.891L318.789 17.625H320.305L320.195 25.7891ZM318.734 28.2734C318.734 28.0391 318.805 27.8438 318.945 27.6875C319.091 27.526 319.305 27.4453 319.586 27.4453C319.867 27.4453 320.081 27.526 320.227 27.6875C320.372 27.8438 320.445 28.0391 320.445 28.2734C320.445 28.5078 320.372 28.7031 320.227 28.8594C320.081 29.0104 319.867 29.0859 319.586 29.0859C319.305 29.0859 319.091 29.0104 318.945 28.8594C318.805 28.7031 318.734 28.5078 318.734 28.2734Z" fill="#332F38"/>
<defs>
<clipPath id="clip0_65_784">
<rect width="36.8291" height="37.0451" fill="white" transform="translate(289.877 96)"/>
</clipPath>
</defs>
</svg>
