<svg width="374" height="72" viewBox="0 0 374 72" fill="none" xmlns="http://www.w3.org/2000/svg">
<rect x="-1" width="375" height="72" fill="#FE9738"/>
<path d="M155.356 30.5347H152.906V36H149.83V21.0703H155.377C157.141 21.0703 158.501 21.4634 159.458 22.2495C160.415 23.0356 160.894 24.1465 160.894 25.582C160.894 26.6006 160.671 27.4517 160.227 28.1353C159.79 28.812 159.123 29.3521 158.228 29.7554L161.458 35.8564V36H158.156L155.356 30.5347ZM152.906 28.043H155.387C156.16 28.043 156.758 27.8481 157.182 27.4585C157.605 27.062 157.817 26.5186 157.817 25.8281C157.817 25.124 157.616 24.5703 157.212 24.167C156.816 23.7637 156.204 23.562 155.377 23.562H152.906V28.043ZM169.476 36C169.339 35.7334 169.24 35.4019 169.179 35.0054C168.461 35.8052 167.528 36.2051 166.379 36.2051C165.292 36.2051 164.39 35.8906 163.672 35.2617C162.961 34.6328 162.606 33.8398 162.606 32.8828C162.606 31.707 163.04 30.8047 163.908 30.1758C164.783 29.5469 166.044 29.229 167.692 29.2222H169.056V28.5864C169.056 28.0737 168.922 27.6636 168.656 27.356C168.396 27.0483 167.982 26.8945 167.415 26.8945C166.916 26.8945 166.523 27.0142 166.236 27.2534C165.956 27.4927 165.815 27.8208 165.815 28.2378H162.852C162.852 27.5952 163.05 27.0005 163.447 26.4536C163.843 25.9067 164.404 25.4795 165.128 25.1719C165.853 24.8574 166.667 24.7002 167.569 24.7002C168.936 24.7002 170.02 25.0454 170.819 25.7358C171.626 26.4194 172.029 27.3833 172.029 28.6274V33.4365C172.036 34.4893 172.183 35.2856 172.47 35.8257V36H169.476ZM167.025 33.939C167.463 33.939 167.866 33.8433 168.235 33.6519C168.604 33.4536 168.878 33.1904 169.056 32.8623V30.9551H167.948C166.465 30.9551 165.675 31.4678 165.58 32.4932L165.569 32.6675C165.569 33.0366 165.699 33.3408 165.959 33.5801C166.219 33.8193 166.574 33.939 167.025 33.939ZM177.033 24.9053L177.125 26.187C177.918 25.1958 178.981 24.7002 180.314 24.7002C181.49 24.7002 182.365 25.0454 182.939 25.7358C183.514 26.4263 183.808 27.4585 183.821 28.8325V36H180.858V28.9043C180.858 28.2754 180.721 27.8208 180.448 27.5405C180.174 27.2534 179.72 27.1099 179.084 27.1099C178.25 27.1099 177.625 27.4653 177.208 28.1763V36H174.244V24.9053H177.033ZM190.107 31.5498L189.041 32.6162V36H186.077V20.25H189.041V28.9761L189.615 28.2378L192.455 24.9053H196.013L192.004 29.5298L196.362 36H192.958L190.107 31.5498ZM200.422 36H197.449V24.9053H200.422V36ZM197.274 22.0342C197.274 21.5898 197.421 21.2241 197.715 20.937C198.016 20.6499 198.423 20.5063 198.936 20.5063C199.441 20.5063 199.845 20.6499 200.146 20.937C200.446 21.2241 200.597 21.5898 200.597 22.0342C200.597 22.4854 200.443 22.8545 200.135 23.1416C199.834 23.4287 199.435 23.5723 198.936 23.5723C198.437 23.5723 198.033 23.4287 197.726 23.1416C197.425 22.8545 197.274 22.4854 197.274 22.0342ZM205.601 24.9053L205.693 26.187C206.486 25.1958 207.549 24.7002 208.882 24.7002C210.058 24.7002 210.933 25.0454 211.507 25.7358C212.081 26.4263 212.375 27.4585 212.389 28.8325V36H209.425V28.9043C209.425 28.2754 209.289 27.8208 209.015 27.5405C208.742 27.2534 208.287 27.1099 207.651 27.1099C206.817 27.1099 206.192 27.4653 205.775 28.1763V36H202.812V24.9053H205.601ZM214.214 30.3706C214.214 28.6685 214.617 27.2979 215.424 26.2588C216.237 25.2197 217.331 24.7002 218.705 24.7002C219.922 24.7002 220.869 25.1172 221.545 25.9512L221.668 24.9053H224.355V35.6309C224.355 36.6016 224.133 37.4458 223.688 38.1636C223.251 38.8813 222.632 39.4282 221.833 39.8042C221.033 40.1802 220.096 40.3682 219.023 40.3682C218.209 40.3682 217.417 40.2041 216.644 39.876C215.872 39.5547 215.287 39.1377 214.891 38.625L216.203 36.8203C216.941 37.6475 217.837 38.061 218.89 38.061C219.676 38.061 220.288 37.8491 220.725 37.4253C221.163 37.0083 221.381 36.4136 221.381 35.6411V35.0464C220.698 35.8188 219.799 36.2051 218.685 36.2051C217.352 36.2051 216.271 35.6855 215.444 34.6465C214.624 33.6006 214.214 32.2163 214.214 30.4937V30.3706ZM217.177 30.5859C217.177 31.5908 217.379 32.3804 217.782 32.9546C218.186 33.522 218.739 33.8057 219.443 33.8057C220.346 33.8057 220.992 33.4673 221.381 32.7905V28.125C220.985 27.4482 220.346 27.1099 219.464 27.1099C218.753 27.1099 218.192 27.4004 217.782 27.9814C217.379 28.5625 217.177 29.4307 217.177 30.5859Z" fill="#FEFEFF"/>
<path d="M98.0625 48.6748C98.0625 49.3714 97.9453 49.9801 97.7109 50.501C97.4766 51.0186 97.1445 51.4141 96.7148 51.6875C96.2852 51.9609 95.7839 52.0977 95.2109 52.0977C94.651 52.0977 94.1546 51.9609 93.7217 51.6875C93.2887 51.4108 92.9518 51.0186 92.7109 50.5107C92.4733 49.9997 92.3512 49.4089 92.3447 48.7383V48.2256C92.3447 47.542 92.4635 46.9382 92.7012 46.4141C92.9388 45.89 93.2741 45.4896 93.707 45.2129C94.1432 44.9329 94.6413 44.793 95.2012 44.793C95.7708 44.793 96.2721 44.9313 96.7051 45.208C97.1413 45.4814 97.4766 45.8802 97.7109 46.4043C97.9453 46.9251 98.0625 47.5322 98.0625 48.2256V48.6748ZM97.1299 48.2158C97.1299 47.3727 96.9606 46.7266 96.6221 46.2773C96.2835 45.8249 95.8099 45.5986 95.2012 45.5986C94.6087 45.5986 94.1416 45.8249 93.7998 46.2773C93.4613 46.7266 93.2871 47.3516 93.2773 48.1523V48.6748C93.2773 49.4919 93.4482 50.1348 93.79 50.6035C94.1351 51.069 94.6087 51.3018 95.2109 51.3018C95.8164 51.3018 96.2852 51.082 96.6172 50.6426C96.9492 50.1999 97.1201 49.5667 97.1299 48.7432V48.2158ZM104.361 47.5273C104.225 47.5046 104.076 47.4932 103.917 47.4932C103.325 47.4932 102.923 47.7454 102.711 48.25V52H101.808V46.7168H102.687L102.701 47.3271C102.997 46.8551 103.417 46.6191 103.961 46.6191C104.137 46.6191 104.27 46.6419 104.361 46.6875V47.5273ZM107.291 52.0977C106.575 52.0977 105.992 51.8633 105.543 51.3945C105.094 50.9225 104.869 50.2926 104.869 49.5049V49.3389C104.869 48.8148 104.968 48.3477 105.167 47.9375C105.369 47.5241 105.649 47.2018 106.007 46.9707C106.368 46.7363 106.759 46.6191 107.179 46.6191C107.866 46.6191 108.399 46.8454 108.78 47.2979C109.161 47.7503 109.352 48.3981 109.352 49.2412V49.6172H105.772C105.785 50.138 105.937 50.5596 106.227 50.8818C106.52 51.2008 106.891 51.3604 107.34 51.3604C107.659 51.3604 107.929 51.2952 108.15 51.165C108.372 51.0348 108.565 50.8623 108.731 50.6475L109.283 51.0771C108.84 51.7575 108.176 52.0977 107.291 52.0977ZM107.179 47.3613C106.814 47.3613 106.508 47.4948 106.261 47.7617C106.013 48.0254 105.86 48.3965 105.802 48.875H108.448V48.8066C108.422 48.3477 108.299 47.9928 108.077 47.7422C107.856 47.4883 107.556 47.3613 107.179 47.3613ZM113.478 50.5986C113.478 50.3545 113.385 50.1657 113.199 50.0322C113.017 49.8955 112.696 49.7783 112.237 49.6807C111.782 49.583 111.419 49.4658 111.148 49.3291C110.882 49.1924 110.683 49.0296 110.553 48.8408C110.426 48.652 110.362 48.4274 110.362 48.167C110.362 47.734 110.545 47.3678 110.909 47.0684C111.277 46.7689 111.746 46.6191 112.315 46.6191C112.914 46.6191 113.399 46.7738 113.771 47.083C114.145 47.3923 114.332 47.7878 114.332 48.2695H113.424C113.424 48.0221 113.318 47.8089 113.106 47.6299C112.898 47.4508 112.634 47.3613 112.315 47.3613C111.987 47.3613 111.729 47.4329 111.544 47.5762C111.358 47.7194 111.266 47.9066 111.266 48.1377C111.266 48.3558 111.352 48.5202 111.524 48.6309C111.697 48.7415 112.008 48.8473 112.457 48.9482C112.91 49.0492 113.276 49.1696 113.556 49.3096C113.836 49.4495 114.042 49.6188 114.176 49.8174C114.312 50.0127 114.381 50.252 114.381 50.5352C114.381 51.0072 114.192 51.3864 113.814 51.6729C113.437 51.9561 112.947 52.0977 112.345 52.0977C111.922 52.0977 111.547 52.0228 111.222 51.873C110.896 51.7233 110.641 51.515 110.455 51.248C110.273 50.9779 110.182 50.6865 110.182 50.374H111.085C111.101 50.6768 111.222 50.9176 111.446 51.0967C111.674 51.2725 111.974 51.3604 112.345 51.3604C112.687 51.3604 112.96 51.292 113.165 51.1553C113.373 51.0153 113.478 50.8298 113.478 50.5986ZM118.819 51.4775C118.468 51.891 117.952 52.0977 117.271 52.0977C116.708 52.0977 116.279 51.9349 115.982 51.6094C115.689 51.2806 115.541 50.7956 115.538 50.1543V46.7168H116.441V50.1299C116.441 50.9307 116.767 51.3311 117.418 51.3311C118.108 51.3311 118.567 51.0739 118.795 50.5596V46.7168H119.698V52H118.839L118.819 51.4775ZM122.057 52H121.153V44.5H122.057V52ZM124.732 45.4375V46.7168H125.719V47.415H124.732V50.6914C124.732 50.903 124.776 51.0625 124.864 51.1699C124.952 51.2741 125.102 51.3262 125.313 51.3262C125.418 51.3262 125.561 51.3066 125.743 51.2676V52C125.506 52.0651 125.274 52.0977 125.05 52.0977C124.646 52.0977 124.342 51.9756 124.137 51.7314C123.932 51.4873 123.829 51.1406 123.829 50.6914V47.415H122.867V46.7168H123.829V45.4375H124.732ZM130.04 52C129.988 51.8958 129.946 51.7103 129.913 51.4434C129.493 51.8796 128.992 52.0977 128.409 52.0977C127.888 52.0977 127.46 51.9512 127.125 51.6582C126.793 51.362 126.627 50.9876 126.627 50.5352C126.627 49.985 126.835 49.5586 127.252 49.2559C127.672 48.9499 128.261 48.7969 129.02 48.7969H129.898V48.3818C129.898 48.0661 129.804 47.8154 129.615 47.6299C129.426 47.4411 129.148 47.3467 128.78 47.3467C128.458 47.3467 128.188 47.4281 127.97 47.5908C127.752 47.7536 127.643 47.9505 127.643 48.1816H126.734C126.734 47.918 126.827 47.6641 127.013 47.4199C127.201 47.1725 127.455 46.9772 127.774 46.834C128.097 46.6908 128.45 46.6191 128.834 46.6191C129.443 46.6191 129.92 46.7721 130.265 47.0781C130.61 47.3809 130.789 47.7992 130.802 48.333V50.7646C130.802 51.2497 130.864 51.6354 130.987 51.9219V52H130.04ZM128.541 51.3115C128.824 51.3115 129.093 51.2383 129.347 51.0918C129.601 50.9453 129.785 50.7549 129.898 50.5205V49.4365H129.19C128.084 49.4365 127.53 49.7604 127.53 50.4082C127.53 50.6914 127.625 50.9128 127.813 51.0723C128.002 51.2318 128.245 51.3115 128.541 51.3115ZM131.998 49.3145C131.998 48.5039 132.19 47.8529 132.574 47.3613C132.958 46.8665 133.461 46.6191 134.083 46.6191C134.701 46.6191 135.191 46.8307 135.553 47.2539V44.5H136.456V52H135.626L135.582 51.4336C135.221 51.8763 134.718 52.0977 134.073 52.0977C133.461 52.0977 132.962 51.847 132.574 51.3457C132.19 50.8444 131.998 50.1901 131.998 49.3828V49.3145ZM132.901 49.417C132.901 50.016 133.025 50.4847 133.272 50.8232C133.52 51.1618 133.862 51.3311 134.298 51.3311C134.871 51.3311 135.289 51.0739 135.553 50.5596V48.1328C135.283 47.6348 134.868 47.3857 134.308 47.3857C133.865 47.3857 133.52 47.5566 133.272 47.8984C133.025 48.2402 132.901 48.7464 132.901 49.417ZM137.623 49.3096C137.623 48.792 137.724 48.3265 137.926 47.9131C138.131 47.4997 138.414 47.1807 138.775 46.9561C139.14 46.7314 139.555 46.6191 140.021 46.6191C140.74 46.6191 141.321 46.8682 141.764 47.3662C142.21 47.8643 142.433 48.5267 142.433 49.3535V49.417C142.433 49.9313 142.333 50.3936 142.135 50.8037C141.939 51.2106 141.658 51.528 141.29 51.7559C140.925 51.9837 140.506 52.0977 140.03 52.0977C139.314 52.0977 138.733 51.8486 138.287 51.3506C137.844 50.8525 137.623 50.1934 137.623 49.373V49.3096ZM138.531 49.417C138.531 50.0029 138.666 50.4733 138.937 50.8281C139.21 51.1829 139.575 51.3604 140.03 51.3604C140.489 51.3604 140.854 51.1813 141.124 50.8232C141.394 50.4619 141.529 49.9574 141.529 49.3096C141.529 48.7301 141.391 48.2614 141.114 47.9033C140.841 47.542 140.476 47.3613 140.021 47.3613C139.575 47.3613 139.215 47.5387 138.941 47.8936C138.668 48.2484 138.531 48.7562 138.531 49.417ZM148.238 52.0977C147.522 52.0977 146.939 51.8633 146.49 51.3945C146.041 50.9225 145.816 50.2926 145.816 49.5049V49.3389C145.816 48.8148 145.916 48.3477 146.114 47.9375C146.316 47.5241 146.596 47.2018 146.954 46.9707C147.315 46.7363 147.706 46.6191 148.126 46.6191C148.813 46.6191 149.347 46.8454 149.728 47.2979C150.108 47.7503 150.299 48.3981 150.299 49.2412V49.6172H146.72C146.733 50.138 146.884 50.5596 147.174 50.8818C147.467 51.2008 147.838 51.3604 148.287 51.3604C148.606 51.3604 148.876 51.2952 149.098 51.165C149.319 51.0348 149.513 50.8623 149.679 50.6475L150.23 51.0771C149.788 51.7575 149.124 52.0977 148.238 52.0977ZM148.126 47.3613C147.761 47.3613 147.455 47.4948 147.208 47.7617C146.961 48.0254 146.808 48.3965 146.749 48.875H149.396V48.8066C149.369 48.3477 149.246 47.9928 149.024 47.7422C148.803 47.4883 148.504 47.3613 148.126 47.3613ZM148.565 44.5H149.659L148.351 45.9355H147.623L148.565 44.5ZM155.948 51.3604C156.271 51.3604 156.552 51.2627 156.793 51.0674C157.034 50.8721 157.167 50.6279 157.193 50.335H158.048C158.032 50.6377 157.927 50.9258 157.735 51.1992C157.543 51.4727 157.286 51.6908 156.964 51.8535C156.645 52.0163 156.306 52.0977 155.948 52.0977C155.229 52.0977 154.656 51.8584 154.229 51.3799C153.806 50.8981 153.595 50.2406 153.595 49.4072V49.2559C153.595 48.7415 153.689 48.2842 153.878 47.8838C154.067 47.4834 154.337 47.1725 154.688 46.9512C155.043 46.7298 155.462 46.6191 155.943 46.6191C156.536 46.6191 157.027 46.7965 157.418 47.1514C157.812 47.5062 158.022 47.9668 158.048 48.5332H157.193C157.167 48.1914 157.037 47.9115 156.803 47.6934C156.572 47.472 156.285 47.3613 155.943 47.3613C155.484 47.3613 155.128 47.5273 154.874 47.8594C154.623 48.1882 154.498 48.665 154.498 49.29V49.4609C154.498 50.0697 154.623 50.5384 154.874 50.8672C155.125 51.196 155.483 51.3604 155.948 51.3604ZM158.824 49.3096C158.824 48.792 158.925 48.3265 159.127 47.9131C159.332 47.4997 159.615 47.1807 159.977 46.9561C160.341 46.7314 160.756 46.6191 161.222 46.6191C161.941 46.6191 162.522 46.8682 162.965 47.3662C163.411 47.8643 163.634 48.5267 163.634 49.3535V49.417C163.634 49.9313 163.535 50.3936 163.336 50.8037C163.141 51.2106 162.859 51.528 162.491 51.7559C162.127 51.9837 161.707 52.0977 161.231 52.0977C160.515 52.0977 159.934 51.8486 159.488 51.3506C159.046 50.8525 158.824 50.1934 158.824 49.373V49.3096ZM159.732 49.417C159.732 50.0029 159.868 50.4733 160.138 50.8281C160.411 51.1829 160.776 51.3604 161.231 51.3604C161.69 51.3604 162.055 51.1813 162.325 50.8232C162.595 50.4619 162.73 49.9574 162.73 49.3096C162.73 48.7301 162.592 48.2614 162.315 47.9033C162.042 47.542 161.677 47.3613 161.222 47.3613C160.776 47.3613 160.416 47.5387 160.143 47.8936C159.869 48.2484 159.732 48.7562 159.732 49.417ZM165.616 46.7168L165.641 47.3027C166.028 46.847 166.55 46.6191 167.208 46.6191C167.947 46.6191 168.45 46.9023 168.717 47.4688C168.893 47.2148 169.12 47.0098 169.4 46.8535C169.684 46.6973 170.017 46.6191 170.401 46.6191C171.56 46.6191 172.149 47.2327 172.169 48.46V52H171.266V48.5137C171.266 48.1361 171.179 47.8545 171.007 47.6689C170.834 47.4801 170.545 47.3857 170.138 47.3857C169.802 47.3857 169.524 47.4867 169.303 47.6885C169.081 47.887 168.953 48.1556 168.917 48.4941V52H168.009V48.5381C168.009 47.7699 167.633 47.3857 166.881 47.3857C166.288 47.3857 165.883 47.638 165.665 48.1426V52H164.762V46.7168H165.616ZM177.999 49.417C177.999 50.221 177.815 50.8688 177.447 51.3604C177.079 51.8519 176.581 52.0977 175.953 52.0977C175.312 52.0977 174.807 51.8942 174.439 51.4873V54.0312H173.536V46.7168H174.361L174.405 47.3027C174.773 46.847 175.284 46.6191 175.938 46.6191C176.573 46.6191 177.075 46.8584 177.442 47.3369C177.813 47.8154 177.999 48.4811 177.999 49.334V49.417ZM177.096 49.3145C177.096 48.7188 176.969 48.2484 176.715 47.9033C176.461 47.5583 176.113 47.3857 175.67 47.3857C175.123 47.3857 174.713 47.6283 174.439 48.1133V50.6377C174.71 51.1195 175.123 51.3604 175.68 51.3604C176.113 51.3604 176.456 51.1895 176.71 50.8477C176.967 50.5026 177.096 49.9915 177.096 49.3145ZM182.413 52C182.361 51.8958 182.319 51.7103 182.286 51.4434C181.866 51.8796 181.365 52.0977 180.782 52.0977C180.261 52.0977 179.833 51.9512 179.498 51.6582C179.166 51.362 179 50.9876 179 50.5352C179 49.985 179.208 49.5586 179.625 49.2559C180.045 48.9499 180.634 48.7969 181.393 48.7969H182.271V48.3818C182.271 48.0661 182.177 47.8154 181.988 47.6299C181.799 47.4411 181.521 47.3467 181.153 47.3467C180.831 47.3467 180.561 47.4281 180.343 47.5908C180.125 47.7536 180.016 47.9505 180.016 48.1816H179.107C179.107 47.918 179.2 47.6641 179.386 47.4199C179.575 47.1725 179.828 46.9772 180.147 46.834C180.47 46.6908 180.823 46.6191 181.207 46.6191C181.816 46.6191 182.293 46.7721 182.638 47.0781C182.983 47.3809 183.162 47.7992 183.175 48.333V50.7646C183.175 51.2497 183.237 51.6354 183.36 51.9219V52H182.413ZM180.914 51.3115C181.197 51.3115 181.466 51.2383 181.72 51.0918C181.974 50.9453 182.158 50.7549 182.271 50.5205V49.4365H181.563C180.457 49.4365 179.903 49.7604 179.903 50.4082C179.903 50.6914 179.998 50.9128 180.187 51.0723C180.375 51.2318 180.618 51.3115 180.914 51.3115ZM187.145 47.5273C187.008 47.5046 186.86 47.4932 186.7 47.4932C186.108 47.4932 185.706 47.7454 185.494 48.25V52H184.591V46.7168H185.47L185.484 47.3271C185.781 46.8551 186.201 46.6191 186.744 46.6191C186.92 46.6191 187.053 46.6419 187.145 46.6875V47.5273ZM189.449 45.4375V46.7168H190.436V47.415H189.449V50.6914C189.449 50.903 189.493 51.0625 189.581 51.1699C189.669 51.2741 189.819 51.3262 190.03 51.3262C190.134 51.3262 190.278 51.3066 190.46 51.2676V52C190.222 52.0651 189.991 52.0977 189.767 52.0977C189.363 52.0977 189.059 51.9756 188.854 51.7314C188.648 51.4873 188.546 51.1406 188.546 50.6914V47.415H187.584V46.7168H188.546V45.4375H189.449ZM192.477 52H191.573V46.7168H192.477V52ZM191.5 45.3154C191.5 45.1689 191.544 45.0452 191.632 44.9443C191.723 44.8434 191.856 44.793 192.032 44.793C192.208 44.793 192.341 44.8434 192.433 44.9443C192.524 45.0452 192.569 45.1689 192.569 45.3154C192.569 45.4619 192.524 45.584 192.433 45.6816C192.341 45.7793 192.208 45.8281 192.032 45.8281C191.856 45.8281 191.723 45.7793 191.632 45.6816C191.544 45.584 191.5 45.4619 191.5 45.3154ZM194.908 52H194.005V44.5H194.908V52ZM197.262 47.3564C197.662 46.8649 198.183 46.6191 198.824 46.6191C199.941 46.6191 200.504 47.249 200.514 48.5088V52H199.61V48.5039C199.607 48.123 199.519 47.8415 199.347 47.6592C199.177 47.4769 198.912 47.3857 198.551 47.3857C198.258 47.3857 198.001 47.4639 197.779 47.6201C197.558 47.7764 197.385 47.9814 197.262 48.2354V52H196.358V44.5H197.262V47.3564ZM205.128 52C205.076 51.8958 205.034 51.7103 205.001 51.4434C204.581 51.8796 204.08 52.0977 203.497 52.0977C202.976 52.0977 202.548 51.9512 202.213 51.6582C201.881 51.362 201.715 50.9876 201.715 50.5352C201.715 49.985 201.923 49.5586 202.34 49.2559C202.76 48.9499 203.349 48.7969 204.107 48.7969H204.986V48.3818C204.986 48.0661 204.892 47.8154 204.703 47.6299C204.514 47.4411 204.236 47.3467 203.868 47.3467C203.546 47.3467 203.276 47.4281 203.058 47.5908C202.84 47.7536 202.73 47.9505 202.73 48.1816H201.822C201.822 47.918 201.915 47.6641 202.101 47.4199C202.289 47.1725 202.543 46.9772 202.862 46.834C203.185 46.6908 203.538 46.6191 203.922 46.6191C204.531 46.6191 205.007 46.7721 205.353 47.0781C205.698 47.3809 205.877 47.7992 205.89 48.333V50.7646C205.89 51.2497 205.951 51.6354 206.075 51.9219V52H205.128ZM203.629 51.3115C203.912 51.3115 204.181 51.2383 204.435 51.0918C204.688 50.9453 204.872 50.7549 204.986 50.5205V49.4365H204.278C203.172 49.4365 202.618 49.7604 202.618 50.4082C202.618 50.6914 202.713 50.9128 202.901 51.0723C203.09 51.2318 203.333 51.3115 203.629 51.3115ZM207.086 49.3145C207.086 48.5039 207.278 47.8529 207.662 47.3613C208.046 46.8665 208.549 46.6191 209.171 46.6191C209.789 46.6191 210.279 46.8307 210.641 47.2539V44.5H211.544V52H210.714L210.67 51.4336C210.309 51.8763 209.806 52.0977 209.161 52.0977C208.549 52.0977 208.049 51.847 207.662 51.3457C207.278 50.8444 207.086 50.1901 207.086 49.3828V49.3145ZM207.989 49.417C207.989 50.016 208.113 50.4847 208.36 50.8232C208.608 51.1618 208.95 51.3311 209.386 51.3311C209.959 51.3311 210.377 51.0739 210.641 50.5596V48.1328C210.37 47.6348 209.955 47.3857 209.396 47.3857C208.953 47.3857 208.608 47.5566 208.36 47.8984C208.113 48.2402 207.989 48.7464 207.989 49.417ZM212.711 49.3096C212.711 48.792 212.812 48.3265 213.014 47.9131C213.219 47.4997 213.502 47.1807 213.863 46.9561C214.228 46.7314 214.643 46.6191 215.108 46.6191C215.828 46.6191 216.409 46.8682 216.852 47.3662C217.298 47.8643 217.521 48.5267 217.521 49.3535V49.417C217.521 49.9313 217.421 50.3936 217.223 50.8037C217.027 51.2106 216.746 51.528 216.378 51.7559C216.013 51.9837 215.593 52.0977 215.118 52.0977C214.402 52.0977 213.821 51.8486 213.375 51.3506C212.932 50.8525 212.711 50.1934 212.711 49.373V49.3096ZM213.619 49.417C213.619 50.0029 213.754 50.4733 214.024 50.8281C214.298 51.1829 214.662 51.3604 215.118 51.3604C215.577 51.3604 215.942 51.1813 216.212 50.8232C216.482 50.4619 216.617 49.9574 216.617 49.3096C216.617 48.7301 216.479 48.2614 216.202 47.9033C215.929 47.542 215.564 47.3613 215.108 47.3613C214.662 47.3613 214.303 47.5387 214.029 47.8936C213.756 48.2484 213.619 48.7562 213.619 49.417ZM221.983 46.7168L222.008 47.3027C222.395 46.847 222.918 46.6191 223.575 46.6191C224.314 46.6191 224.817 46.9023 225.084 47.4688C225.26 47.2148 225.488 47.0098 225.768 46.8535C226.051 46.6973 226.384 46.6191 226.769 46.6191C227.927 46.6191 228.517 47.2327 228.536 48.46V52H227.633V48.5137C227.633 48.1361 227.547 47.8545 227.374 47.6689C227.201 47.4801 226.912 47.3857 226.505 47.3857C226.17 47.3857 225.891 47.4867 225.67 47.6885C225.449 47.887 225.32 48.1556 225.284 48.4941V52H224.376V48.5381C224.376 47.7699 224 47.3857 223.248 47.3857C222.656 47.3857 222.25 47.638 222.032 48.1426V52H221.129V46.7168H221.983ZM232.096 52.0977C231.38 52.0977 230.797 51.8633 230.348 51.3945C229.898 50.9225 229.674 50.2926 229.674 49.5049V49.3389C229.674 48.8148 229.773 48.3477 229.972 47.9375C230.174 47.5241 230.453 47.2018 230.812 46.9707C231.173 46.7363 231.563 46.6191 231.983 46.6191C232.67 46.6191 233.204 46.8454 233.585 47.2979C233.966 47.7503 234.156 48.3981 234.156 49.2412V49.6172H230.577C230.59 50.138 230.742 50.5596 231.031 50.8818C231.324 51.2008 231.695 51.3604 232.145 51.3604C232.464 51.3604 232.734 51.2952 232.955 51.165C233.176 51.0348 233.37 50.8623 233.536 50.6475L234.088 51.0771C233.645 51.7575 232.981 52.0977 232.096 52.0977ZM231.983 47.3613C231.619 47.3613 231.313 47.4948 231.065 47.7617C230.818 48.0254 230.665 48.3965 230.606 48.875H233.253V48.8066C233.227 48.3477 233.103 47.9928 232.882 47.7422C232.66 47.4883 232.361 47.3613 231.983 47.3613ZM236.061 46.7168L236.09 47.3809C236.493 46.873 237.021 46.6191 237.672 46.6191C238.788 46.6191 239.352 47.249 239.361 48.5088V52H238.458V48.5039C238.455 48.123 238.367 47.8415 238.194 47.6592C238.025 47.4769 237.76 47.3857 237.398 47.3857C237.105 47.3857 236.848 47.4639 236.627 47.6201C236.406 47.7764 236.233 47.9814 236.109 48.2354V52H235.206V46.7168H236.061ZM243.8 50.5986C243.8 50.3545 243.707 50.1657 243.521 50.0322C243.339 49.8955 243.019 49.7783 242.56 49.6807C242.104 49.583 241.741 49.4658 241.471 49.3291C241.204 49.1924 241.005 49.0296 240.875 48.8408C240.748 48.652 240.685 48.4274 240.685 48.167C240.685 47.734 240.867 47.3678 241.231 47.0684C241.599 46.7689 242.068 46.6191 242.638 46.6191C243.237 46.6191 243.722 46.7738 244.093 47.083C244.467 47.3923 244.654 47.7878 244.654 48.2695H243.746C243.746 48.0221 243.64 47.8089 243.429 47.6299C243.22 47.4508 242.957 47.3613 242.638 47.3613C242.309 47.3613 242.052 47.4329 241.866 47.5762C241.681 47.7194 241.588 47.9066 241.588 48.1377C241.588 48.3558 241.674 48.5202 241.847 48.6309C242.019 48.7415 242.33 48.8473 242.779 48.9482C243.232 49.0492 243.598 49.1696 243.878 49.3096C244.158 49.4495 244.365 49.6188 244.498 49.8174C244.635 50.0127 244.703 50.252 244.703 50.5352C244.703 51.0072 244.514 51.3864 244.137 51.6729C243.759 51.9561 243.269 52.0977 242.667 52.0977C242.244 52.0977 241.869 52.0228 241.544 51.873C241.218 51.7233 240.963 51.515 240.777 51.248C240.595 50.9779 240.504 50.6865 240.504 50.374H241.407C241.424 50.6768 241.544 50.9176 241.769 51.0967C241.996 51.2725 242.296 51.3604 242.667 51.3604C243.009 51.3604 243.282 51.292 243.487 51.1553C243.696 51.0153 243.8 50.8298 243.8 50.5986ZM249.142 52C249.09 51.8958 249.047 51.7103 249.015 51.4434C248.595 51.8796 248.093 52.0977 247.511 52.0977C246.99 52.0977 246.562 51.9512 246.227 51.6582C245.895 51.362 245.729 50.9876 245.729 50.5352C245.729 49.985 245.937 49.5586 246.354 49.2559C246.773 48.9499 247.363 48.7969 248.121 48.7969H249V48.3818C249 48.0661 248.906 47.8154 248.717 47.6299C248.528 47.4411 248.25 47.3467 247.882 47.3467C247.56 47.3467 247.289 47.4281 247.071 47.5908C246.853 47.7536 246.744 47.9505 246.744 48.1816H245.836C245.836 47.918 245.929 47.6641 246.114 47.4199C246.303 47.1725 246.557 46.9772 246.876 46.834C247.198 46.6908 247.551 46.6191 247.936 46.6191C248.544 46.6191 249.021 46.7721 249.366 47.0781C249.711 47.3809 249.89 47.7992 249.903 48.333V50.7646C249.903 51.2497 249.965 51.6354 250.089 51.9219V52H249.142ZM247.643 51.3115C247.926 51.3115 248.194 51.2383 248.448 51.0918C248.702 50.9453 248.886 50.7549 249 50.5205V49.4365H248.292C247.185 49.4365 246.632 49.7604 246.632 50.4082C246.632 50.6914 246.726 50.9128 246.915 51.0723C247.104 51.2318 247.346 51.3115 247.643 51.3115ZM252.301 52H251.397V44.5H252.301V52ZM254.601 46.7168L254.625 47.3027C255.012 46.847 255.535 46.6191 256.192 46.6191C256.931 46.6191 257.434 46.9023 257.701 47.4688C257.877 47.2148 258.105 47.0098 258.385 46.8535C258.668 46.6973 259.002 46.6191 259.386 46.6191C260.545 46.6191 261.134 47.2327 261.153 48.46V52H260.25V48.5137C260.25 48.1361 260.164 47.8545 259.991 47.6689C259.819 47.4801 259.529 47.3857 259.122 47.3857C258.787 47.3857 258.508 47.4867 258.287 47.6885C258.066 47.887 257.937 48.1556 257.901 48.4941V52H256.993V48.5381C256.993 47.7699 256.617 47.3857 255.865 47.3857C255.273 47.3857 254.868 47.638 254.649 48.1426V52H253.746V46.7168H254.601ZM264.713 52.0977C263.997 52.0977 263.414 51.8633 262.965 51.3945C262.516 50.9225 262.291 50.2926 262.291 49.5049V49.3389C262.291 48.8148 262.39 48.3477 262.589 47.9375C262.791 47.5241 263.071 47.2018 263.429 46.9707C263.79 46.7363 264.181 46.6191 264.601 46.6191C265.287 46.6191 265.821 46.8454 266.202 47.2979C266.583 47.7503 266.773 48.3981 266.773 49.2412V49.6172H263.194C263.207 50.138 263.359 50.5596 263.648 50.8818C263.941 51.2008 264.312 51.3604 264.762 51.3604C265.081 51.3604 265.351 51.2952 265.572 51.165C265.794 51.0348 265.987 50.8623 266.153 50.6475L266.705 51.0771C266.262 51.7575 265.598 52.0977 264.713 52.0977ZM264.601 47.3613C264.236 47.3613 263.93 47.4948 263.683 47.7617C263.435 48.0254 263.282 48.3965 263.224 48.875H265.87V48.8066C265.844 48.3477 265.72 47.9928 265.499 47.7422C265.278 47.4883 264.978 47.3613 264.601 47.3613ZM268.678 46.7168L268.707 47.3809C269.111 46.873 269.638 46.6191 270.289 46.6191C271.406 46.6191 271.969 47.249 271.979 48.5088V52H271.075V48.5039C271.072 48.123 270.984 47.8415 270.812 47.6592C270.642 47.4769 270.377 47.3857 270.016 47.3857C269.723 47.3857 269.465 47.4639 269.244 47.6201C269.023 47.7764 268.85 47.9814 268.727 48.2354V52H267.823V46.7168H268.678ZM274.566 45.4375V46.7168H275.553V47.415H274.566V50.6914C274.566 50.903 274.61 51.0625 274.698 51.1699C274.786 51.2741 274.936 51.3262 275.147 51.3262C275.252 51.3262 275.395 51.3066 275.577 51.2676V52C275.34 52.0651 275.108 52.0977 274.884 52.0977C274.48 52.0977 274.176 51.9756 273.971 51.7314C273.766 51.4873 273.663 51.1406 273.663 50.6914V47.415H272.701V46.7168H273.663V45.4375H274.566ZM278.805 52.0977C278.089 52.0977 277.506 51.8633 277.057 51.3945C276.607 50.9225 276.383 50.2926 276.383 49.5049V49.3389C276.383 48.8148 276.482 48.3477 276.681 47.9375C276.882 47.5241 277.162 47.2018 277.521 46.9707C277.882 46.7363 278.272 46.6191 278.692 46.6191C279.379 46.6191 279.913 46.8454 280.294 47.2979C280.675 47.7503 280.865 48.3981 280.865 49.2412V49.6172H277.286C277.299 50.138 277.451 50.5596 277.74 50.8818C278.033 51.2008 278.404 51.3604 278.854 51.3604C279.173 51.3604 279.443 51.2952 279.664 51.165C279.885 51.0348 280.079 50.8623 280.245 50.6475L280.797 51.0771C280.354 51.7575 279.69 52.0977 278.805 52.0977ZM278.692 47.3613C278.328 47.3613 278.022 47.4948 277.774 47.7617C277.527 48.0254 277.374 48.3965 277.315 48.875H279.962V48.8066C279.936 48.3477 279.812 47.9928 279.591 47.7422C279.369 47.4883 279.07 47.3613 278.692 47.3613Z" fill="#110E12"/>
</svg>
