<svg width="56" height="68" viewBox="0 0 56 68" fill="none" xmlns="http://www.w3.org/2000/svg">
<path d="M48.224 28.0137C48.1169 27.9368 45.6314 27.883 42.6947 27.883L37.3565 27.883L36.9359 28.3061C35.8575 29.4369 36.1787 31.8524 37.4712 32.2601C37.6471 32.3139 40.0791 32.3447 42.8782 32.3447C48.3999 32.3293 48.3464 32.337 48.8358 31.4908C49.2718 30.7139 49.2947 29.66 48.8817 28.7984C48.6829 28.3676 48.5835 28.2522 48.224 28.0137Z" fill="#FEFEFF"/>
<path d="M48.3005 33.1832C48.094 33.2832 37.2647 33.2832 37.0658 33.1755C36.9588 33.1139 36.8976 33.2063 36.7676 33.614C36.4846 34.4679 36.2322 35.5525 36.0793 36.5679C35.9952 37.0987 35.9034 37.5603 35.8728 37.5911C35.8422 37.6218 34.5268 37.6526 32.9666 37.6526L30.1216 37.6526L29.3339 36.7987C28.6762 36.0602 28.4697 35.8987 27.9038 35.6217C27.5443 35.4448 27.009 35.2448 26.7184 35.1987C26.4201 35.1448 21.5944 35.1063 15.9732 35.114C4.83803 35.1294 5.23572 35.0986 3.94324 35.9987C1.21298 37.9142 1.38123 42.2682 4.2568 43.9298C5.4728 44.6452 5.40397 44.6375 16.2638 44.6375C25.6477 44.6298 26.6037 44.6068 27.269 44.3683C28.2403 44.0221 29.0127 43.4606 29.594 42.6605L30.0452 42.0374L32.9207 42.0374C34.5115 42.0374 35.8346 42.0605 35.8728 42.099C35.9034 42.1297 35.9952 42.6067 36.0716 43.1605C36.1481 43.7144 36.3623 44.6837 36.5458 45.3145L36.8747 46.4761L37.4024 46.3607C38.1059 46.2068 48.0481 46.253 48.3234 46.4068L48.5528 46.5299L48.7899 45.8145C49.9371 42.3067 49.9294 37.3911 48.7823 33.8524C48.507 33.037 48.5299 33.0601 48.3005 33.1832Z" fill="#FEFEFF"/>
<path d="M48.224 47.399C48.1246 47.3297 45.6849 47.2759 42.8017 47.2682C37.0429 47.2605 37.0888 47.2605 36.6147 48.1375C35.9416 49.3991 36.4082 51.3145 37.4712 51.6453C37.8612 51.7607 47.6963 51.7453 48.0558 51.6299C48.9353 51.3453 49.4324 49.7529 49.05 48.5067C48.92 48.1298 48.5146 47.5682 48.224 47.399Z" fill="#FEFEFF"/>
<g clip-path="url(#clip0_66_703)">
<path fill-rule="evenodd" clip-rule="evenodd" d="M36.5922 6.50559C36.8224 6.38259 37.254 6.21617 37.5417 6.13659C38.1387 5.97741 38.5631 5.96293 39.117 6.06423C39.8148 6.19447 39.9658 6.59241 39.7212 7.64878C39.4479 8.79197 38.5919 9.87004 37.5129 10.4055C36.9015 10.7021 36.139 10.9119 35.6139 10.9119H35.319L35.5492 11.9394C36.0748 14.2192 36.8625 17.1021 37.6645 19.693C38.0356 20.0595 38.4235 20.4361 38.63 20.5883L38.6782 20.6218C38.6782 20.6408 38.3512 20.6432 37.9624 20.6398C38.0818 21.0127 38.2008 21.3767 38.3186 21.7288C38.5128 22.3221 38.6782 22.8648 38.6782 22.9444C38.6782 23.1325 38.3545 23.4291 38.1387 23.4291C37.7935 23.4291 37.628 23.1542 37.218 21.8663C36.9663 21.0776 36.7936 20.6363 36.7217 20.6218C36.7194 20.6218 36.7162 20.6214 36.7121 20.6207C36.6088 20.6158 35.9205 20.7212 35.1392 20.8533C33.7509 21.0849 33.643 21.1138 33.3121 21.3526C33.1179 21.4901 32.8302 21.6565 32.6791 21.7216C31.9094 22.0472 31.6433 22.409 31.1542 23.8705C29.6148 28.4143 27.3346 31.1204 24.1839 32.1478C23.7055 32.3025 23.1788 32.4125 22.6233 32.4777V35.8806H21.6233V32.546C21.2943 32.5531 20.9598 32.546 20.6233 32.5244V35.8806H19.6233V32.4185C19.2288 32.36 18.8361 32.2819 18.451 32.184C18.1489 32.1044 17.8683 32.0392 17.8252 32.0392C17.782 32.0392 17.2785 32.9798 16.703 34.1375C15.5665 36.4094 15.4946 36.5107 14.8256 36.7133C14.394 36.8435 13.8617 36.8435 12.9841 36.7061C11.4664 36.4745 10.4018 35.9246 9.56738 34.9189C8.77613 33.9783 8.25103 32.553 8.22945 31.3157C8.21506 30.7658 8.23664 30.6645 8.41647 30.3606C8.52437 30.1725 8.71859 29.941 8.84806 29.8397C9.11421 29.6443 15.7879 26.0339 15.7879 26.0339H15.8223C15.1167 25.6687 14.4435 25.1243 13.948 24.5L13.5812 24.0297L13.0201 23.9356C10.3946 23.516 8.287 21.642 7.10731 18.6972C6.85555 18.0533 6.76923 17.923 6.25852 17.3948C5.25147 16.3602 4.50338 15.3038 3.8488 13.987C3.43878 13.1694 3 12.0696 3 11.867C3 11.6355 3.27334 11.3461 3.49633 11.3461C3.60423 11.3461 5.48884 11.9972 7.68277 12.7859C9.8695 13.5818 11.675 14.2185 11.6894 14.2113C11.6966 14.1968 11.639 14.0376 11.5599 13.8495C11.229 13.0608 10.8406 11.2158 10.8406 10.3838C10.8406 10.1088 10.8765 10.0003 11.0204 9.8628C11.1139 9.76151 11.2578 9.68192 11.3441 9.68192C11.4232 9.68192 14.0056 10.9047 17.0843 12.4024C20.1558 13.9001 23.0978 15.3328 23.6085 15.5788C23.9101 15.7262 24.4167 15.9719 24.9577 16.2343C25.3457 16.4224 25.7513 16.6191 26.1117 16.7943L27.6726 17.5612L28.1258 17.2212C28.6941 16.7871 29.5357 16.3746 30.2478 16.1793C30.665 16.0635 31.0247 16.0273 31.7008 16.0201C32.5209 16.0129 32.6359 16.0346 32.9956 16.201C33.5207 16.447 34.017 16.9245 34.3048 17.4527C34.5134 17.8362 34.6141 17.923 35.1895 18.2776C35.3032 18.3462 35.4198 18.4169 35.5301 18.4839L35.5303 18.484C35.769 18.629 35.9786 18.7563 36.0671 18.8057L36.0694 18.8055L36.0773 18.8045L36.0974 18.8018C35.901 18.0561 35.6744 17.0708 35.4933 16.2831L35.4932 16.2827C35.3801 15.7908 35.2848 15.3759 35.2255 15.1446C35.1032 14.6671 34.9881 14.2402 34.9737 14.1896C34.9522 14.1244 34.8514 14.1534 34.6357 14.2764C32.7798 15.3545 30.032 14.6888 28.9027 12.8944C28.5862 12.3952 28.6078 12.1564 28.989 11.8019C29.6795 11.1579 30.6075 10.8179 31.6649 10.8106C32.4849 10.8034 33.0603 10.9336 33.7653 11.2809L33.9245 11.3555C34.1586 11.4653 34.3335 11.5474 34.3335 11.5414C34.3407 11.5342 34.2904 11.252 34.2113 10.9119C34.0314 10.0582 33.7365 8.35785 33.607 7.38107C33.5135 6.66477 33.5135 6.53453 33.607 6.35365C33.7797 6.02082 34.1034 5.97017 34.3911 6.22341C34.5493 6.36812 34.5853 6.49835 34.686 7.25807C34.7507 7.7356 34.8155 8.13355 34.8299 8.14802C34.8443 8.16249 34.9522 8.02502 35.0744 7.85137C35.3766 7.40278 36.0887 6.7733 36.5922 6.50559Z" fill="#FEFEFF"/>
</g>
<defs>
<clipPath id="clip0_66_703">
<rect width="36.8291" height="37.0451" fill="white" transform="translate(3.87674)"/>
</clipPath>
</defs>
</svg>
